WinkyRough-Italic.glyphspackage
{
glyphname = exclam;
kernLeft = KO_exclam;
layers = (
{
hints = (
{
horizontal = 1;
place = (-5,120);
type = Stem;
},
{
place = (30,87);
type = Stem;
},
{
place = (15,120);
type = Stem;
}
);
layerId = m005;
shapes = (
{
closed = 1;
nodes = (
(102,198,l),
(122,211,l),
(133,219,l),
(144,223,l),
(152,252,l),
(150,271,l),
(154,289,l),
(148,295,l),
(161,317,l),
(159,333,l),
(155,340,l),
(155,357,l),
(167,370,l),
(160,389,l),
(168,405,l),
(169,419,l),
(179,436,l),
(178,448,l),
(184,469,l),
(181,479,l),
(192,493,l),
(187,510,l),
(189,527,l),
(198,535,l),
(192,553,l),
(197,565,l),
(210,581,l),
(211,597,l),
(219,631,l),
(216,642,l),
(197,656,l),
(175,665,l),
(145,663,l),
(130,655,l),
(119,648,l),
(101,645,l),
(103,634,l),
(98,597,l),
(100,583,l),
(93,565,l),
(95,556,l),
(90,544,l),
(85,525,l),
(87,511,l),
(90,490,l),
(88,476,l),
(82,462,l),
(85,453,l),
(81,433,l),
(82,417,l),
(77,403,l),
(70,388,l),
(73,377,l),
(70,359,l),
(64,345,l),
(66,332,l),
(59,318,l),
(62,296,l),
(52,286,l),
(54,272,l),
(53,257,l),
(43,222,l),
(54,219,l),
(70,208,l),
(76,197,l)
);
},
{
pos = (-42,0);
ref = period;
}
);
width = 220;
},
{
hints = (
{
horizontal = 1;
place = (-5,120);
type = Stem;
},
{
place = (30,87);
type = Stem;
},
{
place = (14,120);
type = Stem;
}
);
layerId = m002;
shapes = (
{
closed = 1;
nodes = (
(105,206,l),
(113,205,l),
(139,218,l),
(145,218,l),
(152,231,l),
(167,244,l),
(172,255,l),
(181,272,l),
(187,277,l),
(191,307,l),
(195,330,l),
(196,347,l),
(195,356,l),
(204,370,l),
(203,388,l),
(204,401,l),
(220,417,l),
(211,432,l),
(226,451,l),
(227,462,l),
(230,475,l),
(233,498,l),
(234,508,l),
(240,525,l),
(239,534,l),
(248,551,l),
(259,568,l),
(266,602,l),
(256,616,l),
(253,628,l),
(257,647,l),
(251,654,l),
(240,662,l),
(222,676,l),
(217,681,l),
(194,689,l),
(188,689,l),
(154,691,l),
(131,691,l),
(113,684,l),
(106,679,l),
(92,667,l),
(77,652,l),
(69,642,l),
(50,627,l),
(40,613,l),
(37,605,l),
(43,572,l),
(39,552,l),
(39,537,l),
(40,524,l),
(44,509,l),
(37,494,l),
(39,482,l),
(38,461,l),
(41,447,l),
(39,432,l),
(26,421,l),
(30,403,l),
(22,391,l),
(30,374,l),
(27,361,l),
(14,342,l),
(23,332,l),
(12,308,l),
(16,285,l),
(5,265,l),
(21,255,l),
(27,241,l),
(26,230,l),
(43,218,l),
(45,212,l),
(59,213,l),
(67,203,l)
);
},
{
pos = (-40,0);
ref = period;
}
);
width = 220;
},
{
hints = (
{
horizontal = 1;
place = (-5,120);
type = Stem;
},
{
place = (31,87);
type = Stem;
},
{
place = (15,120);
type = Stem;
}
);
layerId = m003;
shapes = (
{
closed = 1;
nodes = (
(105,200,l),
(114,205,l),
(126,212,l),
(133,247,l),
(137,257,l),
(141,279,l),
(147,293,l),
(146,303,l),
(152,320,l),
(152,334,l),
(158,355,l),
(161,370,l),
(151,377,l),
(151,394,l),
(153,408,l),
(168,432,l),
(158,440,l),
(165,458,l),
(179,476,l),
(173,484,l),
(170,500,l),
(174,524,l),
(182,530,l),
(194,554,l),
(184,567,l),
(200,582,l),
(191,593,l),
(199,611,l),
(204,640,l),
(195,654,l),
(190,664,l),
(183,662,l),
(152,661,l),
(131,662,l),
(122,648,l),
(113,636,l),
(107,606,l),
(110,595,l),
(109,582,l),
(107,568,l),
(101,553,l),
(102,532,l),
(99,524,l),
(99,507,l),
(99,488,l),
(87,474,l),
(99,457,l),
(93,445,l),
(95,430,l),
(84,413,l),
(89,398,l),
(81,380,l),
(76,363,l),
(81,353,l),
(75,336,l),
(75,320,l),
(69,302,l),
(69,292,l),
(68,277,l),
(62,263,l),
(56,249,l),
(50,217,l),
(71,205,l),
(84,205,l)
);
},
{
pos = (-44,0);
ref = period;
}
);
width = 220;
},
{
hints = (
{
horizontal = 1;
place = (-5,120);
type = Stem;
},
{
place = (31,87);
type = Stem;
},
{
place = (15,120);
type = Stem;
}
);
layerId = "27802CB9-B49D-4E25-883A-F5F5DC48409B";
shapes = (
{
closed = 1;
nodes = (
(97,203,l),
(125,208,l),
(125,219,l),
(146,219,l),
(147,241,l),
(160,269,l),
(162,282,l),
(154,295,l),
(163,313,l),
(159,325,l),
(164,344,l),
(165,353,l),
(171,367,l),
(172,382,l),
(183,402,l),
(183,410,l),
(181,432,l),
(185,445,l),
(187,463,l),
(191,470,l),
(191,492,l),
(191,504,l),
(197,515,l),
(204,536,l),
(205,552,l),
(210,560,l),
(220,580,l),
(212,590,l),
(227,624,l),
(215,642,l),
(215,651,l),
(202,654,l),
(191,667,l),
(181,669,l),
(147,668,l),
(131,666,l),
(123,659,l),
(111,651,l),
(101,637,l),
(88,624,l),
(84,594,l),
(88,575,l),
(88,563,l),
(81,546,l),
(84,536,l),
(86,521,l),
(81,504,l),
(69,488,l),
(74,474,l),
(79,464,l),
(70,444,l),
(74,434,l),
(66,418,l),
(66,403,l),
(57,380,l),
(65,371,l),
(56,355,l),
(56,345,l),
(45,321,l),
(46,310,l),
(45,298,l),
(45,281,l),
(48,270,l),
(41,238,l),
(49,228,l),
(47,212,l),
(63,206,l),
(81,201,l)
);
},
{
alignment = -1;
pos = (-42,0);
ref = period;
}
);
width = 220;
},
{
hints = (
{
horizontal = 1;
place = (-5,120);
type = Stem;
},
{
place = (30,87);
type = Stem;
},
{
place = (14,120);
type = Stem;
}
);
layerId = "9BFA4F56-4850-48F5-A038-9DAB9408749E";
shapes = (
{
closed = 1;
nodes = (
(97,202,l),
(118,208,l),
(128,215,l),
(145,223,l),
(160,238,l),
(156,247,l),
(164,278,l),
(167,297,l),
(164,311,l),
(168,319,l),
(170,333,l),
(182,347,l),
(174,363,l),
(183,379,l),
(189,398,l),
(189,415,l),
(192,424,l),
(198,443,l),
(191,450,l),
(196,472,l),
(205,480,l),
(200,503,l),
(204,516,l),
(207,529,l),
(219,540,l),
(224,554,l),
(225,569,l),
(223,589,l),
(236,619,l),
(224,628,l),
(219,645,l),
(213,660,l),
(201,669,l),
(200,675,l),
(176,674,l),
(147,680,l),
(127,675,l),
(116,663,l),
(110,658,l),
(98,644,l),
(89,633,l),
(80,617,l),
(78,583,l),
(75,570,l),
(64,554,l),
(67,543,l),
(75,531,l),
(71,515,l),
(73,499,l),
(70,487,l),
(60,467,l),
(64,455,l),
(62,443,l),
(60,429,l),
(62,414,l),
(57,395,l),
(45,377,l),
(51,366,l),
(50,347,l),
(46,341,l),
(49,320,l),
(38,303,l),
(40,288,l),
(36,281,l),
(34,249,l),
(29,235,l),
(48,226,l),
(54,211,l),
(61,204,l),
(69,202,l)
);
},
{
alignment = -1;
pos = (-42,0);
ref = period;
}
);
width = 220;
},
{
hints = (
{
horizontal = 1;
place = (-5,120);
type = Stem;
},
{
place = (30,87);
type = Stem;
},
{
place = (14,120);
type = Stem;
}
);
layerId = "B734896E-9115-4752-AF37-164D25EC5193";
shapes = (
{
closed = 1;
nodes = (
(100,202,l),
(118,208,l),
(140,217,l),
(149,218,l),
(154,236,l),
(171,243,l),
(177,263,l),
(181,293,l),
(182,301,l),
(179,316,l),
(180,330,l),
(186,351,l),
(186,358,l),
(189,380,l),
(194,393,l),
(194,408,l),
(191,416,l),
(201,432,l),
(210,445,l),
(203,468,l),
(213,482,l),
(212,496,l),
(213,512,l),
(217,522,l),
(228,539,l),
(232,548,l),
(239,570,l),
(230,579,l),
(243,615,l),
(235,631,l),
(241,639,l),
(222,657,l),
(217,666,l),
(207,669,l),
(193,678,l),
(187,685,l),
(155,681,l),
(132,674,l),
(115,672,l),
(102,663,l),
(87,652,l),
(85,638,l),
(70,631,l),
(62,607,l),
(69,584,l),
(68,568,l),
(64,554,l),
(62,538,l),
(64,518,l),
(60,508,l),
(55,492,l),
(59,476,l),
(57,464,l),
(49,451,l),
(55,431,l),
(54,419,l),
(50,411,l),
(46,394,l),
(36,373,l),
(47,358,l),
(33,352,l),
(40,329,l),
(37,317,l),
(27,301,l),
(31,292,l),
(31,257,l),
(32,246,l),
(27,235,l),
(48,209,l),
(73,202,l)
);
},
{
alignment = -1;
pos = (-41,0);
ref = period;
}
);
width = 220;
},
{
hints = (
{
horizontal = 1;
place = (-5,120);
type = Stem;
},
{
place = (31,87);
type = Stem;
},
{
place = (15,120);
type = Stem;
}
);
layerId = "FC6EA5DF-75BF-4555-8471-DBE331F6C0F3";
shapes = (
{
closed = 1;
nodes = (
(101,205,l),
(114,207,l),
(126,218,l),
(153,225,l),
(162,231,l),
(167,242,l),
(171,256,l),
(180,272,l),
(181,305,l),
(196,316,l),
(187,328,l),
(193,349,l),
(200,363,l),
(199,375,l),
(203,392,l),
(207,412,l),
(204,424,l),
(209,435,l),
(216,454,l),
(215,466,l),
(215,483,l),
(229,497,l),
(233,517,l),
(230,525,l),
(233,545,l),
(249,562,l),
(252,579,l),
(255,601,l),
(253,621,l),
(255,636,l),
(234,644,l),
(233,656,l),
(215,671,l),
(202,674,l),
(193,683,l),
(188,687,l),
(146,683,l),
(128,680,l),
(122,673,l),
(107,673,l),
(91,655,l),
(80,651,l),
(75,634,l),
(62,621,l),
(62,606,l),
(52,571,l),
(54,560,l),
(46,543,l),
(44,533,l),
(47,517,l),
(41,494,l),
(50,479,l),
(46,472,l),
(40,451,l),
(48,443,l),
(48,428,l),
(38,405,l),
(33,389,l),
(38,373,l),
(29,362,l),
(31,351,l),
(22,329,l),
(33,321,l),
(21,304,l),
(18,268,l),
(19,260,l),
(24,243,l),
(31,233,l),
(39,220,l),
(53,214,l),
(69,209,l),
(68,204,l)
);
},
{
alignment = -1;
pos = (-40,0);
ref = period;
}
);
width = 220;
}
);
note = exclam;
unicode = 33;
userData = {
KernOnName = exclam;
KernOnSpecialSpacing = {
L = "spaced-off";
};
};
}
{
glyphname = numbersign;
kernLeft = KO_numbersign;
layers = (
{
hints = (
{
horizontal = 1;
place = (0,21);
target = up;
type = BottomGhost;
},
{
horizontal = 1;
place = (138,65);
type = Stem;
},
{
horizontal = 1;
place = (298,65);
type = Stem;
},
{
place = (17,454);
type = Stem;
}
);
layerId = m005;
shapes = (
{
closed = 1;
nodes = (
(67,2,l),
(78,4,l),
(94,2,l),
(114,13,l),
(132,40,l),
(139,53,l),
(137,70,l),
(149,101,l),
(163,115,l),
(163,128,l),
(170,142,l),
(182,168,l),
(228,165,l),
(277,162,l),
(290,160,l),
(312,165,l),
(342,157,l),
(338,136,l),
(337,118,l),
(328,101,l),
(315,87,l),
(305,64,l),
(300,29,l),
(294,20,l),
(316,5,l),
(330,-1,l),
(344,0,l),
(355,1,l),
(361,11,l),
(386,36,l),
(386,66,l),
(399,84,l),
(412,92,l),
(413,114,l),
(417,123,l),
(418,138,l),
(431,158,l),
(455,157,l),
(474,154,l),
(488,157,l),
(505,160,l),
(520,178,l),
(524,185,l),
(534,205,l),
(541,221,l),
(528,229,l),
(516,238,l),
(506,240,l),
(487,245,l),
(480,241,l),
(473,266,l),
(481,285,l),
(500,299,l),
(496,312,l),
(508,342,l),
(525,378,l),
(534,384,l),
(534,402,l),
(543,419,l),
(559,423,l),
(577,428,l),
(589,423,l),
(606,425,l),
(625,427,l),
(631,438,l),
(634,453,l),
(651,481,l),
(643,492,l),
(630,497,l),
(599,499,l),
(586,509,l),
(589,525,l),
(603,546,l),
(617,577,l),
(624,584,l),
(628,606,l),
(636,631,l),
(632,658,l),
(622,667,l),
(593,666,l),
(586,659,l),
(567,651,l),
(564,627,l),
(551,609,l),
(538,600,l),
(542,578,l),
(528,565,l),
(527,548,l),
(515,537,l),
(511,519,l),
(501,498,l),
(487,502,l),
(458,499,l),
(438,495,l),
(426,496,l),
(386,504,l),
(381,497,l),
(362,502,l),
(350,498,l),
(320,501,l),
(327,520,l),
(331,531,l),
(332,548,l),
(345,560,l),
(353,575,l),
(358,587,l),
(369,602,l),
(374,636,l),
(371,650,l),
(363,653,l),
(359,663,l),
(334,669,l),
(322,666,l),
(311,652,l),
(296,624,l),
(291,599,l),
(277,579,l),
(267,565,l),
(270,548,l),
(253,520,l),
(242,506,l),
(227,500,l),
(197,498,l),
(176,494,l),
(165,486,l),
(155,471,l),
(149,460,l),
(141,446,l),
(143,436,l),
(151,422,l),
(166,413,l),
(181,411,l),
(200,412,l),
(198,398,l),
(195,371,l),
(179,360,l),
(180,343,l),
(169,320,l),
(157,306,l),
(160,288,l),
(146,260,l),
(132,246,l),
(111,245,l),
(99,237,l),
(79,240,l),
(63,243,l),
(44,234,l),
(39,216,l),
(35,204,l),
(30,189,l),
(44,175,l),
(50,167,l),
(66,168,l),
(81,168,l),
(91,164,l),
(84,132,l),
(71,108,l),
(57,80,l),
(44,60,l),
(42,42,l),
(39,14,l),
(50,9,l)
);
},
{
closed = 1;
nodes = (
(339,239,l),
(310,242,l),
(289,238,l),
(260,244,l),
(240,238,l),
(223,246,l),
(224,258,l),
(224,280,l),
(235,301,l),
(245,316,l),
(239,324,l),
(245,340,l),
(264,373,l),
(264,385,l),
(278,400,l),
(293,416,l),
(303,420,l),
(327,420,l),
(339,420,l),
(350,426,l),
(361,419,l),
(383,426,l),
(401,421,l),
(408,419,l),
(423,420,l),
(444,422,l),
(467,419,l),
(455,399,l),
(452,382,l),
(451,368,l),
(432,350,l),
(435,339,l),
(421,321,l),
(414,310,l),
(419,293,l),
(402,279,l),
(395,257,l),
(388,239,l),
(363,240,l),
(355,237,l)
);
}
);
width = 654;
},
{
hints = (
{
horizontal = 1;
place = (0,21);
target = up;
type = BottomGhost;
},
{
horizontal = 1;
place = (138,65);
type = Stem;
},
{
horizontal = 1;
place = (298,65);
type = Stem;
},
{
place = (17,454);
type = Stem;
}
);
layerId = m002;
shapes = (
{
closed = 1;
nodes = (
(77,-28,l),
(84,-22,l),
(101,-26,l),
(122,-19,l),
(134,-12,l),
(143,-6,l),
(159,-4,l),
(171,8,l),
(189,20,l),
(200,50,l),
(210,71,l),
(201,84,l),
(224,112,l),
(247,114,l),
(268,108,l),
(267,97,l),
(265,84,l),
(270,62,l),
(269,49,l),
(262,37,l),
(276,23,l),
(272,8,l),
(277,-1,l),
(301,-4,l),
(302,-16,l),
(322,-18,l),
(341,-20,l),
(346,-28,l),
(369,-27,l),
(372,-22,l),
(393,-17,l),
(409,-6,l),
(417,6,l),
(430,22,l),
(450,53,l),
(449,61,l),
(449,80,l),
(475,99,l),
(488,103,l),
(509,106,l),
(526,114,l),
(536,113,l),
(559,140,l),
(570,146,l),
(587,166,l),
(587,178,l),
(594,193,l),
(601,210,l),
(602,226,l),
(606,240,l),
(598,253,l),
(590,261,l),
(583,268,l),
(568,280,l),
(556,287,l),
(563,307,l),
(569,324,l),
(570,334,l),
(583,347,l),
(591,370,l),
(612,372,l),
(642,380,l),
(657,392,l),
(675,414,l),
(698,428,l),
(693,432,l),
(716,468,l),
(717,477,l),
(715,487,l),
(714,508,l),
(705,512,l),
(694,526,l),
(676,541,l),
(684,567,l),
(701,589,l),
(699,605,l),
(703,628,l),
(692,638,l),
(692,650,l),
(683,667,l),
(674,669,l),
(662,681,l),
(630,688,l),
(610,695,l),
(593,693,l),
(574,682,l),
(550,674,l),
(551,661,l),
(533,646,l),
(517,616,l),
(521,603,l),
(503,574,l),
(492,555,l),
(462,547,l),
(438,548,l),
(427,559,l),
(421,581,l),
(429,595,l),
(439,610,l),
(432,622,l),
(433,634,l),
(421,650,l),
(416,676,l),
(404,684,l),
(376,687,l),
(351,696,l),
(342,686,l),
(312,680,l),
(295,666,l),
(283,661,l),
(275,642,l),
(259,614,l),
(255,595,l),
(254,579,l),
(240,564,l),
(227,550,l),
(208,551,l),
(196,545,l),
(182,547,l),
(157,538,l),
(147,524,l),
(132,516,l),
(126,500,l),
(117,476,l),
(110,457,l),
(113,447,l),
(112,423,l),
(105,415,l),
(112,396,l),
(126,384,l),
(132,373,l),
(139,363,l),
(139,354,l),
(140,335,l),
(134,327,l),
(126,319,l),
(114,308,l),
(103,298,l),
(91,290,l),
(65,292,l),
(50,279,l),
(36,267,l),
(26,258,l),
(12,246,l),
(1,223,l),
(-7,205,l),
(0,190,l),
(-11,174,l),
(4,166,l),
(3,147,l),
(23,142,l),
(24,128,l),
(15,94,l),
(13,75,l),
(13,60,l),
(4,38,l),
(11,32,l),
(14,11,l),
(29,7,l),
(32,-5,l),
(45,-19,l),
(56,-23,l)
);
},
{
closed = 1;
nodes = (
(337,294,l),
(329,294,l),
(317,295,l),
(314,302,l),
(311,308,l),
(308,313,l),
(310,320,l),
(311,324,l),
(313,329,l),
(315,337,l),
(318,340,l),
(321,345,l),
(326,352,l),
(328,356,l),
(334,363,l),
(341,366,l),
(350,370,l),
(355,372,l),
(359,374,l),
(364,374,l),
(367,374,l),
(376,374,l),
(384,374,l),
(388,369,l),
(392,363,l),
(393,355,l),
(395,347,l),
(395,344,l),
(394,338,l),
(393,332,l),
(391,323,l),
(387,317,l),
(383,310,l),
(379,303,l),
(377,300,l),
(374,295,l),
(367,295,l),
(358,294,l),
(353,294,l),
(347,293,l)
);
}
);
width = 681;
},
{
hints = (
{
horizontal = 1;
place = (0,21);
target = up;
type = BottomGhost;
},
{
horizontal = 1;
place = (138,65);
type = Stem;
},
{
horizontal = 1;
place = (298,65);
type = Stem;
},
{
place = (17,454);
type = Stem;
}
);
layerId = m003;
shapes = (
{
closed = 1;
nodes = (
(92,5,l),
(120,25,l),
(124,40,l),
(127,62,l),
(133,91,l),
(142,96,l),
(150,118,l),
(154,125,l),
(163,146,l),
(158,156,l),
(167,171,l),
(183,175,l),
(210,171,l),
(229,174,l),
(243,171,l),
(271,178,l),
(287,174,l),
(316,175,l),
(346,169,l),
(364,174,l),
(344,137,l),
(348,120,l),
(335,107,l),
(329,82,l),
(320,65,l),
(310,48,l),
(301,23,l),
(301,8,l),
(325,4,l),
(336,2,l),
(343,5,l),
(366,31,l),
(370,58,l),
(385,87,l),
(402,109,l),
(398,123,l),
(404,139,l),
(419,148,l),
(424,167,l),
(445,169,l),
(455,164,l),
(469,168,l),
(498,181,l),
(513,190,l),
(522,219,l),
(508,229,l),
(478,228,l),
(465,230,l),
(445,232,l),
(460,258,l),
(456,270,l),
(476,286,l),
(482,304,l),
(488,310,l),
(490,333,l),
(491,347,l),
(499,357,l),
(501,373,l),
(514,391,l),
(513,404,l),
(521,413,l),
(534,438,l),
(551,439,l),
(574,437,l),
(592,440,l),
(610,443,l),
(624,451,l),
(637,481,l),
(621,483,l),
(589,493,l),
(562,490,l),
(576,517,l),
(588,540,l),
(586,554,l),
(603,572,l),
(609,585,l),
(602,600,l),
(614,612,l),
(632,646,l),
(605,665,l),
(596,662,l),
(574,666,l),
(557,634,l),
(560,621,l),
(545,609,l),
(551,595,l),
(544,584,l),
(539,569,l),
(520,547,l),
(521,538,l),
(509,518,l),
(512,511,l),
(498,488,l),
(485,485,l),
(472,492,l),
(444,493,l),
(426,489,l),
(409,494,l),
(388,486,l),
(348,494,l),
(322,485,l),
(308,489,l),
(293,493,l),
(297,508,l),
(299,519,l),
(310,525,l),
(324,556,l),
(336,568,l),
(336,586,l),
(340,606,l),
(349,616,l),
(362,652,l),
(344,665,l),
(331,667,l),
(315,658,l),
(297,632,l),
(297,612,l),
(280,594,l),
(265,548,l),
(259,536,l),
(261,524,l),
(243,495,l),
(213,490,l),
(192,489,l),
(159,483,l),
(160,477,l),
(157,461,l),
(155,445,l),
(155,432,l),
(184,421,l),
(204,419,l),
(199,400,l),
(202,390,l),
(192,371,l),
(188,354,l),
(174,314,l),
(166,299,l),
(155,280,l),
(154,269,l),
(146,251,l),
(141,243,l),
(131,229,l),
(109,230,l),
(97,230,l),
(88,233,l),
(61,231,l),
(48,220,l),
(42,206,l),
(35,192,l),
(41,178,l),
(60,177,l),
(79,177,l),
(101,178,l),
(95,152,l),
(97,136,l),
(82,121,l),
(64,91,l),
(55,54,l),
(45,22,l),
(42,5,l),
(59,4,l),
(74,-1,l)
);
},
{
closed = 1;
nodes = (
(300,232,l),
(272,234,l),
(238,230,l),
(222,235,l),
(198,235,l),
(208,257,l),
(209,277,l),
(212,302,l),
(224,307,l),
(226,330,l),
(240,336,l),
(244,355,l),
(254,372,l),
(250,385,l),
(252,401,l),
(265,413,l),
(275,429,l),
(298,426,l),
(317,430,l),
(353,429,l),
(368,427,l),
(384,429,l),
(399,436,l),
(439,430,l),
(454,439,l),
(470,432,l),
(469,414,l),
(456,396,l),
(453,378,l),
(445,363,l),
(447,356,l),
(440,334,l),
(424,305,l),
(415,296,l),
(416,282,l),
(397,255,l),
(396,229,l),
(368,230,l),
(354,236,l),
(345,228,l)
);
}
);
width = 644;
}
);
metricLeft = "=period";
metricRight = "=period";
note = numbersign;
unicode = 35;
}
{
glyphname = dollar;
layers = (
{
hints = (
{
horizontal = 1;
place = (-10,77);
type = Stem;
},
{
horizontal = 1;
place = (538,142);
type = Stem;
},
{
place = (35,90);
type = Stem;
},
{
place = (183,50);
type = Stem;
},
{
place = (305,109);
type = Stem;
},
{
horizontal = 1;
place = (-85,152);
type = Stem;
}
);
layerId = m003;
name = Light;
shapes = (
{
closed = 1;
nodes = (
(122,-82,l),
(128,-85,l),
(140,-86,l),
(145,-86,l),
(157,-87,l),
(167,-81,l),
(175,-75,l),
(179,-65,l),
(182,-54,l),
(185,-47,l),
(186,-40,l),
(185,-29,l),
(185,-19,l),
(194,-5,l),
(191,3,l),
(189,8,l),
(183,14,l),
(174,21,l),
(162,19,l),
(149,22,l),
(142,15,l),
(135,7,l),
(128,2,l),
(119,-6,l),
(120,-16,l),
(122,-23,l),
(121,-30,l),
(118,-40,l),
(118,-46,l),
(114,-57,l),
(112,-65,l),
(108,-76,l),
(112,-78,l)
);
},
{
ref = S;
},
{
closed = 1;
nodes = (
(267,642,l),
(275,643,l),
(282,645,l),
(283,651,l),
(286,662,l),
(290,665,l),
(297,669,l),
(302,677,l),
(307,686,l),
(307,693,l),
(306,703,l),
(304,715,l),
(312,728,l),
(301,735,l),
(299,742,l),
(287,742,l),
(277,742,l),
(265,745,l),
(258,746,l),
(246,740,l),
(242,726,l),
(247,724,l),
(243,715,l),
(239,706,l),
(235,694,l),
(232,685,l),
(235,679,l),
(240,672,l),
(237,660,l),
(241,655,l),
(246,647,l),
(249,642,l),
(258,640,l)
);
}
);
width = 431;
},
{
hints = (
{
horizontal = 1;
place = (-10,77);
type = Stem;
},
{
horizontal = 1;
place = (538,142);
type = Stem;
},
{
place = (35,90);
type = Stem;
},
{
place = (183,50);
type = Stem;
},
{
place = (305,109);
type = Stem;
},
{
horizontal = 1;
place = (-85,152);
type = Stem;
}
);
layerId = m005;
name = Regular;
shapes = (
{
closed = 1;
nodes = (
(136,-97,l),
(144,-96,l),
(158,-94,l),
(164,-94,l),
(174,-93,l),
(181,-92,l),
(187,-79,l),
(191,-67,l),
(195,-57,l),
(197,-49,l),
(201,-34,l),
(198,-23,l),
(196,-16,l),
(198,-3,l),
(200,17,l),
(190,22,l),
(180,28,l),
(176,35,l),
(163,30,l),
(153,34,l),
(145,37,l),
(136,30,l),
(130,26,l),
(119,18,l),
(122,1,l),
(112,-11,l),
(105,-34,l),
(111,-50,l),
(106,-60,l),
(98,-78,l),
(104,-82,l),
(112,-89,l),
(118,-99,l)
);
},
{
ref = S;
},
{
closed = 1;
nodes = (
(240,629,l),
(250,631,l),
(260,632,l),
(272,633,l),
(276,628,l),
(284,638,l),
(293,650,l),
(296,659,l),
(299,666,l),
(305,677,l),
(315,687,l),
(317,695,l),
(319,704,l),
(320,725,l),
(320,736,l),
(320,740,l),
(307,747,l),
(299,751,l),
(285,752,l),
(277,754,l),
(271,756,l),
(265,752,l),
(258,749,l),
(246,744,l),
(244,733,l),
(242,724,l),
(237,708,l),
(235,701,l),
(232,690,l),
(224,678,l),
(231,657,l),
(224,646,l),
(229,628,l)
);
}
);
width = 456;
},
{
hints = (
{
horizontal = 1;
place = (-10,77);
type = Stem;
},
{
horizontal = 1;
place = (538,142);
type = Stem;
},
{
place = (35,90);
type = Stem;
},
{
place = (183,50);
type = Stem;
},
{
place = (305,109);
type = Stem;
},
{
horizontal = 1;
place = (-85,152);
type = Stem;
}
);
layerId = m002;
name = Black;
shapes = (
{
closed = 1;
nodes = (
(170,-143,l),
(194,-137,l),
(218,-114,l),
(237,-105,l),
(233,-91,l),
(242,-69,l),
(243,-27,l),
(256,-16,l),
(245,9,l),
(257,38,l),
(239,82,l),
(218,83,l),
(187,79,l),
(173,83,l),
(162,78,l),
(144,78,l),
(132,86,l),
(115,79,l),
(80,63,l),
(88,55,l),
(75,39,l),
(68,23,l),
(73,6,l),
(64,-10,l),
(58,-24,l),
(45,-69,l),
(57,-86,l),
(46,-102,l),
(69,-124,l),
(79,-139,l),
(94,-138,l),
(109,-148,l),
(121,-152,l)
);
},
{
ref = S;
},
{
closed = 1;
nodes = (
(225,587,l),
(255,580,l),
(265,586,l),
(292,583,l),
(296,585,l),
(322,580,l),
(344,613,l),
(344,624,l),
(358,660,l),
(359,674,l),
(354,680,l),
(368,698,l),
(377,731,l),
(372,740,l),
(375,756,l),
(343,794,l),
(332,802,l),
(295,806,l),
(292,803,l),
(257,803,l),
(239,795,l),
(219,792,l),
(205,760,l),
(191,746,l),
(194,731,l),
(182,709,l),
(176,685,l),
(181,671,l),
(179,644,l),
(163,593,l),
(178,585,l),
(194,587,l),
(210,578,l)
);
}
);
width = 492;
}
);
note = dollar;
unicode = 36;
userData = {
KernOnSpecialSpacing = {
L = symbols;
R = symbols;
};
};
}
{
glyphname = percent;
kernLeft = KO_percent;
layers = (
{
hints = (
{
horizontal = 1;
place = (-10,41);
type = Stem;
},
{
horizontal = 1;
place = (325,41);
type = Stem;
},
{
horizontal = 1;
place = (644,41);
type = Stem;
},
{
place = (3,110);
type = Stem;
},
{
place = (245,110);
type = Stem;
},
{
place = (420,98);
type = Stem;
},
{
place = (650,98);
type = Stem;
},
{
horizontal = 1;
place = (0,21);
target = up;
type = BottomGhost;
},
{
horizontal = 1;
place = (309,41);
type = Stem;
}
);
layerId = m005;
shapes = (
{
closed = 1;
nodes = (
(128,-34,l),
(153,-42,l),
(163,-34,l),
(177,-32,l),
(201,-9,l),
(212,7,l),
(227,17,l),
(222,31,l),
(240,49,l),
(249,63,l),
(254,71,l),
(273,83,l),
(270,97,l),
(288,116,l),
(291,128,l),
(297,136,l),
(309,152,l),
(317,165,l),
(337,181,l),
(344,190,l),
(354,209,l),
(368,216,l),
(371,231,l),
(386,244,l),
(391,253,l),
(407,268,l),
(410,279,l),
(414,294,l),
(435,311,l),
(439,327,l),
(455,333,l),
(464,343,l),
(475,365,l),
(473,370,l),
(495,386,l),
(493,400,l),
(507,411,l),
(518,426,l),
(528,438,l),
(534,450,l),
(556,464,l),
(554,472,l),
(568,488,l),
(588,505,l),
(594,515,l),
(601,525,l),
(611,538,l),
(629,553,l),
(628,570,l),
(635,574,l),
(654,590,l),
(666,600,l),
(679,620,l),
(686,647,l),
(687,663,l),
(695,671,l),
(680,680,l),
(669,694,l),
(646,696,l),
(644,690,l),
(622,686,l),
(600,655,l),
(597,643,l),
(583,631,l),
(577,620,l),
(562,602,l),
(548,592,l),
(538,576,l),
(532,572,l),
(523,558,l),
(512,540,l),
(499,529,l),
(500,518,l),
(491,504,l),
(474,492,l),
(459,475,l),
(458,462,l),
(453,456,l),
(437,438,l),
(422,425,l),
(423,409,l),
(413,397,l),
(395,391,l),
(387,371,l),
(378,362,l),
(363,345,l),
(357,333,l),
(350,326,l),
(338,311,l),
(321,301,l),
(321,287,l),
(308,277,l),
(296,260,l),
(284,249,l),
(282,234,l),
(270,227,l),
(251,196,l),
(238,186,l),
(227,172,l),
(218,160,l),
(198,142,l),
(190,131,l),
(193,123,l),
(170,106,l),
(161,91,l),
(150,82,l),
(141,71,l),
(132,62,l),
(121,49,l),
(108,18,l),
(108,2,l),
(111,-11,l),
(106,-21,l),
(118,-36,l)
);
},
{
closed = 1;
nodes = (
(217,312,l),
(233,321,l),
(244,321,l),
(258,323,l),
(271,337,l),
(295,341,l),
(301,346,l),
(311,362,l),
(332,363,l),
(349,377,l),
(349,390,l),
(357,406,l),
(376,420,l),
(382,427,l),
(380,450,l),
(398,461,l),
(396,479,l),
(399,486,l),
(404,522,l),
(408,536,l),
(402,552,l),
(402,567,l),
(401,579,l),
(396,589,l),
(393,603,l),
(392,620,l),
(385,628,l),
(376,649,l),
(369,654,l),
(351,666,l),
(340,674,l),
(339,678,l),
(317,690,l),
(307,687,l),
(297,697,l),
(267,696,l),
(237,694,l),
(225,696,l),
(209,691,l),
(192,687,l),
(185,679,l),
(165,668,l),
(152,666,l),
(132,657,l),
(118,643,l),
(120,633,l),
(107,625,l),
(90,611,l),
(78,595,l),
(71,575,l),
(72,563,l),
(64,548,l),
(66,534,l),
(57,524,l),
(49,489,l),
(53,479,l),
(52,464,l),
(57,447,l),
(54,429,l),
(51,420,l),
(54,409,l),
(68,397,l),
(67,376,l),
(72,364,l),
(88,353,l),
(92,346,l),
(105,333,l),
(117,328,l),
(122,323,l),
(143,322,l),
(155,321,l),
(170,316,l),
(191,317,l)
);
},
{
closed = 1;
nodes = (
(195,378,l),
(180,385,l),
(168,394,l),
(170,405,l),
(157,419,l),
(164,434,l),
(151,448,l),
(164,457,l),
(160,473,l),
(156,488,l),
(165,516,l),
(175,534,l),
(170,553,l),
(181,570,l),
(187,582,l),
(190,592,l),
(200,614,l),
(202,623,l),
(219,629,l),
(239,633,l),
(265,629,l),
(288,613,l),
(291,605,l),
(289,588,l),
(299,578,l),
(294,565,l),
(300,545,l),
(297,533,l),
(300,517,l),
(295,493,l),
(294,473,l),
(278,456,l),
(274,446,l),
(275,431,l),
(272,415,l),
(266,403,l),
(245,389,l),
(236,386,l),
(217,377,l)
);
},
{
closed = 1;
nodes = (
(559,-19,l),
(574,-22,l),
(590,-20,l),
(604,-16,l),
(619,-7,l),
(638,1,l),
(671,14,l),
(683,23,l),
(690,39,l),
(701,46,l),
(716,64,l),
(718,74,l),
(726,90,l),
(729,105,l),
(727,116,l),
(735,132,l),
(733,145,l),
(747,176,l),
(753,192,l),
(752,214,l),
(746,229,l),
(742,236,l),
(741,249,l),
(746,270,l),
(739,281,l),
(737,294,l),
(720,305,l),
(717,318,l),
(712,325,l),
(690,333,l),
(676,347,l),
(675,349,l),
(661,350,l),
(641,356,l),
(621,362,l),
(594,356,l),
(577,358,l),
(558,353,l),
(549,346,l),
(539,346,l),
(523,338,l),
(508,325,l),
(492,315,l),
(485,311,l),
(474,292,l),
(462,281,l),
(457,272,l),
(448,253,l),
(442,240,l),
(437,232,l),
(432,210,l),
(427,198,l),
(415,187,l),
(421,153,l),
(414,137,l),
(413,126,l),
(411,107,l),
(417,92,l),
(424,83,l),
(414,62,l),
(423,51,l),
(426,40,l),
(436,24,l),
(450,20,l),
(464,7,l),
(469,3,l),
(474,-1,l),
(498,-12,l),
(508,-18,l),
(524,-14,l),
(540,-23,l)
);
},
{
closed = 1;
nodes = (
(542,47,l),
(533,50,l),
(529,55,l),
(517,69,l),
(520,86,l),
(513,101,l),
(510,107,l),
(516,121,l),
(517,138,l),
(514,156,l),
(513,180,l),
(517,202,l),
(519,218,l),
(527,232,l),
(535,249,l),
(538,257,l),
(557,272,l),
(566,281,l),
(566,287,l),
(583,296,l),
(619,299,l),
(628,291,l),
(639,277,l),
(641,262,l),
(652,249,l),
(643,236,l),
(657,223,l),
(643,206,l),
(649,190,l),
(650,174,l),
(640,143,l),
(631,126,l),
(634,110,l),
(635,101,l),
(625,81,l),
(612,68,l),
(601,58,l),
(592,47,l),
(573,45,l)
);
}
);
width = 786;
},
{
hints = (
{
horizontal = 1;
place = (-10,41);
type = Stem;
},
{
horizontal = 1;
place = (325,41);
type = Stem;
},
{
horizontal = 1;
place = (644,41);
type = Stem;
},
{
place = (3,110);
type = Stem;
},
{
place = (245,110);
type = Stem;
},
{
place = (420,98);
type = Stem;
},
{
place = (650,98);
type = Stem;
},
{
horizontal = 1;
place = (0,21);
target = up;
type = BottomGhost;
},
{
horizontal = 1;
place = (309,41);
type = Stem;
}
);
layerId = m002;
shapes = (
{
closed = 1;
nodes = (
(151,-55,l),
(158,-61,l),
(177,-61,l),
(195,-65,l),
(201,-59,l),
(228,-49,l),
(240,-41,l),
(254,-21,l),
(263,-8,l),
(277,8,l),
(284,20,l),
(293,34,l),
(308,45,l),
(314,65,l),
(325,78,l),
(328,92,l),
(343,97,l),
(350,110,l),
(359,131,l),
(372,143,l),
(378,157,l),
(387,169,l),
(392,184,l),
(401,193,l),
(415,207,l),
(424,223,l),
(439,231,l),
(450,244,l),
(459,262,l),
(464,273,l),
(475,285,l),
(489,297,l),
(489,309,l),
(510,325,l),
(522,333,l),
(531,343,l),
(529,358,l),
(538,377,l),
(547,383,l),
(558,399,l),
(579,421,l),
(589,441,l),
(599,452,l),
(614,460,l),
(618,477,l),
(635,488,l),
(638,501,l),
(650,517,l),
(659,527,l),
(682,542,l),
(684,553,l),
(693,568,l),
(702,576,l),
(722,586,l),
(722,599,l),
(739,625,l),
(755,638,l),
(753,660,l),
(759,665,l),
(756,682,l),
(738,690,l),
(729,698,l),
(715,706,l),
(709,710,l),
(692,715,l),
(675,714,l),
(667,715,l),
(652,705,l),
(635,694,l),
(613,669,l),
(613,660,l),
(601,649,l),
(589,627,l),
(572,621,l),
(577,606,l),
(553,592,l),
(557,581,l),
(534,571,l),
(527,556,l),
(516,541,l),
(516,533,l),
(500,516,l),
(490,504,l),
(478,490,l),
(466,482,l),
(458,469,l),
(448,454,l),
(449,441,l),
(427,424,l),
(424,412,l),
(418,397,l),
(409,391,l),
(392,375,l),
(387,364,l),
(368,352,l),
(367,338,l),
(351,326,l),
(350,314,l),
(335,295,l),
(321,286,l),
(314,271,l),
(305,266,l),
(297,248,l),
(275,237,l),
(273,222,l),
(266,214,l),
(251,202,l),
(245,184,l),
(231,173,l),
(214,162,l),
(205,145,l),
(194,130,l),
(191,120,l),
(176,105,l),
(167,94,l),
(160,84,l),
(145,67,l),
(144,64,l),
(115,29,l),
(109,17,l),
(110,3,l),
(114,-15,l),
(119,-31,l),
(138,-48,l)
);
},
{
closed = 1;
nodes = (
(219,287,l),
(237,298,l),
(251,293,l),
(266,296,l),
(283,305,l),
(287,316,l),
(302,318,l),
(338,339,l),
(344,342,l),
(358,354,l),
(375,371,l),
(377,378,l),
(391,389,l),
(400,409,l),
(410,423,l),
(409,433,l),
(419,445,l),
(428,456,l),
(430,473,l),
(436,493,l),
(436,522,l),
(444,534,l),
(441,544,l),
(432,568,l),
(441,580,l),
(432,591,l),
(432,610,l),
(420,623,l),
(420,630,l),
(418,644,l),
(401,661,l),
(401,665,l),
(383,674,l),
(377,689,l),
(360,691,l),
(353,702,l),
(335,704,l),
(324,708,l),
(307,715,l),
(303,720,l),
(287,721,l),
(256,724,l),
(230,722,l),
(227,719,l),
(211,714,l),
(188,706,l),
(181,705,l),
(155,690,l),
(149,683,l),
(131,676,l),
(127,668,l),
(102,654,l),
(100,644,l),
(89,631,l),
(80,622,l),
(73,602,l),
(62,589,l),
(50,573,l),
(48,561,l),
(37,549,l),
(41,537,l),
(29,521,l),
(29,493,l),
(35,475,l),
(34,462,l),
(28,445,l),
(28,425,l),
(34,418,l),
(34,400,l),
(44,387,l),
(45,371,l),
(54,363,l),
(57,345,l),
(68,342,l),
(73,330,l),
(96,318,l),
(98,312,l),
(109,308,l),
(130,294,l),
(135,296,l),
(158,292,l),
(178,293,l),
(182,285,l)
);
},
{
closed = 1;
nodes = (
(194,405,l),
(200,417,l),
(187,433,l),
(190,440,l),
(184,459,l),
(183,479,l),
(186,490,l),
(197,525,l),
(205,538,l),
(206,554,l),
(205,569,l),
(214,585,l),
(221,600,l),
(234,607,l),
(261,600,l),
(275,589,l),
(271,578,l),
(279,570,l),
(272,552,l),
(275,535,l),
(269,515,l),
(268,490,l),
(268,472,l),
(272,459,l),
(260,438,l),
(251,428,l),
(243,414,l),
(222,405,l)
);
},
{
closed = 1;
nodes = (
(632,-47,l),
(648,-41,l),
(652,-37,l),
(666,-41,l),
(695,-32,l),
(699,-29,l),
(721,-25,l),
(741,-11,l),
(743,-4,l),
(764,2,l),
(763,14,l),
(774,28,l),
(790,42,l),
(802,63,l),
(799,69,l),
(807,88,l),
(818,107,l),
(816,114,l),
(828,133,l),
(832,146,l),
(842,180,l),
(837,189,l),
(840,211,l),
(832,224,l),
(838,236,l),
(829,255,l),
(840,270,l),
(828,283,l),
(818,289,l),
(819,302,l),
(820,317,l),
(810,326,l),
(803,338,l),
(792,348,l),
(781,362,l),
(767,364,l),
(745,371,l),
(735,377,l),
(719,377,l),
(703,385,l),
(694,388,l),
(671,388,l),
(642,383,l),
(635,383,l),
(619,378,l),
(595,369,l),
(588,366,l),
(577,357,l),
(562,350,l),
(545,340,l),
(541,327,l),
(516,313,l),
(518,304,l),
(498,290,l),
(497,274,l),
(484,262,l),
(473,242,l),
(479,226,l),
(474,219,l),
(466,205,l),
(451,180,l),
(461,158,l),
(459,136,l),
(451,128,l),
(456,112,l),
(458,91,l),
(460,78,l),
(451,70,l),
(465,56,l),
(468,38,l),
(475,25,l),
(482,18,l),
(491,10,l),
(496,-2,l),
(501,-9,l),
(510,-21,l),
(535,-31,l),
(544,-29,l),
(554,-41,l),
(575,-42,l),
(587,-48,l),
(600,-46,l)
);
},
{
closed = 1;
nodes = (
(611,66,l),
(611,80,l),
(605,98,l),
(600,108,l),
(601,127,l),
(598,143,l),
(599,151,l),
(606,187,l),
(614,201,l),
(615,214,l),
(619,236,l),
(626,244,l),
(640,261,l),
(647,266,l),
(679,265,l),
(679,252,l),
(691,244,l),
(690,228,l),
(686,211,l),
(687,192,l),
(690,178,l),
(676,147,l),
(682,137,l),
(681,118,l),
(677,102,l),
(668,84,l),
(660,71,l)
);
}
);
width = 853;
},
{
hints = (
{
horizontal = 1;
place = (-10,41);
type = Stem;
},
{
horizontal = 1;
place = (325,41);
type = Stem;
},
{
horizontal = 1;
place = (644,41);
type = Stem;
},
{
place = (3,110);
type = Stem;
},
{
place = (245,110);
type = Stem;
},
{
place = (420,98);
type = Stem;
},
{
place = (650,98);
type = Stem;
},
{
horizontal = 1;
place = (0,21);
target = up;
type = BottomGhost;
},
{
horizontal = 1;
place = (309,41);
type = Stem;
}
);
layerId = m003;
shapes = (
{
closed = 1;
nodes = (
(146,-27,l),
(157,-32,l),
(176,-24,l),
(196,-6,l),
(206,12,l),
(221,21,l),
(228,35,l),
(233,48,l),
(238,64,l),
(252,80,l),
(266,93,l),
(279,109,l),
(278,122,l),
(287,134,l),
(306,149,l),
(307,157,l),
(323,173,l),
(329,187,l),
(343,194,l),
(355,212,l),
(353,222,l),
(362,235,l),
(381,250,l),
(387,266,l),
(394,279,l),
(411,288,l),
(415,305,l),
(434,319,l),
(436,332,l),
(452,340,l),
(456,356,l),
(465,370,l),
(476,381,l),
(486,395,l),
(500,408,l),
(506,421,l),
(520,428,l),
(531,447,l),
(544,458,l),
(544,472,l),
(569,493,l),
(573,503,l),
(593,515,l),
(599,530,l),
(614,542,l),
(619,558,l),
(633,575,l),
(641,588,l),
(651,597,l),
(658,610,l),
(670,617,l),
(681,651,l),
(686,659,l),
(669,680,l),
(665,681,l),
(648,681,l),
(633,672,l),
(621,652,l),
(604,643,l),
(597,629,l),
(580,611,l),
(578,601,l),
(566,585,l),
(554,574,l),
(547,562,l),
(541,548,l),
(520,535,l),
(511,525,l),
(505,516,l),
(493,502,l),
(490,485,l),
(476,475,l),
(472,458,l),
(463,450,l),
(451,433,l),
(437,422,l),
(420,408,l),
(411,391,l),
(406,388,l),
(394,371,l),
(380,359,l),
(378,343,l),
(366,329,l),
(362,323,l),
(342,298,l),
(333,278,l),
(304,258,l),
(297,247,l),
(288,235,l),
(276,222,l),
(267,201,l),
(249,188,l),
(249,179,l),
(240,169,l),
(231,155,l),
(218,142,l),
(209,125,l),
(195,121,l),
(189,101,l),
(181,94,l),
(169,77,l),
(162,63,l),
(150,49,l),
(136,41,l),
(124,17,l),
(114,2,l),
(125,-14,l),
(124,-20,l)
);
},
{
closed = 1;
nodes = (
(211,326,l),
(232,328,l),
(248,334,l),
(265,342,l),
(287,346,l),
(296,348,l),
(308,361,l),
(320,370,l),
(327,377,l),
(338,391,l),
(351,401,l),
(369,419,l),
(371,433,l),
(378,449,l),
(383,458,l),
(392,474,l),
(390,489,l),
(394,523,l),
(400,532,l),
(395,548,l),
(403,568,l),
(398,577,l),
(389,597,l),
(393,610,l),
(377,616,l),
(371,634,l),
(363,643,l),
(354,654,l),
(352,665,l),
(336,671,l),
(318,675,l),
(310,675,l),
(285,682,l),
(269,683,l),
(251,679,l),
(221,680,l),
(220,683,l),
(196,675,l),
(189,670,l),
(172,660,l),
(151,656,l),
(139,641,l),
(133,632,l),
(120,624,l),
(111,609,l),
(95,596,l),
(90,576,l),
(86,564,l),
(78,547,l),
(78,539,l),
(73,516,l),
(58,487,l),
(68,475,l),
(66,455,l),
(71,445,l),
(68,429,l),
(74,415,l),
(70,398,l),
(82,384,l),
(81,376,l),
(90,360,l),
(112,349,l),
(122,346,l),
(133,334,l),
(139,335,l),
(154,325,l),
(175,323,l),
(188,321,l)
);
},
{
closed = 1;
nodes = (
(195,367,l),
(176,371,l),
(167,375,l),
(165,393,l),
(153,399,l),
(154,420,l),
(148,431,l),
(145,443,l),
(155,458,l),
(153,471,l),
(147,485,l),
(165,517,l),
(159,537,l),
(160,548,l),
(172,571,l),
(166,579,l),
(172,593,l),
(182,606,l),
(199,619,l),
(210,630,l),
(224,638,l),
(240,646,l),
(260,638,l),
(275,641,l),
(285,630,l),
(298,621,l),
(312,605,l),
(308,596,l),
(305,576,l),
(311,560,l),
(311,552,l),
(307,532,l),
(308,518,l),
(306,491,l),
(304,473,l),
(305,464,l),
(290,443,l),
(286,434,l),
(281,414,l),
(272,402,l),
(271,393,l),
(249,385,l),
(240,372,l),
(228,370,l)
);
},
{
closed = 1;
nodes = (
(572,-13,l),
(591,-9,l),
(600,-9,l),
(620,-6,l),
(635,-1,l),
(651,6,l),
(660,21,l),
(673,26,l),
(686,37,l),
(691,46,l),
(697,59,l),
(706,77,l),
(709,85,l),
(721,105,l),
(726,120,l),
(725,134,l),
(726,144,l),
(745,175,l),
(746,198,l),
(737,207,l),
(741,225,l),
(733,235,l),
(737,258,l),
(728,264,l),
(736,280,l),
(719,294,l),
(720,302,l),
(710,321,l),
(693,330,l),
(683,338,l),
(659,347,l),
(648,348,l),
(629,345,l),
(601,349,l),
(579,350,l),
(562,348,l),
(556,340,l),
(538,337,l),
(518,327,l),
(516,315,l),
(497,302,l),
(482,294,l),
(476,280,l),
(465,273,l),
(458,252,l),
(455,246,l),
(446,225,l),
(442,217,l),
(428,196,l),
(438,180,l),
(427,155,l),
(419,137,l),
(423,122,l),
(432,108,l),
(423,97,l),
(437,82,l),
(431,70,l),
(442,50,l),
(444,42,l),
(451,27,l),
(467,20,l),
(471,11,l),
(491,5,l),
(494,-1,l),
(506,-2,l),
(520,-4,l),
(548,-7,l)
);
},
{
closed = 1;
nodes = (
(547,27,l),
(532,36,l),
(530,44,l),
(514,55,l),
(502,65,l),
(511,77,l),
(499,94,l),
(496,111,l),
(503,122,l),
(503,143,l),
(503,158,l),
(503,182,l),
(515,198,l),
(510,211,l),
(523,231,l),
(528,244,l),
(530,263,l),
(547,270,l),
(549,284,l),
(562,294,l),
(581,303,l),
(598,305,l),
(619,304,l),
(634,305,l),
(638,296,l),
(653,281,l),
(658,267,l),
(665,252,l),
(657,234,l),
(664,219,l),
(667,206,l),
(656,194,l),
(665,181,l),
(653,148,l),
(653,135,l),
(644,110,l),
(641,99,l),
(631,85,l),
(622,65,l),
(611,55,l),
(604,44,l),
(586,32,l),
(581,36,l)
);
}
);
width = 777;
},
{
hints = (
{
horizontal = 1;
place = (-10,41);
type = Stem;
},
{
horizontal = 1;
place = (325,41);
type = Stem;
},
{
horizontal = 1;
place = (644,41);
type = Stem;
},
{
place = (3,110);
type = Stem;
},
{
place = (245,110);
type = Stem;
},
{
place = (420,98);
type = Stem;
},
{
place = (650,98);
type = Stem;
},
{
horizontal = 1;
place = (0,21);
target = up;
type = BottomGhost;
},
{
horizontal = 1;
place = (309,41);
type = Stem;
}
);
layerId = "27802CB9-B49D-4E25-883A-F5F5DC48409B";
shapes = (
{
closed = 1;
nodes = (
(134,-45,l),
(152,-49,l),
(158,-46,l),
(173,-39,l),
(198,-30,l),
(215,-11,l),
(223,6,l),
(226,16,l),
(243,35,l),
(245,45,l),
(259,55,l),
(264,73,l),
(276,83,l),
(283,100,l),
(299,108,l),
(312,125,l),
(311,138,l),
(330,153,l),
(332,166,l),
(347,173,l),
(353,185,l),
(361,201,l),
(377,221,l),
(376,229,l),
(388,243,l),
(398,251,l),
(416,271,l),
(429,282,l),
(427,296,l),
(445,307,l),
(452,315,l),
(455,331,l),
(466,349,l),
(474,359,l),
(492,372,l),
(500,384,l),
(511,396,l),
(522,407,l),
(527,421,l),
(540,434,l),
(549,450,l),
(556,463,l),
(571,474,l),
(583,483,l),
(593,496,l),
(600,510,l),
(617,528,l),
(629,540,l),
(627,547,l),
(645,565,l),
(653,572,l),
(658,590,l),
(677,600,l),
(678,611,l),
(698,641,l),
(704,657,l),
(709,664,l),
(698,676,l),
(687,686,l),
(673,695,l),
(656,693,l),
(648,696,l),
(623,681,l),
(611,657,l),
(595,644,l),
(592,630,l),
(584,619,l),
(568,605,l),
(561,600,l),
(553,585,l),
(536,569,l),
(526,554,l),
(519,544,l),
(514,536,l),
(504,517,l),
(486,505,l),
(478,495,l),
(464,483,l),
(459,463,l),
(445,451,l),
(444,446,l),
(428,431,l),
(414,412,l),
(418,405,l),
(402,392,l),
(393,380,l),
(377,361,l),
(372,356,l),
(358,343,l),
(350,327,l),
(347,314,l),
(326,304,l),
(323,285,l),
(315,281,l),
(293,265,l),
(273,236,l),
(263,227,l),
(256,210,l),
(247,200,l),
(242,192,l),
(231,170,l),
(217,158,l),
(210,150,l),
(199,139,l),
(187,128,l),
(184,116,l),
(172,98,l),
(161,83,l),
(141,69,l),
(136,61,l),
(128,48,l),
(108,24,l),
(104,4,l),
(104,-8,l),
(117,-21,l),
(116,-31,l)
);
},
{
closed = 1;
nodes = (
(211,316,l),
(233,317,l),
(247,319,l),
(264,323,l),
(269,331,l),
(287,332,l),
(301,340,l),
(310,346,l),
(323,359,l),
(347,369,l),
(355,384,l),
(367,390,l),
(375,403,l),
(381,414,l),
(388,435,l),
(387,445,l),
(393,458,l),
(410,474,l),
(406,494,l),
(407,522,l),
(408,536,l),
(407,552,l),
(418,565,l),
(407,574,l),
(409,595,l),
(402,605,l),
(399,622,l),
(386,626,l),
(391,646,l),
(372,653,l),
(372,663,l),
(364,673,l),
(349,678,l),
(334,689,l),
(325,687,l),
(302,695,l),
(292,699,l),
(282,695,l),
(252,700,l),
(226,701,l),
(221,699,l),
(199,688,l),
(182,690,l),
(169,676,l),
(161,673,l),
(134,656,l),
(119,647,l),
(110,627,l),
(97,620,l),
(83,604,l),
(73,588,l),
(76,581,l),
(68,564,l),
(57,553,l),
(58,539,l),
(58,521,l),
(47,494,l),
(41,475,l),
(41,461,l),
(45,440,l),
(49,430,l),
(48,417,l),
(57,399,l),
(62,386,l),
(66,374,l),
(80,361,l),
(76,355,l),
(84,340,l),
(108,336,l),
(113,330,l),
(125,317,l),
(140,319,l),
(153,314,l),
(171,311,l),
(185,311,l)
);
},
{
closed = 1;
nodes = (
(196,385,l),
(177,391,l),
(176,402,l),
(172,414,l),
(163,433,l),
(172,445,l),
(168,459,l),
(171,471,l),
(169,493,l),
(173,516,l),
(176,537,l),
(184,552,l),
(185,566,l),
(182,576,l),
(197,597,l),
(196,601,l),
(215,616,l),
(223,623,l),
(229,624,l),
(265,623,l),
(275,623,l),
(279,606,l),
(284,593,l),
(292,581,l),
(299,569,l),
(291,547,l),
(294,534,l),
(286,521,l),
(293,488,l),
(285,472,l),
(273,453,l),
(275,440,l),
(266,430,l),
(266,416,l),
(249,402,l),
(236,387,l),
(225,388,l)
);
},
{
closed = 1;
nodes = (
(576,-25,l),
(594,-25,l),
(605,-20,l),
(621,-22,l),
(643,-17,l),
(655,-2,l),
(671,4,l),
(682,12,l),
(701,16,l),
(713,30,l),
(714,45,l),
(724,57,l),
(734,70,l),
(741,88,l),
(753,107,l),
(755,113,l),
(755,137,l),
(766,152,l),
(764,183,l),
(772,195,l),
(765,210,l),
(761,227,l),
(759,237,l),
(769,256,l),
(757,266,l),
(752,275,l),
(756,294,l),
(740,306,l),
(735,320,l),
(723,326,l),
(727,339,l),
(712,344,l),
(697,348,l),
(689,359,l),
(673,360,l),
(647,360,l),
(635,363,l),
(610,368,l),
(596,367,l),
(582,359,l),
(563,356,l),
(548,351,l),
(533,340,l),
(519,330,l),
(508,325,l),
(491,308,l),
(489,300,l),
(469,290,l),
(466,270,l),
(461,257,l),
(454,244,l),
(436,229,l),
(438,219,l),
(438,204,l),
(425,186,l),
(425,156,l),
(421,136,l),
(426,125,l),
(420,106,l),
(424,87,l),
(419,74,l),
(424,60,l),
(432,46,l),
(439,40,l),
(454,21,l),
(449,13,l),
(470,7,l),
(477,-1,l),
(485,-14,l),
(498,-11,l),
(523,-24,l),
(526,-26,l),
(540,-26,l)
);
},
{
closed = 1;
nodes = (
(557,46,l),
(549,59,l),
(533,61,l),
(530,80,l),
(526,96,l),
(524,108,l),
(525,123,l),
(534,143,l),
(532,152,l),
(542,186,l),
(544,203,l),
(541,219,l),
(542,236,l),
(553,244,l),
(561,265,l),
(574,279,l),
(590,286,l),
(592,293,l),
(630,289,l),
(636,281,l),
(648,274,l),
(652,260,l),
(653,247,l),
(652,239,l),
(653,216,l),
(659,210,l),
(659,194,l),
(650,176,l),
(655,152,l),
(642,135,l),
(648,117,l),
(635,106,l),
(627,91,l),
(624,78,l),
(608,60,l),
(598,54,l),
(593,43,l)
);
}
);
width = 801;
},
{
hints = (
{
horizontal = 1;
place = (-10,41);
type = Stem;
},
{
horizontal = 1;
place = (325,41);
type = Stem;
},
{
horizontal = 1;
place = (644,41);
type = Stem;
},
{
place = (3,110);
type = Stem;
},
{
place = (245,110);
type = Stem;
},
{
place = (420,98);
type = Stem;
},
{
place = (650,98);
type = Stem;
},
{
horizontal = 1;
place = (0,21);
target = up;
type = BottomGhost;
},
{
horizontal = 1;
place = (309,41);
type = Stem;
}
);
layerId = "9BFA4F56-4850-48F5-A038-9DAB9408749E";
shapes = (
{
closed = 1;
nodes = (
(133,-49,l),
(153,-50,l),
(162,-52,l),
(178,-51,l),
(191,-45,l),
(211,-39,l),
(230,-10,l),
(231,6,l),
(251,17,l),
(257,31,l),
(271,44,l),
(270,53,l),
(282,67,l),
(296,84,l),
(296,93,l),
(314,109,l),
(328,126,l),
(334,137,l),
(339,144,l),
(346,158,l),
(361,179,l),
(374,190,l),
(385,200,l),
(381,215,l),
(391,227,l),
(408,242,l),
(411,249,l),
(431,261,l),
(439,281,l),
(450,293,l),
(462,305,l),
(465,318,l),
(478,331,l),
(492,346,l),
(490,355,l),
(497,367,l),
(513,382,l),
(529,391,l),
(540,411,l),
(537,418,l),
(548,432,l),
(571,450,l),
(568,455,l),
(583,466,l),
(601,487,l),
(611,501,l),
(611,508,l),
(627,517,l),
(637,538,l),
(648,549,l),
(654,565,l),
(660,577,l),
(675,584,l),
(684,602,l),
(691,606,l),
(711,642,l),
(714,655,l),
(712,666,l),
(708,678,l),
(706,696,l),
(692,697,l),
(682,703,l),
(661,701,l),
(644,699,l),
(635,690,l),
(610,668,l),
(609,652,l),
(599,638,l),
(585,620,l),
(575,611,l),
(565,602,l),
(556,582,l),
(547,573,l),
(536,561,l),
(519,551,l),
(522,539,l),
(502,522,l),
(490,505,l),
(483,497,l),
(477,481,l),
(461,470,l),
(449,455,l),
(438,442,l),
(441,429,l),
(428,417,l),
(415,409,l),
(400,391,l),
(392,385,l),
(380,366,l),
(377,355,l),
(365,346,l),
(354,329,l),
(350,315,l),
(339,302,l),
(325,294,l),
(314,280,l),
(300,271,l),
(297,252,l),
(292,244,l),
(277,230,l),
(265,213,l),
(249,201,l),
(250,190,l),
(237,173,l),
(229,164,l),
(216,156,l),
(200,137,l),
(197,129,l),
(184,119,l),
(183,104,l),
(166,91,l),
(151,80,l),
(147,59,l),
(128,47,l),
(112,27,l),
(111,15,l),
(110,-4,l),
(113,-20,l),
(119,-31,l),
(130,-39,l)
);
},
{
closed = 1;
nodes = (
(225,303,l),
(232,307,l),
(257,317,l),
(264,313,l),
(283,318,l),
(302,333,l),
(304,332,l),
(328,345,l),
(339,351,l),
(344,361,l),
(360,376,l),
(368,391,l),
(382,402,l),
(384,419,l),
(397,429,l),
(409,441,l),
(414,455,l),
(405,470,l),
(421,492,l),
(415,517,l),
(427,531,l),
(426,551,l),
(420,561,l),
(416,579,l),
(422,596,l),
(411,603,l),
(403,623,l),
(405,631,l),
(389,649,l),
(383,654,l),
(380,668,l),
(368,679,l),
(347,686,l),
(341,695,l),
(328,692,l),
(317,698,l),
(298,705,l),
(280,708,l),
(245,703,l),
(235,699,l),
(219,695,l),
(210,699,l),
(183,689,l),
(172,679,l),
(152,674,l),
(138,667,l),
(127,656,l),
(116,649,l),
(108,632,l),
(94,624,l),
(81,605,l),
(74,590,l),
(69,580,l),
(62,569,l),
(63,548,l),
(48,537,l),
(49,522,l),
(39,488,l),
(40,479,l),
(51,460,l),
(45,449,l),
(43,429,l),
(54,417,l),
(52,405,l),
(63,387,l),
(56,379,l),
(76,371,l),
(72,352,l),
(93,349,l),
(90,337,l),
(103,327,l),
(111,324,l),
(132,310,l),
(147,311,l),
(153,311,l),
(166,304,l),
(182,301,l)
);
},
{
closed = 1;
nodes = (
(193,383,l),
(194,397,l),
(177,407,l),
(178,417,l),
(171,430,l),
(172,444,l),
(169,464,l),
(182,480,l),
(169,493,l),
(179,518,l),
(188,531,l),
(187,550,l),
(186,569,l),
(198,586,l),
(195,594,l),
(212,610,l),
(223,613,l),
(230,620,l),
(260,623,l),
(275,610,l),
(288,608,l),
(289,594,l),
(288,581,l),
(294,563,l),
(301,549,l),
(288,536,l),
(296,518,l),
(292,490,l),
(282,478,l),
(282,455,l),
(270,448,l),
(275,432,l),
(263,417,l),
(248,404,l),
(240,397,l),
(227,386,l)
);
},
{
closed = 1;
nodes = (
(591,-31,l),
(611,-29,l),
(618,-22,l),
(634,-24,l),
(652,-23,l),
(666,-15,l),
(690,-5,l),
(693,3,l),
(702,13,l),
(722,26,l),
(734,38,l),
(742,45,l),
(752,60,l),
(752,76,l),
(761,92,l),
(763,107,l),
(772,117,l),
(780,137,l),
(786,151,l),
(790,175,l),
(787,197,l),
(780,210,l),
(790,225,l),
(782,237,l),
(778,251,l),
(785,271,l),
(771,284,l),
(769,297,l),
(766,304,l),
(755,321,l),
(743,331,l),
(738,337,l),
(728,344,l),
(713,355,l),
(700,360,l),
(689,368,l),
(677,365,l),
(649,366,l),
(625,372,l),
(607,366,l),
(595,366,l),
(575,359,l),
(568,352,l),
(555,350,l),
(544,339,l),
(526,328,l),
(518,324,l),
(502,305,l),
(488,296,l),
(487,288,l),
(476,270,l),
(461,259,l),
(460,244,l),
(447,233,l),
(444,213,l),
(447,201,l),
(442,183,l),
(437,155,l),
(436,136,l),
(424,119,l),
(436,104,l),
(434,98,l),
(428,82,l),
(438,62,l),
(449,48,l),
(441,40,l),
(450,23,l),
(460,18,l),
(472,5,l),
(478,-6,l),
(498,-15,l),
(501,-12,l),
(518,-24,l),
(538,-27,l),
(541,-32,l),
(557,-30,l)
);
},
{
closed = 1;
nodes = (
(573,56,l),
(571,59,l),
(558,72,l),
(545,80,l),
(551,99,l),
(551,112,l),
(545,123,l),
(557,142,l),
(554,151,l),
(561,183,l),
(561,204,l),
(559,211,l),
(568,226,l),
(582,249,l),
(586,255,l),
(594,272,l),
(597,284,l),
(620,291,l),
(648,288,l),
(654,278,l),
(658,263,l),
(665,253,l),
(667,239,l),
(663,221,l),
(671,212,l),
(667,190,l),
(669,176,l),
(668,147,l),
(656,135,l),
(655,117,l),
(647,102,l),
(643,83,l),
(628,74,l),
(613,61,l),
(611,56,l)
);
}
);
width = 817;
},
{
hints = (
{
horizontal = 1;
place = (-10,41);
type = Stem;
},
{
horizontal = 1;
place = (325,41);
type = Stem;
},
{
horizontal = 1;
place = (644,41);
type = Stem;
},
{
place = (3,110);
type = Stem;
},
{
place = (245,110);
type = Stem;
},
{
place = (420,98);
type = Stem;
},
{
place = (650,98);
type = Stem;
},
{
horizontal = 1;
place = (0,21);
target = up;
type = BottomGhost;
},
{
horizontal = 1;
place = (309,41);
type = Stem;
}
);
layerId = "B734896E-9115-4752-AF37-164D25EC5193";
shapes = (
{
closed = 1;
nodes = (
(134,-51,l),
(152,-60,l),
(173,-56,l),
(179,-58,l),
(202,-47,l),
(213,-34,l),
(227,-12,l),
(242,-3,l),
(253,14,l),
(267,31,l),
(275,43,l),
(283,56,l),
(289,64,l),
(306,78,l),
(302,93,l),
(312,111,l),
(328,121,l),
(343,130,l),
(345,142,l),
(358,161,l),
(364,173,l),
(374,184,l),
(391,195,l),
(398,207,l),
(403,228,l),
(409,238,l),
(420,253,l),
(438,258,l),
(449,278,l),
(460,293,l),
(466,304,l),
(474,317,l),
(489,330,l),
(498,343,l),
(496,354,l),
(505,369,l),
(528,377,l),
(537,396,l),
(536,401,l),
(550,419,l),
(566,430,l),
(574,447,l),
(589,458,l),
(587,472,l),
(607,484,l),
(607,491,l),
(615,508,l),
(626,514,l),
(645,530,l),
(649,547,l),
(661,556,l),
(666,569,l),
(683,578,l),
(696,597,l),
(702,611,l),
(717,631,l),
(728,649,l),
(732,665,l),
(731,675,l),
(715,685,l),
(714,697,l),
(696,699,l),
(683,711,l),
(665,702,l),
(641,698,l),
(640,693,l),
(612,667,l),
(603,654,l),
(597,644,l),
(588,629,l),
(578,616,l),
(568,599,l),
(552,592,l),
(548,573,l),
(535,558,l),
(520,545,l),
(522,538,l),
(506,525,l),
(500,513,l),
(490,496,l),
(474,488,l),
(459,468,l),
(456,461,l),
(451,444,l),
(442,432,l),
(424,420,l),
(417,408,l),
(399,396,l),
(398,386,l),
(388,373,l),
(374,360,l),
(373,342,l),
(363,332,l),
(350,318,l),
(336,308,l),
(320,295,l),
(318,277,l),
(310,273,l),
(294,255,l),
(278,240,l),
(279,230,l),
(273,220,l),
(256,202,l),
(250,190,l),
(238,177,l),
(228,166,l),
(209,160,l),
(202,142,l),
(187,125,l),
(181,120,l),
(176,107,l),
(170,91,l),
(156,84,l),
(151,64,l),
(135,55,l),
(110,32,l),
(106,8,l),
(108,-3,l),
(117,-15,l),
(122,-34,l),
(126,-39,l)
);
},
{
closed = 1;
nodes = (
(208,296,l),
(230,301,l),
(250,307,l),
(259,311,l),
(276,314,l),
(287,325,l),
(304,328,l),
(322,334,l),
(330,343,l),
(340,354,l),
(354,370,l),
(372,384,l),
(379,394,l),
(382,405,l),
(395,414,l),
(391,428,l),
(406,447,l),
(406,458,l),
(410,478,l),
(416,491,l),
(429,519,l),
(430,530,l),
(429,546,l),
(421,564,l),
(429,576,l),
(425,594,l),
(415,604,l),
(406,622,l),
(413,633,l),
(395,641,l),
(391,651,l),
(381,664,l),
(376,677,l),
(358,686,l),
(342,691,l),
(341,701,l),
(326,706,l),
(312,709,l),
(293,710,l),
(277,710,l),
(241,710,l),
(227,706,l),
(222,700,l),
(198,704,l),
(188,701,l),
(172,695,l),
(161,685,l),
(140,677,l),
(131,661,l),
(123,651,l),
(110,641,l),
(97,633,l),
(85,618,l),
(77,603,l),
(66,589,l),
(66,579,l),
(57,563,l),
(55,549,l),
(46,534,l),
(45,520,l),
(45,492,l),
(31,476,l),
(44,464,l),
(31,448,l),
(36,428,l),
(35,417,l),
(52,399,l),
(47,391,l),
(51,371,l),
(55,360,l),
(77,349,l),
(74,337,l),
(91,335,l),
(96,322,l),
(110,314,l),
(126,313,l),
(144,301,l),
(153,302,l),
(173,296,l),
(185,295,l)
);
},
{
closed = 1;
nodes = (
(200,394,l),
(192,398,l),
(181,413,l),
(175,432,l),
(181,441,l),
(180,462,l),
(180,479,l),
(182,490,l),
(180,517,l),
(181,538,l),
(194,557,l),
(194,574,l),
(195,587,l),
(204,596,l),
(215,607,l),
(234,616,l),
(262,613,l),
(274,608,l),
(276,598,l),
(280,578,l),
(291,567,l),
(292,553,l),
(290,535,l),
(287,522,l),
(273,491,l),
(273,470,l),
(278,454,l),
(265,440,l),
(254,429,l),
(253,415,l),
(247,406,l),
(222,396,l)
);
},
{
closed = 1;
nodes = (
(602,-39,l),
(613,-38,l),
(636,-27,l),
(645,-30,l),
(663,-23,l),
(677,-19,l),
(688,-8,l),
(714,1,l),
(719,10,l),
(732,16,l),
(743,32,l),
(759,40,l),
(763,58,l),
(776,71,l),
(778,84,l),
(785,105,l),
(792,116,l),
(788,131,l),
(799,147,l),
(802,174,l),
(802,198,l),
(807,204,l),
(802,225,l),
(797,238,l),
(803,248,l),
(792,270,l),
(787,282,l),
(791,289,l),
(782,310,l),
(782,320,l),
(762,327,l),
(753,341,l),
(755,350,l),
(741,354,l),
(715,358,l),
(715,362,l),
(691,374,l),
(676,368,l),
(666,374,l),
(630,374,l),
(624,373,l),
(603,369,l),
(584,366,l),
(571,359,l),
(554,347,l),
(546,339,l),
(535,330,l),
(502,309,l),
(504,305,l),
(481,284,l),
(472,273,l),
(462,259,l),
(456,249,l),
(451,227,l),
(452,216,l),
(443,204,l),
(444,180,l),
(438,156,l),
(434,139,l),
(430,128,l),
(442,106,l),
(429,94,l),
(445,86,l),
(446,69,l),
(442,59,l),
(457,37,l),
(462,34,l),
(458,14,l),
(470,9,l),
(479,-2,l),
(487,-12,l),
(508,-18,l),
(513,-25,l),
(525,-23,l),
(548,-28,l),
(550,-35,l),
(570,-37,l)
);
},
{
closed = 1;
nodes = (
(586,62,l),
(570,65,l),
(574,74,l),
(567,93,l),
(557,105,l),
(562,127,l),
(567,141,l),
(564,150,l),
(569,181,l),
(572,203,l),
(575,221,l),
(579,233,l),
(593,251,l),
(606,267,l),
(613,272,l),
(618,284,l),
(651,281,l),
(659,273,l),
(663,261,l),
(668,238,l),
(678,224,l),
(673,212,l),
(670,199,l),
(674,177,l),
(671,143,l),
(666,131,l),
(651,113,l),
(651,106,l),
(652,85,l),
(643,78,l),
(633,64,l),
(617,62,l)
);
}
);
width = 824;
},
{
hints = (
{
horizontal = 1;
place = (-10,41);
type = Stem;
},
{
horizontal = 1;
place = (325,41);
type = Stem;
},
{
horizontal = 1;
place = (644,41);
type = Stem;
},
{
place = (3,110);
type = Stem;
},
{
place = (245,110);
type = Stem;
},
{
place = (420,98);
type = Stem;
},
{
place = (650,98);
type = Stem;
},
{
horizontal = 1;
place = (0,21);
target = up;
type = BottomGhost;
},
{
horizontal = 1;
place = (309,41);
type = Stem;
}
);
layerId = "FC6EA5DF-75BF-4555-8471-DBE331F6C0F3";
shapes = (
{
closed = 1;
nodes = (
(142,-50,l),
(151,-60,l),
(165,-63,l),
(184,-62,l),
(208,-52,l),
(221,-48,l),
(224,-41,l),
(251,-15,l),
(249,1,l),
(265,10,l),
(272,26,l),
(276,38,l),
(292,47,l),
(300,60,l),
(315,81,l),
(318,94,l),
(329,100,l),
(340,114,l),
(351,130,l),
(362,148,l),
(365,156,l),
(370,168,l),
(393,182,l),
(393,197,l),
(402,207,l),
(421,226,l),
(422,231,l),
(439,251,l),
(448,265,l),
(457,275,l),
(465,286,l),
(472,301,l),
(479,315,l),
(501,322,l),
(502,338,l),
(513,354,l),
(521,366,l),
(530,381,l),
(546,387,l),
(555,407,l),
(564,418,l),
(573,432,l),
(584,442,l),
(595,457,l),
(600,469,l),
(611,478,l),
(622,496,l),
(634,501,l),
(651,515,l),
(657,527,l),
(666,544,l),
(680,560,l),
(688,568,l),
(695,585,l),
(708,597,l),
(718,608,l),
(736,629,l),
(738,643,l),
(742,662,l),
(734,678,l),
(730,689,l),
(724,695,l),
(708,706,l),
(696,713,l),
(681,714,l),
(673,712,l),
(651,700,l),
(642,689,l),
(624,673,l),
(607,660,l),
(598,639,l),
(584,633,l),
(577,616,l),
(572,602,l),
(557,589,l),
(549,581,l),
(540,562,l),
(536,554,l),
(523,537,l),
(507,530,l),
(501,515,l),
(489,501,l),
(487,490,l),
(474,480,l),
(460,467,l),
(451,452,l),
(444,439,l),
(435,426,l),
(424,408,l),
(407,400,l),
(399,390,l),
(391,374,l),
(379,360,l),
(371,345,l),
(358,332,l),
(352,325,l),
(345,312,l),
(331,300,l),
(316,289,l),
(304,269,l),
(301,261,l),
(294,251,l),
(278,237,l),
(264,223,l),
(267,209,l),
(247,196,l),
(238,187,l),
(234,175,l),
(215,161,l),
(203,148,l),
(195,128,l),
(189,122,l),
(180,111,l),
(170,92,l),
(154,80,l),
(145,70,l),
(135,58,l),
(119,30,l),
(120,14,l),
(106,1,l),
(114,-11,l),
(109,-26,l),
(116,-40,l),
(127,-43,l)
);
},
{
closed = 1;
nodes = (
(210,294,l),
(235,294,l),
(250,298,l),
(264,304,l),
(279,311,l),
(297,323,l),
(311,321,l),
(327,336,l),
(338,341,l),
(347,358,l),
(353,366,l),
(367,376,l),
(386,388,l),
(398,406,l),
(397,413,l),
(400,435,l),
(416,445,l),
(411,456,l),
(427,470,l),
(420,494,l),
(427,515,l),
(431,532,l),
(433,554,l),
(437,568,l),
(434,577,l),
(430,599,l),
(427,607,l),
(416,626,l),
(406,649,l),
(395,660,l),
(385,668,l),
(375,682,l),
(371,683,l),
(354,692,l),
(346,702,l),
(328,704,l),
(317,712,l),
(297,715,l),
(280,716,l),
(258,715,l),
(228,716,l),
(216,705,l),
(208,702,l),
(182,705,l),
(177,694,l),
(157,687,l),
(144,681,l),
(131,668,l),
(124,656,l),
(104,650,l),
(94,631,l),
(89,623,l),
(76,606,l),
(75,595,l),
(59,580,l),
(60,566,l),
(51,551,l),
(40,534,l),
(34,520,l),
(40,488,l),
(37,471,l),
(27,465,l),
(41,444,l),
(39,435,l),
(34,415,l),
(47,406,l),
(52,386,l),
(50,377,l),
(59,360,l),
(63,355,l),
(75,342,l),
(90,336,l),
(85,321,l),
(100,318,l),
(110,311,l),
(135,302,l),
(138,298,l),
(150,298,l),
(178,290,l),
(181,298,l)
);
},
{
closed = 1;
nodes = (
(203,399,l),
(189,412,l),
(191,421,l),
(184,431,l),
(175,449,l),
(175,459,l),
(186,475,l),
(192,488,l),
(193,525,l),
(187,535,l),
(198,553,l),
(200,570,l),
(198,583,l),
(210,594,l),
(225,606,l),
(229,608,l),
(266,606,l),
(272,605,l),
(279,592,l),
(281,574,l),
(289,562,l),
(278,548,l),
(281,530,l),
(282,517,l),
(278,486,l),
(278,479,l),
(275,459,l),
(265,440,l),
(262,432,l),
(256,420,l),
(246,408,l),
(230,399,l)
);
},
{
closed = 1;
nodes = (
(610,-43,l),
(633,-38,l),
(640,-34,l),
(664,-34,l),
(678,-27,l),
(697,-24,l),
(704,-14,l),
(719,-13,l),
(736,1,l),
(750,15,l),
(762,20,l),
(759,35,l),
(773,46,l),
(782,59,l),
(793,77,l),
(794,86,l),
(806,105,l),
(801,116,l),
(814,138,l),
(808,144,l),
(813,181,l),
(825,197,l),
(816,211,l),
(812,220,l),
(822,238,l),
(811,259,l),
(810,266,l),
(807,286,l),
(810,296,l),
(797,314,l),
(789,321,l),
(790,332,l),
(779,347,l),
(761,355,l),
(748,361,l),
(736,369,l),
(719,373,l),
(710,374,l),
(689,380,l),
(688,377,l),
(654,380,l),
(631,373,l),
(626,370,l),
(612,373,l),
(590,365,l),
(578,363,l),
(558,347,l),
(550,338,l),
(541,331,l),
(520,318,l),
(516,314,l),
(500,297,l),
(494,286,l),
(488,271,l),
(483,258,l),
(465,245,l),
(459,233,l),
(458,212,l),
(449,202,l),
(454,188,l),
(446,159,l),
(447,135,l),
(452,122,l),
(443,106,l),
(444,90,l),
(449,83,l),
(457,64,l),
(450,55,l),
(458,37,l),
(472,27,l),
(467,10,l),
(488,2,l),
(486,-10,l),
(497,-13,l),
(516,-20,l),
(524,-24,l),
(544,-34,l),
(563,-34,l),
(570,-41,l),
(580,-38,l)
);
},
{
closed = 1;
nodes = (
(600,61,l),
(599,72,l),
(580,87,l),
(586,102,l),
(587,107,l),
(585,127,l),
(581,145,l),
(592,155,l),
(591,184,l),
(595,202,l),
(597,214,l),
(602,233,l),
(610,249,l),
(615,261,l),
(622,269,l),
(645,280,l),
(667,270,l),
(671,266,l),
(676,248,l),
(679,239,l),
(676,221,l),
(676,208,l),
(679,189,l),
(685,174,l),
(675,151,l),
(672,126,l),
(663,116,l),
(656,95,l),
(654,84,l),
(639,67,l),
(623,63,l)
);
}
);
width = 837;
}
);
metricLeft = "=S";
metricRight = "=S";
note = percent;
unicode = 37;
userData = {
KernOnSpecialSpacing = {
L = "spaced-off";
};
};
}
{
glyphname = ampersand;
kernRight = KO_ampersand;
layers = (
{
hints = (
{
horizontal = 1;
place = (-10,64);
type = Stem;
},
{
horizontal = 1;
place = (248,65);
type = Stem;
},
{
horizontal = 1;
place = (560,70);
type = Stem;
},
{
place = (46,90);
type = Stem;
},
{
place = (372,95);
type = Stem;
},
{
place = (18,95);
type = Stem;
}
);
layerId = m005;
shapes = (
{
closed = 1;
nodes = (
(231,-22,l),
(253,-16,l),
(273,-18,l),
(291,-15,l),
(301,-15,l),
(320,-13,l),
(334,-5,l),
(351,6,l),
(352,12,l),
(370,11,l),
(386,25,l),
(392,35,l),
(420,45,l),
(437,29,l),
(436,27,l),
(455,18,l),
(476,-3,l),
(485,-6,l),
(506,-5,l),
(508,2,l),
(535,12,l),
(545,22,l),
(549,40,l),
(568,53,l),
(565,64,l),
(571,75,l),
(564,90,l),
(567,102,l),
(534,122,l),
(526,128,l),
(506,128,l),
(500,150,l),
(500,167,l),
(517,183,l),
(509,199,l),
(515,210,l),
(526,229,l),
(533,244,l),
(532,264,l),
(540,290,l),
(539,303,l),
(536,324,l),
(525,326,l),
(504,334,l),
(488,342,l),
(478,341,l),
(462,334,l),
(457,317,l),
(454,292,l),
(448,278,l),
(435,263,l),
(434,250,l),
(434,232,l),
(427,211,l),
(407,223,l),
(397,229,l),
(381,247,l),
(381,254,l),
(365,262,l),
(360,273,l),
(351,292,l),
(336,296,l),
(338,316,l),
(317,322,l),
(308,339,l),
(302,356,l),
(322,370,l),
(339,372,l),
(354,379,l),
(370,393,l),
(383,404,l),
(402,409,l),
(406,420,l),
(423,432,l),
(430,442,l),
(443,456,l),
(449,469,l),
(471,479,l),
(478,496,l),
(476,514,l),
(478,540,l),
(489,556,l),
(493,569,l),
(487,584,l),
(481,599,l),
(478,611,l),
(478,620,l),
(470,635,l),
(453,639,l),
(443,649,l),
(429,660,l),
(413,666,l),
(410,667,l),
(387,673,l),
(371,673,l),
(366,680,l),
(350,674,l),
(315,672,l),
(305,670,l),
(290,673,l),
(272,665,l),
(252,655,l),
(247,658,l),
(235,646,l),
(220,639,l),
(205,625,l),
(189,621,l),
(174,610,l),
(171,600,l),
(154,578,l),
(146,571,l),
(139,551,l),
(138,536,l),
(136,506,l),
(139,494,l),
(140,482,l),
(132,467,l),
(147,447,l),
(149,440,l),
(147,426,l),
(156,407,l),
(152,383,l),
(134,369,l),
(129,361,l),
(103,353,l),
(91,343,l),
(89,329,l),
(70,320,l),
(55,306,l),
(46,301,l),
(41,287,l),
(35,274,l),
(30,258,l),
(25,239,l),
(20,221,l),
(11,210,l),
(4,181,l),
(4,164,l),
(11,152,l),
(0,130,l),
(6,118,l),
(18,107,l),
(16,91,l),
(13,77,l),
(30,71,l),
(31,55,l),
(36,42,l),
(56,35,l),
(69,29,l),
(71,23,l),
(91,11,l),
(91,3,l),
(109,0,l),
(121,-10,l),
(143,-14,l),
(151,-11,l),
(171,-13,l),
(182,-13,l),
(199,-19,l),
(207,-19,l)
);
},
{
closed = 1;
nodes = (
(225,70,l),
(209,73,l),
(194,77,l),
(179,81,l),
(174,87,l),
(152,99,l),
(150,108,l),
(135,118,l),
(124,120,l),
(126,141,l),
(112,149,l),
(122,167,l),
(119,177,l),
(119,206,l),
(130,223,l),
(136,236,l),
(142,254,l),
(142,266,l),
(153,269,l),
(168,280,l),
(182,292,l),
(201,303,l),
(222,285,l),
(222,280,l),
(230,265,l),
(244,256,l),
(246,247,l),
(262,229,l),
(272,226,l),
(272,210,l),
(282,201,l),
(286,190,l),
(302,177,l),
(304,170,l),
(311,157,l),
(324,143,l),
(329,133,l),
(351,122,l),
(352,114,l),
(345,96,l),
(319,92,l),
(316,83,l),
(298,83,l),
(278,74,l),
(275,74,l),
(256,76,l)
);
},
{
closed = 1;
nodes = (
(256,428,l),
(241,451,l),
(242,462,l),
(233,475,l),
(240,492,l),
(232,508,l),
(247,543,l),
(248,555,l),
(251,566,l),
(271,581,l),
(278,592,l),
(287,593,l),
(345,601,l),
(349,593,l),
(360,590,l),
(379,579,l),
(386,563,l),
(389,553,l),
(378,540,l),
(378,511,l),
(368,502,l),
(353,483,l),
(354,477,l),
(339,462,l),
(318,463,l),
(316,453,l),
(300,444,l),
(276,442,l)
);
}
);
width = 604;
},
{
hints = (
{
horizontal = 1;
place = (-10,64);
type = Stem;
},
{
horizontal = 1;
place = (248,65);
type = Stem;
},
{
horizontal = 1;
place = (560,70);
type = Stem;
},
{
place = (46,90);
type = Stem;
},
{
place = (372,95);
type = Stem;
},
{
place = (18,95);
type = Stem;
}
);
layerId = m002;
shapes = (
{
closed = 1;
nodes = (
(281,-68,l),
(288,-68,l),
(313,-67,l),
(325,-61,l),
(348,-65,l),
(361,-62,l),
(367,-56,l),
(386,-46,l),
(410,-43,l),
(416,-37,l),
(432,-27,l),
(459,-18,l),
(471,-29,l),
(480,-37,l),
(490,-45,l),
(505,-51,l),
(517,-56,l),
(540,-51,l),
(554,-49,l),
(567,-42,l),
(580,-35,l),
(595,-30,l),
(602,-19,l),
(619,-8,l),
(630,4,l),
(646,18,l),
(656,30,l),
(662,44,l),
(656,59,l),
(668,74,l),
(668,93,l),
(671,108,l),
(665,123,l),
(658,136,l),
(642,148,l),
(629,150,l),
(618,162,l),
(601,167,l),
(606,192,l),
(619,204,l),
(624,220,l),
(630,228,l),
(635,242,l),
(638,260,l),
(637,286,l),
(633,310,l),
(642,322,l),
(629,332,l),
(636,352,l),
(624,355,l),
(617,371,l),
(604,383,l),
(595,383,l),
(575,385,l),
(555,389,l),
(537,387,l),
(531,382,l),
(516,380,l),
(500,365,l),
(495,359,l),
(480,341,l),
(474,330,l),
(466,309,l),
(457,305,l),
(448,307,l),
(434,331,l),
(425,342,l),
(440,355,l),
(465,364,l),
(468,370,l),
(490,385,l),
(504,392,l),
(508,402,l),
(528,424,l),
(533,430,l),
(551,443,l),
(549,464,l),
(565,479,l),
(563,487,l),
(577,506,l),
(576,533,l),
(589,552,l),
(593,566,l),
(584,575,l),
(581,596,l),
(581,603,l),
(580,623,l),
(575,629,l),
(560,645,l),
(565,658,l),
(549,667,l),
(551,681,l),
(539,683,l),
(516,694,l),
(514,707,l),
(500,706,l),
(481,716,l),
(473,718,l),
(461,719,l),
(448,729,l),
(427,730,l),
(409,728,l),
(399,731,l),
(369,726,l),
(356,727,l),
(335,718,l),
(330,713,l),
(302,715,l),
(292,711,l),
(279,705,l),
(260,689,l),
(245,684,l),
(243,673,l),
(220,670,l),
(212,658,l),
(198,646,l),
(184,640,l),
(173,620,l),
(174,611,l),
(159,595,l),
(151,579,l),
(145,564,l),
(138,550,l),
(141,544,l),
(126,506,l),
(124,491,l),
(134,479,l),
(131,467,l),
(132,450,l),
(132,442,l),
(132,420,l),
(149,403,l),
(127,385,l),
(117,382,l),
(102,366,l),
(85,360,l),
(75,343,l),
(74,338,l),
(60,325,l),
(51,309,l),
(34,291,l),
(34,282,l),
(32,266,l),
(17,257,l),
(22,240,l),
(6,220,l),
(12,206,l),
(-3,183,l),
(-1,161,l),
(7,150,l),
(1,132,l),
(4,119,l),
(1,105,l),
(14,90,l),
(4,79,l),
(17,60,l),
(35,36,l),
(38,26,l),
(46,18,l),
(60,3,l),
(64,-2,l),
(78,-12,l),
(87,-23,l),
(95,-28,l),
(112,-33,l),
(116,-40,l),
(137,-43,l),
(143,-57,l),
(158,-53,l),
(169,-61,l),
(188,-64,l),
(211,-62,l),
(212,-73,l),
(231,-74,l),
(248,-73,l)
);
},
{
closed = 1;
nodes = (
(287,126,l),
(257,122,l),
(252,134,l),
(236,133,l),
(232,144,l),
(216,155,l),
(211,167,l),
(208,181,l),
(222,208,l),
(229,231,l),
(242,218,l),
(253,200,l),
(271,194,l),
(276,186,l),
(277,166,l),
(292,157,l),
(302,146,l),
(309,124,l),
(303,129,l)
);
},
{
closed = 1;
nodes = (
(344,501,l),
(341,516,l),
(342,543,l),
(350,544,l),
(367,544,l),
(386,536,l),
(367,517,l),
(362,507,l)
);
}
);
width = 671;
},
{
hints = (
{
horizontal = 1;
place = (-10,64);
type = Stem;
},
{
horizontal = 1;
place = (248,65);
type = Stem;
},
{
horizontal = 1;
place = (560,70);
type = Stem;
},
{
place = (46,90);
type = Stem;
},
{
place = (372,95);
type = Stem;
},
{
place = (18,95);
type = Stem;
}
);
layerId = m003;
shapes = (
{
closed = 1;
nodes = (
(223,-11,l),
(244,-13,l),
(263,-10,l),
(279,-1,l),
(292,-1,l),
(310,0,l),
(319,9,l),
(339,13,l),
(343,18,l),
(371,32,l),
(380,32,l),
(387,44,l),
(416,62,l),
(427,42,l),
(429,34,l),
(444,25,l),
(465,11,l),
(482,13,l),
(500,8,l),
(512,24,l),
(527,35,l),
(539,48,l),
(543,59,l),
(546,78,l),
(540,89,l),
(528,109,l),
(512,116,l),
(501,125,l),
(485,132,l),
(477,145,l),
(472,159,l),
(480,170,l),
(491,194,l),
(490,201,l),
(501,215,l),
(512,229,l),
(505,250,l),
(517,265,l),
(518,294,l),
(513,309,l),
(508,315,l),
(499,326,l),
(474,331,l),
(461,328,l),
(456,317,l),
(444,286,l),
(445,266,l),
(436,252,l),
(433,241,l),
(433,224,l),
(421,214,l),
(412,194,l),
(397,203,l),
(384,215,l),
(383,220,l),
(363,229,l),
(360,240,l),
(352,256,l),
(349,261,l),
(332,274,l),
(328,283,l),
(313,293,l),
(306,310,l),
(294,321,l),
(292,327,l),
(289,341,l),
(283,362,l),
(296,366,l),
(308,374,l),
(331,386,l),
(331,391,l),
(350,396,l),
(367,411,l),
(385,417,l),
(388,425,l),
(395,432,l),
(416,442,l),
(422,457,l),
(433,474,l),
(438,480,l),
(452,497,l),
(450,514,l),
(462,536,l),
(468,551,l),
(463,573,l),
(463,587,l),
(454,593,l),
(452,608,l),
(442,619,l),
(442,629,l),
(424,642,l),
(417,644,l),
(413,659,l),
(394,661,l),
(379,659,l),
(366,667,l),
(358,671,l),
(334,665,l),
(305,663,l),
(290,663,l),
(283,660,l),
(265,650,l),
(253,645,l),
(230,639,l),
(214,640,l),
(202,628,l),
(183,613,l),
(183,606,l),
(172,592,l),
(164,580,l),
(147,567,l),
(137,550,l),
(140,539,l),
(138,511,l),
(129,491,l),
(134,479,l),
(142,471,l),
(144,455,l),
(139,443,l),
(142,425,l),
(146,412,l),
(156,399,l),
(165,382,l),
(137,375,l),
(128,362,l),
(117,351,l),
(105,344,l),
(92,334,l),
(85,331,l),
(60,316,l),
(60,300,l),
(47,287,l),
(40,276,l),
(27,270,l),
(17,253,l),
(12,234,l),
(11,218,l),
(17,212,l),
(4,180,l),
(2,164,l),
(1,154,l),
(4,139,l),
(8,119,l),
(11,104,l),
(11,92,l),
(27,82,l),
(27,74,l),
(37,62,l),
(49,49,l),
(59,39,l),
(66,27,l),
(70,23,l),
(89,13,l),
(108,8,l),
(120,1,l),
(134,3,l),
(148,-2,l),
(157,-3,l),
(166,-11,l),
(188,-13,l),
(206,-15,l)
);
},
{
closed = 1;
nodes = (
(217,61,l),
(204,67,l),
(178,66,l),
(169,74,l),
(161,78,l),
(139,83,l),
(138,90,l),
(118,101,l),
(111,111,l),
(102,123,l),
(96,131,l),
(93,146,l),
(93,168,l),
(91,183,l),
(106,213,l),
(110,221,l),
(113,235,l),
(120,250,l),
(135,263,l),
(145,276,l),
(148,294,l),
(168,303,l),
(179,307,l),
(197,323,l),
(203,303,l),
(215,287,l),
(219,280,l),
(234,268,l),
(243,261,l),
(248,250,l),
(255,233,l),
(270,220,l),
(269,210,l),
(284,197,l),
(292,188,l),
(309,179,l),
(312,164,l),
(315,159,l),
(338,143,l),
(336,135,l),
(343,124,l),
(359,106,l),
(342,99,l),
(331,87,l),
(320,75,l),
(299,70,l),
(286,73,l),
(265,64,l),
(262,66,l),
(250,67,l)
);
},
{
closed = 1;
nodes = (
(248,422,l),
(225,431,l),
(223,451,l),
(219,465,l),
(226,480,l),
(213,493,l),
(209,508,l),
(212,535,l),
(219,553,l),
(232,570,l),
(235,581,l),
(257,589,l),
(272,606,l),
(303,614,l),
(324,611,l),
(343,608,l),
(357,606,l),
(375,580,l),
(382,570,l),
(386,556,l),
(389,542,l),
(382,513,l),
(365,497,l),
(355,484,l),
(341,472,l),
(335,460,l),
(316,452,l),
(303,445,l),
(298,435,l),
(270,431,l),
(255,420,l)
);
}
);
width = 591;
},
{
hints = (
{
horizontal = 1;
place = (-10,64);
type = Stem;
},
{
horizontal = 1;
place = (248,65);
type = Stem;
},
{
horizontal = 1;
place = (560,70);
type = Stem;
},
{
place = (46,90);
type = Stem;
},
{
place = (372,95);
type = Stem;
},
{
place = (18,95);
type = Stem;
}
);
layerId = "27802CB9-B49D-4E25-883A-F5F5DC48409B";
shapes = (
{
closed = 1;
nodes = (
(249,-29,l),
(260,-29,l),
(276,-28,l),
(288,-26,l),
(308,-22,l),
(326,-20,l),
(336,-10,l),
(347,-7,l),
(359,-8,l),
(374,2,l),
(400,7,l),
(403,25,l),
(423,28,l),
(451,18,l),
(460,10,l),
(473,-7,l),
(496,-10,l),
(499,-8,l),
(523,-4,l),
(531,-2,l),
(539,1,l),
(555,12,l),
(573,29,l),
(590,43,l),
(591,60,l),
(585,70,l),
(594,86,l),
(592,106,l),
(575,115,l),
(558,128,l),
(550,128,l),
(541,138,l),
(522,152,l),
(533,168,l),
(535,192,l),
(538,200,l),
(549,220,l),
(548,232,l),
(550,246,l),
(559,257,l),
(562,295,l),
(561,311,l),
(549,320,l),
(550,331,l),
(541,339,l),
(516,351,l),
(496,346,l),
(480,343,l),
(466,328,l),
(465,317,l),
(448,293,l),
(456,274,l),
(443,265,l),
(444,248,l),
(435,225,l),
(413,249,l),
(403,254,l),
(390,263,l),
(380,278,l),
(372,284,l),
(358,294,l),
(358,305,l),
(353,319,l),
(337,331,l),
(325,352,l),
(357,364,l),
(368,371,l),
(381,385,l),
(398,390,l),
(410,402,l),
(423,409,l),
(431,413,l),
(441,429,l),
(460,436,l),
(465,447,l),
(483,467,l),
(481,477,l),
(500,489,l),
(498,511,l),
(514,537,l),
(505,553,l),
(511,573,l),
(508,582,l),
(507,600,l),
(502,609,l),
(492,621,l),
(493,639,l),
(475,646,l),
(474,652,l),
(456,661,l),
(444,669,l),
(440,680,l),
(419,677,l),
(403,683,l),
(398,685,l),
(372,686,l),
(370,689,l),
(336,686,l),
(310,681,l),
(295,681,l),
(286,676,l),
(271,667,l),
(256,668,l),
(236,659,l),
(221,652,l),
(212,644,l),
(207,629,l),
(193,623,l),
(176,610,l),
(169,597,l),
(164,580,l),
(149,565,l),
(142,553,l),
(138,544,l),
(136,509,l),
(142,494,l),
(133,485,l),
(134,469,l),
(136,451,l),
(143,441,l),
(143,427,l),
(146,409,l),
(161,387,l),
(143,376,l),
(121,367,l),
(113,353,l),
(97,343,l),
(90,336,l),
(65,320,l),
(62,310,l),
(47,298,l),
(39,279,l),
(31,272,l),
(32,254,l),
(17,240,l),
(18,227,l),
(17,207,l),
(6,177,l),
(-1,163,l),
(1,152,l),
(10,135,l),
(15,116,l),
(17,106,l),
(15,94,l),
(25,80,l),
(33,68,l),
(39,54,l),
(48,49,l),
(47,38,l),
(61,26,l),
(78,19,l),
(80,12,l),
(92,3,l),
(103,-4,l),
(118,-10,l),
(135,-18,l),
(143,-19,l),
(156,-27,l),
(173,-30,l),
(196,-25,l),
(199,-25,l),
(223,-26,l)
);
},
{
closed = 1;
nodes = (
(233,83,l),
(229,87,l),
(212,87,l),
(200,94,l),
(190,101,l),
(173,102,l),
(161,120,l),
(159,125,l),
(148,136,l),
(145,154,l),
(130,160,l),
(133,174,l),
(141,213,l),
(155,228,l),
(158,240,l),
(159,252,l),
(178,268,l),
(193,272,l),
(208,286,l),
(230,278,l),
(231,259,l),
(239,247,l),
(256,243,l),
(260,232,l),
(263,216,l),
(282,208,l),
(277,200,l),
(287,186,l),
(306,176,l),
(314,168,l),
(315,150,l),
(331,139,l),
(335,132,l),
(355,117,l),
(326,103,l),
(315,96,l),
(304,90,l),
(287,86,l),
(269,89,l)
);
},
{
closed = 1;
nodes = (
(278,442,l),
(273,464,l),
(267,474,l),
(261,496,l),
(265,510,l),
(256,538,l),
(262,556,l),
(281,565,l),
(286,581,l),
(302,585,l),
(315,591,l),
(355,588,l),
(365,588,l),
(367,581,l),
(386,563,l),
(381,557,l),
(388,537,l),
(386,508,l),
(372,492,l),
(350,482,l),
(348,476,l),
(330,464,l),
(317,460,l),
(308,453,l)
);
}
);
width = 621;
},
{
hints = (
{
horizontal = 1;
place = (-10,64);
type = Stem;
},
{
horizontal = 1;
place = (248,65);
type = Stem;
},
{
horizontal = 1;
place = (560,70);
type = Stem;
},
{
place = (46,90);
type = Stem;
},
{
place = (372,95);
type = Stem;
},
{
place = (18,95);
type = Stem;
}
);
layerId = "9BFA4F56-4850-48F5-A038-9DAB9408749E";
shapes = (
{
closed = 1;
nodes = (
(257,-37,l),
(272,-40,l),
(290,-33,l),
(303,-39,l),
(316,-31,l),
(334,-31,l),
(353,-23,l),
(355,-20,l),
(375,-13,l),
(392,-8,l),
(401,-4,l),
(417,4,l),
(439,17,l),
(447,8,l),
(458,1,l),
(476,-20,l),
(490,-23,l),
(505,-24,l),
(520,-19,l),
(542,-17,l),
(545,-10,l),
(567,-6,l),
(572,9,l),
(586,18,l),
(598,34,l),
(610,54,l),
(609,63,l),
(615,82,l),
(605,98,l),
(604,112,l),
(595,127,l),
(575,137,l),
(553,140,l),
(543,153,l),
(555,176,l),
(551,188,l),
(566,204,l),
(573,224,l),
(565,229,l),
(583,252,l),
(577,264,l),
(580,290,l),
(587,302,l),
(583,316,l),
(576,335,l),
(561,344,l),
(547,349,l),
(535,361,l),
(523,364,l),
(503,357,l),
(502,358,l),
(475,342,l),
(467,329,l),
(462,316,l),
(460,291,l),
(452,281,l),
(454,261,l),
(431,251,l),
(423,269,l),
(413,279,l),
(399,288,l),
(389,295,l),
(390,310,l),
(379,319,l),
(361,329,l),
(364,346,l),
(380,363,l),
(388,373,l),
(406,383,l),
(411,382,l),
(434,395,l),
(450,407,l),
(452,411,l),
(472,422,l),
(483,439,l),
(485,451,l),
(504,462,l),
(514,475,l),
(521,490,l),
(521,509,l),
(522,541,l),
(537,550,l),
(529,568,l),
(523,581,l),
(530,595,l),
(521,607,l),
(516,623,l),
(512,637,l),
(510,644,l),
(490,658,l),
(477,667,l),
(472,672,l),
(456,678,l),
(439,682,l),
(434,691,l),
(419,690,l),
(402,701,l),
(385,693,l),
(378,698,l),
(336,692,l),
(330,688,l),
(314,694,l),
(296,681,l),
(287,679,l),
(270,676,l),
(259,669,l),
(243,659,l),
(231,651,l),
(208,646,l),
(197,637,l),
(193,619,l),
(182,613,l),
(174,598,l),
(167,588,l),
(154,569,l),
(152,555,l),
(139,541,l),
(141,509,l),
(134,492,l),
(137,480,l),
(146,468,l),
(134,449,l),
(139,438,l),
(144,425,l),
(151,417,l),
(157,392,l),
(135,379,l),
(128,369,l),
(103,356,l),
(90,350,l),
(86,338,l),
(76,325,l),
(55,315,l),
(49,297,l),
(46,286,l),
(37,274,l),
(28,251,l),
(19,236,l),
(9,224,l),
(7,211,l),
(12,183,l),
(3,167,l),
(13,151,l),
(3,132,l),
(10,125,l),
(14,103,l),
(17,92,l),
(27,80,l),
(32,62,l),
(37,54,l),
(41,48,l),
(45,28,l),
(65,24,l),
(66,17,l),
(74,2,l),
(97,0,l),
(108,-14,l),
(114,-20,l),
(131,-26,l),
(138,-29,l),
(160,-29,l),
(166,-37,l),
(182,-37,l),
(196,-38,l),
(211,-35,l),
(226,-44,l)
);
},
{
closed = 1;
nodes = (
(254,96,l),
(237,95,l),
(223,101,l),
(216,105,l),
(202,107,l),
(177,115,l),
(171,125,l),
(168,136,l),
(160,151,l),
(166,166,l),
(159,183,l),
(161,206,l),
(171,227,l),
(176,243,l),
(194,253,l),
(196,258,l),
(215,275,l),
(237,260,l),
(238,252,l),
(256,233,l),
(265,228,l),
(267,216,l),
(279,205,l),
(291,193,l),
(289,183,l),
(306,172,l),
(318,159,l),
(327,145,l),
(331,140,l),
(338,119,l),
(328,102,l),
(309,96,l),
(300,95,l),
(276,93,l)
);
},
{
closed = 1;
nodes = (
(291,457,l),
(280,483,l),
(280,492,l),
(274,508,l),
(290,536,l),
(284,558,l),
(302,569,l),
(307,579,l),
(321,580,l),
(361,578,l),
(371,573,l),
(377,565,l),
(391,557,l),
(380,543,l),
(382,511,l),
(375,502,l),
(356,492,l),
(338,477,l),
(337,475,l),
(313,467,l)
);
}
);
width = 631;
},
{
hints = (
{
horizontal = 1;
place = (-10,64);
type = Stem;
},
{
horizontal = 1;
place = (248,65);
type = Stem;
},
{
horizontal = 1;
place = (560,70);
type = Stem;
},
{
place = (46,90);
type = Stem;
},
{
place = (372,95);
type = Stem;
},
{
place = (18,95);
type = Stem;
}
);
layerId = "B734896E-9115-4752-AF37-164D25EC5193";
shapes = (
{
closed = 1;
nodes = (
(260,-54,l),
(271,-45,l),
(290,-45,l),
(310,-47,l),
(313,-40,l),
(326,-44,l),
(355,-32,l),
(359,-27,l),
(373,-24,l),
(385,-19,l),
(404,-16,l),
(417,-3,l),
(432,3,l),
(460,-11,l),
(475,-20,l),
(487,-26,l),
(505,-30,l),
(514,-34,l),
(537,-27,l),
(546,-27,l),
(579,-12,l),
(583,-1,l),
(600,10,l),
(617,25,l),
(613,44,l),
(629,56,l),
(632,66,l),
(632,87,l),
(620,97,l),
(627,114,l),
(610,126,l),
(604,129,l),
(577,145,l),
(560,162,l),
(573,183,l),
(568,195,l),
(573,211,l),
(586,234,l),
(584,244,l),
(599,257,l),
(604,295,l),
(604,307,l),
(591,319,l),
(598,333,l),
(583,342,l),
(570,360,l),
(563,359,l),
(555,372,l),
(533,372,l),
(509,365,l),
(501,365,l),
(490,348,l),
(476,343,l),
(461,322,l),
(466,296,l),
(449,284,l),
(444,264,l),
(418,292,l),
(418,302,l),
(400,311,l),
(396,322,l),
(387,328,l),
(377,350,l),
(390,359,l),
(406,366,l),
(420,374,l),
(430,383,l),
(443,399,l),
(458,407,l),
(480,417,l),
(488,422,l),
(499,436,l),
(508,446,l),
(514,463,l),
(527,481,l),
(535,494,l),
(536,502,l),
(540,532,l),
(549,554,l),
(543,562,l),
(539,582,l),
(548,597,l),
(545,613,l),
(537,621,l),
(528,641,l),
(513,645,l),
(512,662,l),
(504,671,l),
(486,681,l),
(473,681,l),
(462,692,l),
(448,700,l),
(444,705,l),
(430,709,l),
(409,705,l),
(396,704,l),
(378,706,l),
(352,709,l),
(336,701,l),
(316,704,l),
(304,695,l),
(292,692,l),
(279,688,l),
(260,675,l),
(249,675,l),
(234,664,l),
(222,659,l),
(208,642,l),
(191,631,l),
(185,624,l),
(174,607,l),
(163,599,l),
(157,585,l),
(148,572,l),
(139,553,l),
(131,541,l),
(139,505,l),
(139,491,l),
(125,473,l),
(132,465,l),
(137,449,l),
(144,430,l),
(138,419,l),
(156,396,l),
(116,372,l),
(110,360,l),
(93,353,l),
(76,339,l),
(70,333,l),
(63,321,l),
(48,305,l),
(43,288,l),
(39,275,l),
(19,263,l),
(28,255,l),
(11,236,l),
(9,224,l),
(4,208,l),
(8,182,l),
(0,163,l),
(-4,146,l),
(6,138,l),
(1,119,l),
(9,108,l),
(17,95,l),
(17,74,l),
(19,68,l),
(29,50,l),
(33,39,l),
(48,34,l),
(54,20,l),
(63,10,l),
(68,-1,l),
(78,-9,l),
(90,-16,l),
(112,-20,l),
(125,-27,l),
(134,-31,l),
(140,-35,l),
(161,-38,l),
(176,-47,l),
(186,-42,l),
(199,-52,l),
(215,-46,l),
(228,-51,l)
);
},
{
closed = 1;
nodes = (
(255,109,l),
(249,110,l),
(222,113,l),
(221,113,l),
(208,117,l),
(184,126,l),
(179,135,l),
(183,150,l),
(179,161,l),
(177,177,l),
(184,211,l),
(181,226,l),
(184,235,l),
(205,248,l),
(228,264,l),
(231,250,l),
(244,230,l),
(255,220,l),
(263,217,l),
(274,201,l),
(268,187,l),
(289,184,l),
(292,171,l),
(296,164,l),
(304,148,l),
(320,141,l),
(335,125,l),
(309,112,l),
(282,110,l)
);
},
{
closed = 1;
nodes = (
(310,476,l),
(304,497,l),
(290,511,l),
(298,543,l),
(307,552,l),
(313,562,l),
(334,574,l),
(353,573,l),
(379,566,l),
(374,550,l),
(376,536,l),
(377,507,l),
(358,502,l),
(349,490,l),
(337,483,l)
);
}
);
width = 645;
},
{
hints = (
{
horizontal = 1;
place = (-10,64);
type = Stem;
},
{
horizontal = 1;
place = (248,65);
type = Stem;
},
{
horizontal = 1;
place = (560,70);
type = Stem;
},
{
place = (46,90);
type = Stem;
},
{
place = (372,95);
type = Stem;
},
{
place = (18,95);
type = Stem;
}
);
layerId = "FC6EA5DF-75BF-4555-8471-DBE331F6C0F3";
shapes = (
{
closed = 1;
nodes = (
(271,-58,l),
(283,-62,l),
(293,-62,l),
(318,-58,l),
(339,-49,l),
(343,-49,l),
(362,-46,l),
(377,-36,l),
(392,-32,l),
(414,-29,l),
(425,-17,l),
(441,-4,l),
(456,-20,l),
(483,-35,l),
(488,-36,l),
(511,-43,l),
(512,-40,l),
(528,-38,l),
(543,-34,l),
(555,-32,l),
(570,-22,l),
(590,-17,l),
(609,-1,l),
(612,7,l),
(629,18,l),
(641,31,l),
(635,46,l),
(652,67,l),
(646,85,l),
(640,94,l),
(646,107,l),
(638,118,l),
(626,133,l),
(616,143,l),
(593,158,l),
(586,170,l),
(586,183,l),
(598,206,l),
(601,220,l),
(610,232,l),
(607,248,l),
(616,256,l),
(617,295,l),
(619,305,l),
(616,318,l),
(619,333,l),
(608,348,l),
(602,355,l),
(585,364,l),
(575,373,l),
(565,382,l),
(543,383,l),
(532,374,l),
(519,377,l),
(495,362,l),
(478,351,l),
(470,339,l),
(477,322,l),
(464,298,l),
(450,279,l),
(436,294,l),
(426,308,l),
(411,322,l),
(395,345,l),
(418,358,l),
(440,369,l),
(451,378,l),
(455,382,l),
(476,395,l),
(490,402,l),
(492,410,l),
(511,422,l),
(518,434,l),
(528,454,l),
(538,460,l),
(539,478,l),
(541,495,l),
(554,506,l),
(563,534,l),
(565,553,l),
(558,569,l),
(571,582,l),
(557,595,l),
(562,606,l),
(552,623,l),
(555,634,l),
(548,648,l),
(539,665,l),
(518,675,l),
(509,679,l),
(502,694,l),
(484,694,l),
(478,707,l),
(461,711,l),
(452,711,l),
(435,715,l),
(425,720,l),
(402,715,l),
(384,714,l),
(362,714,l),
(337,716,l),
(320,705,l),
(318,701,l),
(290,706,l),
(278,700,l),
(269,687,l),
(248,684,l),
(232,676,l),
(230,667,l),
(218,655,l),
(203,650,l),
(184,636,l),
(183,619,l),
(167,607,l),
(154,594,l),
(147,588,l),
(146,567,l),
(145,556,l),
(142,537,l),
(136,508,l),
(124,493,l),
(125,475,l),
(126,462,l),
(134,453,l),
(143,432,l),
(138,417,l),
(140,404,l),
(120,380,l),
(106,376,l),
(102,364,l),
(85,351,l),
(75,342,l),
(70,333,l),
(58,315,l),
(46,310,l),
(32,292,l),
(36,279,l),
(25,267,l),
(16,249,l),
(10,238,l),
(11,223,l),
(6,210,l),
(8,180,l),
(4,165,l),
(-5,153,l),
(-7,131,l),
(1,122,l),
(-1,109,l),
(15,93,l),
(13,80,l),
(12,67,l),
(24,49,l),
(26,41,l),
(42,32,l),
(39,15,l),
(55,5,l),
(64,-4,l),
(76,-12,l),
(88,-17,l),
(96,-28,l),
(110,-35,l),
(133,-32,l),
(140,-46,l),
(157,-46,l),
(164,-47,l),
(177,-51,l),
(202,-56,l),
(215,-57,l),
(216,-60,l),
(245,-57,l)
);
},
{
closed = 1;
nodes = (
(268,118,l),
(249,115,l),
(236,124,l),
(229,128,l),
(212,134,l),
(200,139,l),
(201,152,l),
(194,162,l),
(196,176,l),
(192,209,l),
(204,217,l),
(202,235,l),
(230,245,l),
(239,234,l),
(256,223,l),
(262,210,l),
(259,201,l),
(279,187,l),
(280,180,l),
(289,165,l),
(305,154,l),
(316,147,l),
(322,123,l),
(301,118,l)
);
},
{
closed = 1;
nodes = (
(319,489,l),
(312,509,l),
(320,534,l),
(329,555,l),
(340,556,l),
(361,559,l),
(372,552,l),
(380,541,l),
(365,510,l),
(364,502,l),
(337,490,l)
);
}
);
width = 657;
}
);
metricLeft = "=|B";
metricRight = "=L";
note = ampersand;
unicode = 38;
userData = {
KernOnSpecialSpacing = {
L = symbols;
R = symbols;
};
};
}
{
glyphname = quotesingle;
kernLeft = KO_quotesingle;
kernRight = KO_quotesingle;
layers = (
{
hints = (
{
horizontal = 1;
place = (500,200);
type = Stem;
},
{
place = (-15,62.5);
type = Stem;
}
);
layerId = m005;
shapes = (
{
closed = 1;
nodes = (
(175,501,l),
(189,515,l),
(196,524,l),
(203,550,l),
(209,574,l),
(222,581,l),
(224,600,l),
(228,615,l),
(220,630,l),
(230,657,l),
(230,673,l),
(216,685,l),
(209,692,l),
(180,697,l),
(163,689,l),
(144,673,l),
(141,659,l),
(132,627,l),
(133,620,l),
(126,601,l),
(126,584,l),
(128,574,l),
(121,552,l),
(130,520,l),
(130,510,l),
(143,506,l)
);
}
);
width = 176;
},
{
hints = (
{
horizontal = 1;
place = (500,200);
type = Stem;
},
{
place = (-12,62.5);
type = Stem;
}
);
layerId = m002;
shapes = (
{
closed = 1;
nodes = (
(168,455,l),
(185,458,l),
(196,458,l),
(210,470,l),
(227,480,l),
(239,490,l),
(249,506,l),
(260,521,l),
(264,547,l),
(274,563,l),
(278,582,l),
(272,595,l),
(283,624,l),
(276,640,l),
(283,655,l),
(279,660,l),
(267,680,l),
(254,684,l),
(244,693,l),
(236,705,l),
(225,715,l),
(208,711,l),
(184,709,l),
(166,712,l),
(154,704,l),
(139,697,l),
(121,693,l),
(112,676,l),
(111,664,l),
(92,655,l),
(93,642,l),
(84,621,l),
(82,589,l),
(86,582,l),
(86,564,l),
(77,555,l),
(71,523,l),
(85,511,l),
(84,496,l),
(92,484,l),
(97,474,l),
(116,462,l),
(134,457,l),
(147,452,l)
);
}
);
width = 198;
},
{
hints = (
{
horizontal = 1;
place = (500,200);
type = Stem;
},
{
place = (-15,62.5);
type = Stem;
}
);
layerId = m003;
shapes = (
{
closed = 1;
nodes = (
(171,499,l),
(192,516,l),
(193,544,l),
(200,562,l),
(196,574,l),
(209,590,l),
(207,606,l),
(218,629,l),
(215,644,l),
(218,676,l),
(216,687,l),
(199,692,l),
(175,697,l),
(157,692,l),
(151,675,l),
(147,645,l),
(137,620,l),
(133,611,l),
(136,591,l),
(134,582,l),
(134,557,l),
(134,544,l),
(135,516,l),
(135,500,l)
);
}
);
width = 182;
},
{
hints = (
{
horizontal = 1;
place = (500,200);
type = Stem;
},
{
place = (-15,63);
type = Stem;
}
);
layerId = "27802CB9-B49D-4E25-883A-F5F5DC48409B";
shapes = (
{
closed = 1;
nodes = (
(178,493,l),
(190,498,l),
(196,511,l),
(214,519,l),
(219,558,l),
(222,567,l),
(230,580,l),
(224,598,l),
(238,606,l),
(233,622,l),
(240,657,l),
(244,665,l),
(225,686,l),
(220,696,l),
(215,697,l),
(183,703,l),
(161,698,l),
(153,684,l),
(139,673,l),
(130,650,l),
(124,621,l),
(117,608,l),
(120,594,l),
(118,577,l),
(110,564,l),
(118,550,l),
(114,523,l),
(119,509,l),
(129,498,l),
(148,494,l)
);
}
);
width = 181;
},
{
hints = (
{
horizontal = 1;
place = (500,200);
type = Stem;
},
{
place = (-14,63);
type = Stem;
}
);
layerId = "9BFA4F56-4850-48F5-A038-9DAB9408749E";
shapes = (
{
closed = 1;
nodes = (
(181,478,l),
(190,489,l),
(201,495,l),
(223,513,l),
(232,522,l),
(230,553,l),
(238,568,l),
(241,586,l),
(244,604,l),
(247,620,l),
(256,645,l),
(252,656,l),
(251,670,l),
(235,680,l),
(227,689,l),
(226,701,l),
(204,702,l),
(177,703,l),
(166,698,l),
(160,697,l),
(140,683,l),
(131,674,l),
(118,656,l),
(126,649,l),
(106,611,l),
(119,605,l),
(116,586,l),
(108,565,l),
(109,554,l),
(104,525,l),
(104,506,l),
(115,492,l),
(131,484,l),
(144,478,l)
);
}
);
width = 185;
},
{
hints = (
{
horizontal = 1;
place = (500,200);
type = Stem;
},
{
place = (-13,63);
type = Stem;
}
);
layerId = "B734896E-9115-4752-AF37-164D25EC5193";
shapes = (
{
closed = 1;
nodes = (
(176,468,l),
(203,480,l),
(211,481,l),
(216,491,l),
(232,513,l),
(246,526,l),
(255,554,l),
(245,562,l),
(253,576,l),
(259,595,l),
(257,607,l),
(272,635,l),
(264,655,l),
(266,661,l),
(265,673,l),
(249,692,l),
(241,696,l),
(236,700,l),
(216,708,l),
(183,711,l),
(174,705,l),
(157,698,l),
(151,692,l),
(137,675,l),
(132,665,l),
(113,650,l),
(119,635,l),
(108,613,l),
(102,595,l),
(105,583,l),
(101,562,l),
(106,548,l),
(102,522,l),
(102,510,l),
(114,497,l),
(120,486,l),
(131,475,l),
(145,473,l)
);
}
);
width = 202;
},
{
hints = (
{
horizontal = 1;
place = (500,200);
type = Stem;
},
{
place = (-12,63);
type = Stem;
}
);
layerId = "FC6EA5DF-75BF-4555-8471-DBE331F6C0F3";
shapes = (
{
closed = 1;
nodes = (
(175,456,l),
(196,464,l),
(209,474,l),
(227,480,l),
(236,493,l),
(251,506,l),
(262,519,l),
(264,558,l),
(266,567,l),
(269,582,l),
(283,602,l),
(289,635,l),
(274,649,l),
(274,663,l),
(275,671,l),
(261,682,l),
(252,690,l),
(253,702,l),
(237,711,l),
(199,710,l),
(173,705,l),
(156,700,l),
(157,696,l),
(137,687,l),
(131,669,l),
(116,656,l),
(106,641,l),
(103,626,l),
(103,598,l),
(107,588,l),
(105,567,l),
(98,553,l),
(90,521,l),
(100,512,l),
(102,490,l),
(110,486,l),
(128,477,l),
(138,461,l),
(157,457,l)
);
}
);
width = 212;
}
);
metricLeft = "=period";
metricRight = "=period";
note = quotesingle;
unicode = 39;
userData = {
KernOnName = quotesingle;
KernOnSpecialSpacing = {
L = quotes;
R = quotes;
};
};
}
{
glyphname = parenleft;
kernLeft = KO_parenleft;
kernRight = KO_parenleft;
layers = (
{
hints = (
{
horizontal = 1;
place = (-80,827);
type = Stem;
},
{
place = (17,100);
type = Stem;
}
);
layerId = m005;
shapes = (
{
closed = 1;
nodes = (
(178,347,l),
(189,363,l),
(192,375,l),
(187,393,l),
(190,415,l),
(205,426,l),
(199,440,l),
(210,451,l),
(210,472,l),
(221,483,l),
(220,505,l),
(237,517,l),
(238,530,l),
(241,543,l),
(256,563,l),
(265,573,l),
(266,585,l),
(283,602,l),
(295,609,l),
(292,627,l),
(312,640,l),
(321,644,l),
(335,654,l),
(340,665,l),
(368,688,l),
(370,702,l),
(365,721,l),
(364,733,l),
(347,736,l),
(338,739,l),
(309,720,l),
(298,712,l),
(282,706,l),
(259,691,l),
(247,680,l),
(245,672,l),
(232,661,l),
(218,645,l),
(215,640,l),
(194,625,l),
(186,613,l),
(173,600,l),
(174,581,l),
(161,568,l),
(155,552,l),
(149,542,l),
(144,527,l),
(137,517,l),
(120,502,l),
(127,482,l),
(112,473,l),
(104,454,l),
(106,438,l),
(99,422,l),
(96,406,l),
(88,398,l),
(86,384,l),
(80,365,l),
(77,350,l),
(75,332,l),
(74,314,l),
(79,307,l),
(72,292,l),
(69,270,l),
(76,258,l),
(69,243,l),
(75,223,l),
(75,214,l),
(77,192,l),
(65,185,l),
(79,167,l),
(81,149,l),
(72,142,l),
(86,122,l),
(82,111,l),
(85,98,l),
(85,84,l),
(91,66,l),
(106,52,l),
(101,42,l),
(111,33,l),
(125,12,l),
(126,1,l),
(129,-9,l),
(149,-13,l),
(154,-27,l),
(165,-36,l),
(167,-52,l),
(185,-58,l),
(203,-72,l),
(210,-69,l),
(234,-59,l),
(245,-47,l),
(251,-41,l),
(249,-28,l),
(251,-12,l),
(242,-3,l),
(231,6,l),
(227,17,l),
(208,29,l),
(203,44,l),
(208,56,l),
(188,62,l),
(195,83,l),
(191,94,l),
(189,112,l),
(171,123,l),
(173,134,l),
(165,146,l),
(171,162,l),
(177,184,l),
(165,194,l),
(166,211,l),
(168,222,l),
(164,241,l),
(174,254,l),
(169,270,l),
(175,284,l),
(182,307,l),
(181,323,l)
);
}
);
width = 331;
},
{
hints = (
{
horizontal = 1;
place = (-80,827);
type = Stem;
},
{
place = (17,100);
type = Stem;
}
);
layerId = m002;
shapes = (
{
closed = 1;
nodes = (
(235,345,l),
(238,362,l),
(234,379,l),
(244,396,l),
(243,409,l),
(249,440,l),
(254,460,l),
(264,473,l),
(273,491,l),
(271,498,l),
(281,514,l),
(294,528,l),
(302,541,l),
(312,571,l),
(321,581,l),
(332,601,l),
(354,608,l),
(371,624,l),
(388,636,l),
(415,655,l),
(425,667,l),
(432,683,l),
(419,693,l),
(428,708,l),
(414,723,l),
(415,735,l),
(410,751,l),
(394,768,l),
(391,780,l),
(380,783,l),
(354,791,l),
(328,785,l),
(324,787,l),
(300,772,l),
(277,764,l),
(271,754,l),
(255,746,l),
(243,734,l),
(232,724,l),
(211,713,l),
(198,696,l),
(188,692,l),
(185,677,l),
(168,660,l),
(163,646,l),
(152,637,l),
(136,615,l),
(128,593,l),
(121,583,l),
(103,568,l),
(102,554,l),
(86,539,l),
(87,527,l),
(78,501,l),
(73,488,l),
(53,456,l),
(51,443,l),
(56,429,l),
(40,413,l),
(39,398,l),
(31,382,l),
(38,366,l),
(26,353,l),
(34,317,l),
(26,300,l),
(16,289,l),
(25,273,l),
(23,243,l),
(21,225,l),
(26,213,l),
(19,202,l),
(20,180,l),
(29,165,l),
(23,149,l),
(25,121,l),
(35,108,l),
(31,85,l),
(35,64,l),
(48,52,l),
(49,27,l),
(67,13,l),
(80,-5,l),
(86,-20,l),
(83,-29,l),
(112,-53,l),
(119,-71,l),
(134,-85,l),
(142,-100,l),
(159,-106,l),
(178,-123,l),
(195,-126,l),
(211,-128,l),
(217,-119,l),
(233,-120,l),
(248,-112,l),
(265,-98,l),
(274,-87,l),
(280,-72,l),
(296,-55,l),
(306,-23,l),
(302,-11,l),
(310,3,l),
(294,19,l),
(292,30,l),
(264,51,l),
(251,73,l),
(243,80,l),
(241,97,l),
(230,108,l),
(235,124,l),
(227,150,l),
(224,172,l),
(224,185,l),
(212,195,l),
(220,208,l),
(221,230,l),
(216,255,l),
(216,276,l),
(228,306,l),
(220,321,l)
);
}
);
width = 367;
},
{
hints = (
{
horizontal = 1;
place = (-80,827);
type = Stem;
},
{
place = (17,100);
type = Stem;
}
);
layerId = m003;
shapes = (
{
closed = 1;
nodes = (
(171,341,l),
(171,353,l),
(177,359,l),
(177,380,l),
(174,393,l),
(188,410,l),
(186,427,l),
(184,441,l),
(187,455,l),
(202,472,l),
(208,479,l),
(215,500,l),
(221,515,l),
(229,525,l),
(234,541,l),
(237,553,l),
(246,566,l),
(247,583,l),
(268,600,l),
(266,608,l),
(281,621,l),
(285,636,l),
(295,640,l),
(314,660,l),
(319,666,l),
(332,672,l),
(345,685,l),
(361,700,l),
(357,713,l),
(351,728,l),
(326,731,l),
(305,718,l),
(296,702,l),
(276,696,l),
(248,672,l),
(239,661,l),
(231,652,l),
(225,647,l),
(219,632,l),
(204,616,l),
(198,609,l),
(182,587,l),
(179,580,l),
(167,563,l),
(160,555,l),
(149,536,l),
(138,521,l),
(134,505,l),
(128,494,l),
(131,480,l),
(125,464,l),
(112,447,l),
(113,437,l),
(109,423,l),
(102,403,l),
(99,393,l),
(100,375,l),
(97,366,l),
(85,350,l),
(86,338,l),
(88,321,l),
(79,300,l),
(75,289,l),
(73,277,l),
(83,259,l),
(71,245,l),
(80,231,l),
(72,214,l),
(72,200,l),
(77,187,l),
(79,169,l),
(87,155,l),
(89,146,l),
(81,133,l),
(90,115,l),
(94,105,l),
(99,86,l),
(107,76,l),
(106,65,l),
(115,52,l),
(114,37,l),
(132,24,l),
(135,11,l),
(135,-3,l),
(153,-15,l),
(163,-18,l),
(167,-27,l),
(173,-38,l),
(180,-47,l),
(193,-54,l),
(205,-61,l),
(216,-58,l),
(239,-42,l),
(235,-30,l),
(240,-24,l),
(227,-14,l),
(215,-5,l),
(209,5,l),
(197,21,l),
(201,32,l),
(187,46,l),
(184,61,l),
(174,71,l),
(180,82,l),
(174,100,l),
(173,110,l),
(158,127,l),
(163,137,l),
(153,155,l),
(160,165,l),
(154,185,l),
(160,195,l),
(148,210,l),
(160,223,l),
(161,239,l),
(160,261,l),
(160,271,l),
(163,292,l),
(161,307,l),
(170,321,l)
);
}
);
width = 326;
}
);
metricLeft = "=n";
metricRight = "=n/2";
note = parenleft;
unicode = 40;
userData = {
KernOnSpecialSpacing = {
R = parenthesis;
};
};
}
{
glyphname = parenright;
kernLeft = KO_parenright;
kernRight = KO_parenright;
layers = (
{
hints = (
{
horizontal = 1;
origin = (0,119);
place = (323,827);
type = Stem;
},
{
origin = (0,119);
place = (171,100);
type = Stem;
}
);
layerId = m005;
shapes = (
{
closed = 1;
nodes = (
(165,307,l),
(165,284,l),
(167,270,l),
(156,254,l),
(162,241,l),
(152,222,l),
(151,211,l),
(146,194,l),
(131,184,l),
(130,162,l),
(131,146,l),
(119,134,l),
(118,123,l),
(96,112,l),
(89,94,l),
(81,83,l),
(82,62,l),
(60,56,l),
(61,44,l),
(51,29,l),
(28,17,l),
(21,6,l),
(7,-3,l),
(-5,-12,l),
(-8,-28,l),
(-14,-41,l),
(-10,-47,l),
(-3,-59,l),
(18,-69,l),
(24,-72,l),
(47,-58,l),
(67,-52,l),
(74,-36,l),
(87,-27,l),
(97,-13,l),
(118,-9,l),
(124,1,l),
(129,12,l),
(149,33,l),
(162,42,l),
(160,52,l),
(180,66,l),
(192,84,l),
(196,98,l),
(203,111,l),
(203,122,l),
(223,142,l),
(216,149,l),
(224,167,l),
(244,185,l),
(234,192,l),
(243,214,l),
(246,223,l),
(258,243,l),
(256,258,l),
(267,270,l),
(270,292,l),
(268,307,l),
(275,314,l),
(280,332,l),
(284,350,l),
(286,365,l),
(286,384,l),
(288,398,l),
(283,406,l),
(285,422,l),
(283,438,l),
(290,454,l),
(288,473,l),
(276,482,l),
(289,502,l),
(277,517,l),
(273,527,l),
(273,542,l),
(270,552,l),
(269,568,l),
(260,581,l),
(267,600,l),
(258,613,l),
(254,625,l),
(238,640,l),
(236,645,l),
(227,661,l),
(218,672,l),
(218,680,l),
(210,691,l),
(192,706,l),
(178,712,l),
(169,720,l),
(146,739,l),
(136,736,l),
(118,733,l),
(113,721,l),
(102,702,l),
(100,688,l),
(121,665,l),
(122,654,l),
(133,644,l),
(141,640,l),
(157,627,l),
(148,609,l),
(158,602,l),
(169,585,l),
(167,573,l),
(172,563,l),
(181,543,l),
(180,530,l),
(177,517,l),
(190,505,l),
(182,483,l),
(190,472,l),
(183,451,l),
(190,440,l),
(180,426,l),
(191,415,l),
(187,393,l),
(177,375,l),
(176,363,l),
(182,347,l),
(171,323,l)
);
}
);
width = 331;
},
{
hints = (
{
horizontal = 1;
origin = (0,119);
place = (321,827);
type = Stem;
},
{
origin = (0,119);
place = (172,100);
type = Stem;
}
);
layerId = m002;
shapes = (
{
closed = 1;
nodes = (
(159,306,l),
(161,276,l),
(155,255,l),
(142,230,l),
(136,208,l),
(140,195,l),
(125,185,l),
(120,172,l),
(111,150,l),
(94,124,l),
(94,108,l),
(80,97,l),
(72,80,l),
(62,73,l),
(42,51,l),
(8,30,l),
(2,19,l),
(-19,3,l),
(-15,-11,l),
(-23,-23,l),
(-23,-55,l),
(-13,-72,l),
(-12,-87,l),
(-6,-98,l),
(7,-112,l),
(19,-120,l),
(35,-119,l),
(38,-128,l),
(55,-126,l),
(73,-123,l),
(97,-106,l),
(116,-100,l),
(129,-85,l),
(149,-71,l),
(161,-53,l),
(198,-29,l),
(198,-20,l),
(208,-5,l),
(227,13,l),
(250,27,l),
(258,52,l),
(275,64,l),
(286,85,l),
(289,108,l),
(303,121,l),
(314,149,l),
(313,165,l),
(327,180,l),
(335,202,l),
(331,213,l),
(340,225,l),
(344,243,l),
(351,273,l),
(366,289,l),
(359,300,l),
(356,317,l),
(376,353,l),
(368,366,l),
(380,382,l),
(377,398,l),
(381,413,l),
(370,429,l),
(379,443,l),
(381,456,l),
(372,488,l),
(371,501,l),
(370,527,l),
(375,539,l),
(363,554,l),
(367,568,l),
(354,583,l),
(350,593,l),
(349,615,l),
(340,637,l),
(332,646,l),
(331,660,l),
(319,677,l),
(321,692,l),
(312,696,l),
(305,713,l),
(287,724,l),
(280,734,l),
(271,746,l),
(258,754,l),
(255,764,l),
(235,772,l),
(215,787,l),
(211,785,l),
(187,791,l),
(158,783,l),
(146,780,l),
(139,768,l),
(118,751,l),
(108,735,l),
(105,723,l),
(86,708,l),
(91,693,l),
(74,683,l),
(76,667,l),
(82,655,l),
(103,636,l),
(117,624,l),
(129,608,l),
(148,601,l),
(153,581,l),
(159,571,l),
(159,541,l),
(163,528,l),
(172,514,l),
(177,498,l),
(173,491,l),
(176,473,l),
(182,460,l),
(180,440,l),
(177,409,l),
(171,396,l),
(176,379,l),
(167,362,l),
(164,345,l),
(172,321,l)
);
}
);
width = 368;
},
{
hints = (
{
horizontal = 1;
origin = (0,119);
place = (321,827);
type = Stem;
},
{
origin = (0,119);
place = (177,100);
type = Stem;
}
);
layerId = m003;
shapes = (
{
closed = 1;
nodes = (
(181,307,l),
(174,292,l),
(171,271,l),
(168,261,l),
(160,239,l),
(156,223,l),
(164,210,l),
(147,195,l),
(150,185,l),
(137,165,l),
(141,155,l),
(125,137,l),
(127,127,l),
(107,110,l),
(103,100,l),
(91,82,l),
(93,71,l),
(80,61,l),
(73,46,l),
(54,32,l),
(55,21,l),
(38,5,l),
(28,-5,l),
(14,-14,l),
(-3,-24,l),
(0,-30,l),
(-7,-42,l),
(11,-58,l),
(21,-61,l),
(35,-54,l),
(50,-47,l),
(60,-38,l),
(69,-27,l),
(76,-18,l),
(87,-15,l),
(109,-3,l),
(113,11,l),
(121,24,l),
(143,37,l),
(146,52,l),
(160,65,l),
(162,76,l),
(173,86,l),
(184,105,l),
(191,115,l),
(206,133,l),
(202,146,l),
(207,155,l),
(220,169,l),
(227,187,l),
(236,200,l),
(241,214,l),
(238,231,l),
(252,245,l),
(244,259,l),
(260,277,l),
(262,289,l),
(261,300,l),
(259,321,l),
(266,338,l),
(271,350,l),
(264,366,l),
(264,375,l),
(270,393,l),
(271,403,l),
(270,423,l),
(270,437,l),
(275,447,l),
(267,464,l),
(266,480,l),
(273,494,l),
(271,505,l),
(272,521,l),
(266,536,l),
(261,555,l),
(256,563,l),
(250,580,l),
(249,587,l),
(240,609,l),
(236,616,l),
(226,632,l),
(225,647,l),
(221,652,l),
(215,661,l),
(210,672,l),
(189,696,l),
(171,702,l),
(167,718,l),
(151,731,l),
(125,728,l),
(114,713,l),
(106,700,l),
(117,685,l),
(126,672,l),
(137,666,l),
(140,660,l),
(153,640,l),
(161,636,l),
(161,621,l),
(172,608,l),
(167,600,l),
(183,583,l),
(178,566,l),
(183,553,l),
(182,541,l),
(182,525,l),
(187,515,l),
(188,500,l),
(189,479,l),
(193,472,l),
(202,455,l),
(201,441,l),
(194,427,l),
(187,410,l),
(195,393,l),
(188,380,l),
(182,359,l),
(186,353,l),
(182,341,l),
(177,321,l)
);
}
);
width = 327;
}
);
metricLeft = "=n/2";
metricRight = "=n";
unicode = 41;
userData = {
KernOnSpecialSpacing = {
L = parenthesis;
};
};
}
{
glyphname = asterisk;
kernLeft = KO_asterisk;
layers = (
{
hints = (
{
horizontal = 1;
place = (350,400);
type = Stem;
},
{
place = (156,65);
type = Stem;
}
);
layerId = m005;
shapes = (
{
closed = 1;
nodes = (
(236,354,l),
(254,362,l),
(263,375,l),
(262,393,l),
(260,405,l),
(272,425,l),
(272,442,l),
(294,436,l),
(299,426,l),
(316,422,l),
(331,412,l),
(347,411,l),
(362,422,l),
(380,447,l),
(388,461,l),
(388,480,l),
(382,493,l),
(368,511,l),
(350,512,l),
(343,524,l),
(338,532,l),
(355,542,l),
(368,550,l),
(382,560,l),
(392,568,l),
(404,579,l),
(412,587,l),
(408,598,l),
(406,629,l),
(394,631,l),
(383,636,l),
(372,641,l),
(355,633,l),
(340,627,l),
(334,614,l),
(317,610,l),
(297,596,l),
(294,608,l),
(291,621,l),
(294,631,l),
(304,652,l),
(295,679,l),
(299,686,l),
(285,695,l),
(252,694,l),
(235,690,l),
(223,687,l),
(215,671,l),
(215,649,l),
(216,632,l),
(205,617,l),
(206,610,l),
(207,595,l),
(195,604,l),
(188,609,l),
(175,613,l),
(166,619,l),
(144,631,l),
(127,628,l),
(120,628,l),
(100,596,l),
(98,578,l),
(101,569,l),
(128,551,l),
(136,549,l),
(147,534,l),
(154,522,l),
(146,512,l),
(126,501,l),
(112,492,l),
(97,486,l),
(79,478,l),
(75,469,l),
(79,453,l),
(80,428,l),
(95,416,l),
(109,409,l),
(125,415,l),
(138,419,l),
(151,432,l),
(158,441,l),
(174,443,l),
(184,425,l),
(178,415,l),
(170,402,l),
(172,392,l),
(176,379,l),
(175,360,l),
(182,360,l),
(201,349,l)
);
}
);
width = 399;
},
{
hints = (
{
horizontal = 1;
place = (350,400);
type = Stem;
},
{
place = (156,65);
type = Stem;
}
);
layerId = m002;
shapes = (
{
closed = 1;
nodes = (
(197,327,l),
(216,325,l),
(228,325,l),
(240,339,l),
(262,347,l),
(268,359,l),
(275,376,l),
(285,389,l),
(289,401,l),
(301,394,l),
(313,382,l),
(327,381,l),
(334,388,l),
(346,392,l),
(363,405,l),
(374,413,l),
(394,435,l),
(408,454,l),
(409,468,l),
(410,487,l),
(405,502,l),
(378,525,l),
(374,533,l),
(373,541,l),
(402,548,l),
(412,555,l),
(415,570,l),
(425,587,l),
(425,601,l),
(429,611,l),
(414,640,l),
(411,644,l),
(397,655,l),
(386,667,l),
(373,665,l),
(345,660,l),
(332,651,l),
(314,649,l),
(320,661,l),
(310,679,l),
(313,694,l),
(307,701,l),
(302,718,l),
(286,724,l),
(270,720,l),
(240,718,l),
(238,720,l),
(221,713,l),
(203,705,l),
(184,693,l),
(183,673,l),
(174,656,l),
(174,641,l),
(167,649,l),
(155,649,l),
(142,658,l),
(131,661,l),
(105,654,l),
(92,642,l),
(86,633,l),
(59,608,l),
(55,595,l),
(64,584,l),
(60,575,l),
(71,557,l),
(70,549,l),
(85,530,l),
(107,525,l),
(84,517,l),
(67,503,l),
(59,489,l),
(50,481,l),
(43,463,l),
(37,447,l),
(35,440,l),
(45,412,l),
(62,401,l),
(71,388,l),
(86,380,l),
(90,386,l),
(111,382,l),
(124,393,l),
(141,402,l),
(134,394,l),
(130,372,l),
(136,361,l),
(142,350,l),
(154,332,l),
(166,334,l),
(185,328,l)
);
}
);
width = 376;
},
{
hints = (
{
horizontal = 1;
place = (350,400);
type = Stem;
},
{
place = (156,65);
type = Stem;
}
);
layerId = m003;
shapes = (
{
closed = 1;
nodes = (
(233,349,l),
(253,359,l),
(268,391,l),
(260,404,l),
(268,418,l),
(275,429,l),
(266,442,l),
(280,464,l),
(293,459,l),
(305,443,l),
(309,441,l),
(326,428,l),
(336,421,l),
(359,406,l),
(373,423,l),
(398,440,l),
(401,459,l),
(394,475,l),
(370,489,l),
(364,491,l),
(350,502,l),
(345,511,l),
(331,521,l),
(312,523,l),
(330,543,l),
(348,543,l),
(363,553,l),
(375,564,l),
(388,573,l),
(407,589,l),
(424,605,l),
(409,634,l),
(396,635,l),
(378,634,l),
(363,620,l),
(350,609,l),
(328,610,l),
(308,594,l),
(294,584,l),
(289,603,l),
(290,616,l),
(300,630,l),
(293,638,l),
(304,654,l),
(300,682,l),
(295,698,l),
(255,698,l),
(241,691,l),
(235,659,l),
(241,641,l),
(237,626,l),
(227,616,l),
(230,596,l),
(220,581,l),
(217,593,l),
(196,601,l),
(188,605,l),
(167,608,l),
(170,624,l),
(140,635,l),
(122,628,l),
(99,598,l),
(108,593,l),
(130,568,l),
(143,565,l),
(154,557,l),
(156,551,l),
(175,539,l),
(192,524,l),
(184,514,l),
(171,507,l),
(153,502,l),
(140,486,l),
(121,483,l),
(109,481,l),
(83,457,l),
(84,445,l),
(85,417,l),
(97,406,l),
(131,425,l),
(153,433,l),
(167,441,l),
(189,459,l),
(205,467,l),
(203,452,l),
(200,434,l),
(199,416,l),
(193,393,l),
(188,365,l),
(200,356,l)
);
}
);
width = 412;
}
);
metricLeft = "=period";
metricRight = period;
note = asterisk;
unicode = 42;
userData = {
KernOnSpecialSpacing = {
L = quotes;
R = quotes;
};
};
}
{
glyphname = plus;
kernLeft = KO_plus;
kernRight = KO_plus;
layers = (
{
hints = (
{
horizontal = 1;
place = (218,65);
type = Stem;
},
{
place = (208,65);
type = Stem;
}
);
layerId = m005;
shapes = (
{
closed = 1;
nodes = (
(264,50,l),
(279,54,l),
(295,62,l),
(308,64,l),
(312,100,l),
(311,114,l),
(316,125,l),
(316,142,l),
(314,165,l),
(322,175,l),
(331,192,l),
(323,216,l),
(355,217,l),
(371,220,l),
(388,215,l),
(405,219,l),
(420,216,l),
(424,214,l),
(438,208,l),
(457,211,l),
(477,215,l),
(481,217,l),
(502,235,l),
(498,255,l),
(496,269,l),
(481,276,l),
(450,284,l),
(441,278,l),
(425,280,l),
(415,286,l),
(388,280,l),
(376,287,l),
(368,282,l),
(339,289,l),
(347,307,l),
(341,328,l),
(352,338,l),
(360,352,l),
(358,373,l),
(359,391,l),
(359,400,l),
(367,433,l),
(352,438,l),
(347,448,l),
(325,452,l),
(309,447,l),
(313,436,l),
(295,398,l),
(296,384,l),
(297,375,l),
(281,359,l),
(279,340,l),
(283,324,l),
(273,311,l),
(264,281,l),
(249,278,l),
(229,280,l),
(220,281,l),
(197,278,l),
(181,285,l),
(157,285,l),
(112,274,l),
(104,266,l),
(97,248,l),
(98,240,l),
(107,221,l),
(116,213,l),
(147,207,l),
(160,210,l),
(172,207,l),
(196,215,l),
(211,214,l),
(214,216,l),
(243,215,l),
(261,219,l),
(263,193,l),
(255,173,l),
(244,164,l),
(251,141,l),
(235,129,l),
(241,114,l),
(236,100,l),
(230,72,l),
(248,62,l),
(248,47,l)
);
}
);
width = 600;
},
{
hints = (
{
horizontal = 1;
place = (218,65);
type = Stem;
},
{
place = (209,65);
type = Stem;
}
);
layerId = m002;
shapes = (
{
closed = 1;
nodes = (
(299,30,l),
(308,41,l),
(315,43,l),
(331,59,l),
(338,70,l),
(344,108,l),
(345,123,l),
(335,135,l),
(345,171,l),
(349,186,l),
(390,192,l),
(409,190,l),
(424,192,l),
(433,182,l),
(466,184,l),
(480,183,l),
(495,199,l),
(508,212,l),
(519,217,l),
(515,238,l),
(524,253,l),
(530,270,l),
(520,277,l),
(510,296,l),
(496,303,l),
(458,306,l),
(442,305,l),
(423,303,l),
(414,311,l),
(392,309,l),
(366,308,l),
(378,328,l),
(381,350,l),
(376,361,l),
(384,377,l),
(382,387,l),
(399,406,l),
(395,431,l),
(384,445,l),
(385,459,l),
(376,463,l),
(364,470,l),
(349,469,l),
(339,476,l),
(316,477,l),
(309,467,l),
(286,448,l),
(278,438,l),
(274,410,l),
(279,396,l),
(264,376,l),
(265,359,l),
(257,346,l),
(261,329,l),
(243,311,l),
(230,304,l),
(208,308,l),
(194,303,l),
(169,307,l),
(148,303,l),
(115,298,l),
(102,287,l),
(88,279,l),
(76,268,l),
(75,255,l),
(71,233,l),
(82,226,l),
(75,206,l),
(92,189,l),
(112,187,l),
(142,182,l),
(171,183,l),
(173,191,l),
(203,193,l),
(231,193,l),
(231,170,l),
(221,143,l),
(218,106,l),
(208,95,l),
(205,63,l),
(205,51,l),
(213,45,l),
(223,31,l),
(263,28,l),
(274,21,l)
);
}
);
width = 600;
},
{
hints = (
{
horizontal = 1;
place = (218,65);
type = Stem;
},
{
place = (208,65);
type = Stem;
}
);
layerId = m003;
shapes = (
{
closed = 1;
nodes = (
(289,57,l),
(305,67,l),
(308,93,l),
(305,107,l),
(302,127,l),
(306,143,l),
(309,154,l),
(313,174,l),
(315,189,l),
(322,205,l),
(317,228,l),
(340,225,l),
(361,231,l),
(373,226,l),
(396,231,l),
(408,226,l),
(422,221,l),
(431,220,l),
(444,223,l),
(482,228,l),
(482,238,l),
(490,248,l),
(488,271,l),
(459,274,l),
(436,272,l),
(424,276,l),
(409,277,l),
(397,271,l),
(376,273,l),
(359,277,l),
(355,271,l),
(330,278,l),
(324,295,l),
(336,309,l),
(332,327,l),
(349,343,l),
(339,356,l),
(353,373,l),
(353,383,l),
(362,406,l),
(356,432,l),
(339,434,l),
(324,444,l),
(325,432,l),
(315,397,l),
(309,387,l),
(305,371,l),
(294,353,l),
(293,342,l),
(292,322,l),
(289,312,l),
(282,299,l),
(282,272,l),
(265,274,l),
(237,269,l),
(234,270,l),
(212,271,l),
(198,268,l),
(179,270,l),
(160,271,l),
(153,277,l),
(124,266,l),
(109,255,l),
(107,236,l),
(108,222,l),
(138,221,l),
(163,215,l),
(176,217,l),
(186,220,l),
(210,223,l),
(224,223,l),
(238,230,l),
(251,225,l),
(266,228,l),
(269,208,l),
(267,186,l),
(263,173,l),
(263,158,l),
(256,145,l),
(244,131,l),
(247,116,l),
(245,94,l),
(240,73,l),
(262,66,l),
(266,56,l)
);
}
);
width = 600;
}
);
note = plus;
unicode = 43;
userData = {
KernOnSpecialSpacing = {
L = math;
R = math;
};
};
}
{
glyphname = comma;
kernLeft = KO_comma;
kernRight = KO_comma;
layers = (
{
hints = (
{
horizontal = 1;
place = (-150,35);
type = Stem;
},
{
horizontal = 1;
place = (-5,120);
type = Stem;
},
{
place = (126,51);
type = Stem;
},
{
horizontal = 1;
place = (-5,120);
type = Stem;
},
{
place = (46,121);
type = Stem;
}
);
layerId = m005;
shapes = (
{
closed = 1;
nodes = (
(63,-5,l),
(76,-4,l),
(83,-14,l),
(79,-31,l),
(81,-51,l),
(72,-68,l),
(66,-73,l),
(49,-86,l),
(14,-93,l),
(5,-99,l),
(-5,-121,l),
(3,-136,l),
(13,-147,l),
(34,-144,l),
(56,-136,l),
(67,-135,l),
(90,-127,l),
(96,-115,l),
(106,-102,l),
(128,-92,l),
(126,-74,l),
(141,-65,l),
(149,-49,l),
(155,-29,l),
(151,-16,l),
(156,15,l),
(161,29,l),
(159,48,l),
(150,57,l),
(157,77,l),
(153,85,l),
(144,95,l),
(138,107,l),
(129,122,l),
(124,122,l),
(124,124,l),
(111,129,l),
(90,130,l),
(77,131,l),
(60,120,l),
(50,117,l),
(28,103,l),
(15,92,l),
(21,78,l),
(14,45,l),
(18,27,l),
(18,19,l),
(25,8,l),
(36,0,l),
(46,-6,l)
);
}
);
width = 239;
},
{
hints = (
{
horizontal = 1;
place = (-150,35);
type = Stem;
},
{
horizontal = 1;
place = (-5,120);
type = Stem;
},
{
place = (123,51);
type = Stem;
},
{
horizontal = 1;
place = (-5,120);
type = Stem;
},
{
place = (43,121);
type = Stem;
}
);
layerId = m002;
shapes = (
{
closed = 1;
nodes = (
(3,-14,l),
(33,-22,l),
(56,-23,l),
(56,-32,l),
(51,-54,l),
(19,-54,l),
(9,-64,l),
(-16,-76,l),
(-20,-89,l),
(-36,-108,l),
(-36,-121,l),
(-44,-141,l),
(-35,-149,l),
(-31,-157,l),
(-11,-160,l),
(38,-160,l),
(87,-138,l),
(91,-131,l),
(111,-117,l),
(133,-105,l),
(138,-87,l),
(156,-73,l),
(166,-46,l),
(187,-34,l),
(179,-20,l),
(196,27,l),
(213,47,l),
(208,61,l),
(204,69,l),
(214,83,l),
(205,104,l),
(201,118,l),
(202,141,l),
(193,147,l),
(186,172,l),
(173,178,l),
(146,182,l),
(142,186,l),
(135,181,l),
(99,177,l),
(88,178,l),
(47,158,l),
(32,144,l),
(20,139,l),
(11,124,l),
(-5,113,l),
(-8,91,l),
(-29,66,l),
(-25,27,l),
(-15,-5,l)
);
}
);
width = 245;
},
{
hints = (
{
horizontal = 1;
place = (-150,35);
type = Stem;
},
{
horizontal = 1;
place = (-5,120);
type = Stem;
},
{
place = (128,51);
type = Stem;
},
{
horizontal = 1;
place = (-5,120);
type = Stem;
},
{
place = (48,121);
type = Stem;
}
);
layerId = m003;
shapes = (
{
closed = 1;
nodes = (
(73,-9,l),
(76,-9,l),
(76,-17,l),
(80,-23,l),
(77,-57,l),
(67,-71,l),
(61,-77,l),
(51,-83,l),
(37,-87,l),
(11,-94,l),
(3,-99,l),
(-4,-124,l),
(1,-137,l),
(6,-147,l),
(23,-145,l),
(35,-144,l),
(50,-142,l),
(75,-131,l),
(82,-126,l),
(98,-114,l),
(105,-98,l),
(117,-86,l),
(123,-77,l),
(133,-65,l),
(149,-45,l),
(153,-36,l),
(148,-16,l),
(156,-1,l),
(163,11,l),
(163,34,l),
(157,48,l),
(148,59,l),
(149,73,l),
(137,88,l),
(122,93,l),
(112,106,l),
(103,104,l),
(87,107,l),
(69,109,l),
(60,103,l),
(35,92,l),
(37,79,l),
(19,69,l),
(14,51,l),
(9,32,l),
(17,18,l),
(27,7,l),
(34,1,l),
(48,-8,l),
(63,-8,l)
);
}
);
width = 245;
}
);
note = comma;
unicode = 44;
userData = {
KernOnSpecialSpacing = {
L = period;
R = period;
};
};
}
{
glyphname = hyphen;
kernLeft = KO_hyphen;
kernRight = KO_hyphen;
layers = (
{
hints = (
{
horizontal = 1;
place = (-75,64);
type = Stem;
},
{
place = (39,400);
type = Stem;
}
);
layerId = m005;
shapes = (
{
closed = 1;
nodes = (
(366,256,l),
(360,267,l),
(362,284,l),
(352,298,l),
(353,306,l),
(319,304,l),
(307,306,l),
(285,296,l),
(280,301,l),
(258,295,l),
(249,297,l),
(235,300,l),
(218,300,l),
(193,294,l),
(185,294,l),
(168,299,l),
(160,297,l),
(142,297,l),
(128,299,l),
(87,289,l),
(77,284,l),
(75,268,l),
(67,254,l),
(59,238,l),
(76,218,l),
(83,211,l),
(108,210,l),
(122,207,l),
(147,207,l),
(159,208,l),
(172,209,l),
(194,216,l),
(195,211,l),
(214,218,l),
(232,217,l),
(239,216,l),
(259,210,l),
(273,214,l),
(296,211,l),
(307,210,l),
(329,214,l),
(358,229,l),
(354,242,l)
);
}
);
width = 428;
},
{
hints = (
{
horizontal = 1;
place = (-75,64);
type = Stem;
},
{
place = (40,400);
type = Stem;
}
);
layerId = m002;
shapes = (
{
closed = 1;
nodes = (
(409,254,l),
(417,276,l),
(413,287,l),
(410,303,l),
(410,319,l),
(403,327,l),
(405,338,l),
(382,347,l),
(379,352,l),
(357,359,l),
(327,349,l),
(310,356,l),
(300,348,l),
(287,349,l),
(275,349,l),
(255,345,l),
(241,350,l),
(220,341,l),
(199,343,l),
(191,344,l),
(180,348,l),
(167,345,l),
(140,342,l),
(131,344,l),
(99,345,l),
(87,345,l),
(64,336,l),
(60,323,l),
(36,322,l),
(27,308,l),
(27,288,l),
(16,278,l),
(21,255,l),
(7,231,l),
(11,221,l),
(15,201,l),
(14,188,l),
(28,184,l),
(33,169,l),
(49,160,l),
(57,161,l),
(74,152,l),
(97,154,l),
(113,160,l),
(124,157,l),
(143,164,l),
(159,160,l),
(171,164,l),
(200,163,l),
(207,159,l),
(228,161,l),
(244,168,l),
(263,166,l),
(265,167,l),
(282,160,l),
(303,168,l),
(328,166,l),
(347,171,l),
(356,175,l),
(380,178,l),
(385,191,l),
(397,205,l),
(413,221,l),
(413,238,l)
);
}
);
width = 426;
},
{
hints = (
{
horizontal = 1;
place = (-75,64);
type = Stem;
},
{
place = (40,400);
type = Stem;
}
);
layerId = m003;
shapes = (
{
closed = 1;
nodes = (
(357,255,l),
(349,266,l),
(347,280,l),
(341,289,l),
(310,296,l),
(296,292,l),
(283,286,l),
(278,288,l),
(263,289,l),
(237,291,l),
(223,283,l),
(216,290,l),
(202,287,l),
(176,287,l),
(169,288,l),
(151,289,l),
(129,280,l),
(117,287,l),
(92,287,l),
(73,276,l),
(72,259,l),
(76,243,l),
(72,223,l),
(90,222,l),
(116,217,l),
(132,215,l),
(134,220,l),
(152,221,l),
(173,221,l),
(190,221,l),
(196,218,l),
(223,228,l),
(234,228,l),
(251,224,l),
(253,221,l),
(278,229,l),
(284,221,l),
(302,221,l),
(340,225,l),
(344,235,l)
);
}
);
width = 427;
},
{
hints = (
{
horizontal = 1;
place = (-75,64);
type = Stem;
},
{
place = (40,400);
type = Stem;
}
);
layerId = "27802CB9-B49D-4E25-883A-F5F5DC48409B";
shapes = (
{
closed = 1;
nodes = (
(379,250,l),
(375,267,l),
(375,283,l),
(363,296,l),
(360,305,l),
(352,315,l),
(314,308,l),
(306,307,l),
(299,314,l),
(267,308,l),
(243,302,l),
(228,310,l),
(221,310,l),
(207,304,l),
(186,308,l),
(168,306,l),
(154,307,l),
(139,301,l),
(130,307,l),
(90,299,l),
(76,300,l),
(67,291,l),
(61,269,l),
(54,258,l),
(50,242,l),
(54,228,l),
(54,214,l),
(65,205,l),
(78,199,l),
(108,192,l),
(130,202,l),
(136,204,l),
(149,198,l),
(164,200,l),
(177,206,l),
(206,203,l),
(215,206,l),
(237,208,l),
(238,204,l),
(266,201,l),
(267,205,l),
(294,206,l),
(297,201,l),
(333,205,l),
(354,217,l),
(359,219,l),
(369,238,l)
);
}
);
width = 433;
},
{
hints = (
{
horizontal = 1;
place = (-75,64);
type = Stem;
},
{
place = (40,400);
type = Stem;
}
);
layerId = "9BFA4F56-4850-48F5-A038-9DAB9408749E";
shapes = (
{
closed = 1;
nodes = (
(378,251,l),
(391,271,l),
(387,289,l),
(381,302,l),
(372,311,l),
(369,315,l),
(344,326,l),
(318,320,l),
(306,319,l),
(297,316,l),
(273,322,l),
(255,318,l),
(239,320,l),
(224,316,l),
(211,319,l),
(201,318,l),
(192,319,l),
(165,319,l),
(151,316,l),
(139,319,l),
(130,316,l),
(94,316,l),
(79,305,l),
(62,300,l),
(57,292,l),
(44,272,l),
(41,256,l),
(39,241,l),
(45,224,l),
(49,205,l),
(49,201,l),
(58,189,l),
(79,182,l),
(100,189,l),
(125,185,l),
(135,185,l),
(155,186,l),
(158,188,l),
(184,190,l),
(203,195,l),
(212,197,l),
(231,192,l),
(242,193,l),
(259,191,l),
(272,196,l),
(287,194,l),
(306,192,l),
(337,193,l),
(340,200,l),
(355,209,l),
(367,217,l),
(373,238,l)
);
}
);
width = 429;
},
{
hints = (
{
horizontal = 1;
place = (-75,64);
type = Stem;
},
{
place = (40,400);
type = Stem;
}
);
layerId = "B734896E-9115-4752-AF37-164D25EC5193";
shapes = (
{
closed = 1;
nodes = (
(396,254,l),
(398,272,l),
(398,287,l),
(399,299,l),
(383,316,l),
(383,323,l),
(364,329,l),
(351,330,l),
(320,336,l),
(312,332,l),
(293,325,l),
(283,326,l),
(270,326,l),
(242,325,l),
(226,324,l),
(215,327,l),
(202,328,l),
(186,323,l),
(176,328,l),
(158,324,l),
(137,323,l),
(135,329,l),
(96,328,l),
(79,316,l),
(66,314,l),
(49,302,l),
(45,288,l),
(39,275,l),
(40,255,l),
(31,232,l),
(26,223,l),
(35,212,l),
(42,197,l),
(48,188,l),
(59,182,l),
(74,175,l),
(106,176,l),
(116,175,l),
(135,181,l),
(152,178,l),
(161,181,l),
(177,181,l),
(202,186,l),
(208,187,l),
(222,182,l),
(242,184,l),
(264,184,l),
(274,185,l),
(282,186,l),
(298,180,l),
(333,188,l),
(341,187,l),
(359,194,l),
(381,210,l),
(386,218,l),
(395,234,l)
);
}
);
width = 430;
},
{
hints = (
{
horizontal = 1;
place = (-75,64);
type = Stem;
},
{
place = (40,400);
type = Stem;
}
);
layerId = "FC6EA5DF-75BF-4555-8471-DBE331F6C0F3";
shapes = (
{
closed = 1;
nodes = (
(400,254,l),
(411,270,l),
(402,285,l),
(406,304,l),
(407,318,l),
(389,330,l),
(391,337,l),
(371,347,l),
(361,348,l),
(332,344,l),
(316,344,l),
(300,342,l),
(282,340,l),
(265,336,l),
(251,335,l),
(233,332,l),
(227,337,l),
(207,336,l),
(183,330,l),
(170,333,l),
(162,334,l),
(144,337,l),
(137,337,l),
(92,333,l),
(86,329,l),
(67,323,l),
(48,313,l),
(42,302,l),
(40,286,l),
(28,278,l),
(20,250,l),
(22,236,l),
(31,218,l),
(30,212,l),
(33,194,l),
(32,181,l),
(46,174,l),
(61,163,l),
(75,169,l),
(106,163,l),
(118,170,l),
(132,169,l),
(149,174,l),
(162,169,l),
(176,169,l),
(199,173,l),
(205,171,l),
(229,171,l),
(239,173,l),
(257,178,l),
(274,175,l),
(289,170,l),
(296,176,l),
(341,178,l),
(344,183,l),
(370,189,l),
(381,194,l),
(394,201,l),
(390,221,l),
(400,235,l)
);
}
);
width = 432;
}
);
metricLeft = "=n";
metricRight = "=n";
note = underscore;
unicode = 45;
userData = {
KernOnName = hyphen;
KernOnSpecialSpacing = {
L = hyphen;
R = hyphen;
};
};
}
{
glyphname = period;
kernLeft = KO_period;
kernRight = KO_period;
layers = (
{
hints = (
{
horizontal = 1;
place = (-5,120);
type = Stem;
},
{
place = (35,121);
type = Stem;
}
);
layerId = m005;
shapes = (
{
closed = 1;
nodes = (
(63,-5,l),
(86,-4,l),
(98,-3,l),
(121,6,l),
(126,18,l),
(133,24,l),
(138,39,l),
(144,53,l),
(152,67,l),
(157,77,l),
(153,85,l),
(141,99,l),
(124,112,l),
(124,124,l),
(111,129,l),
(90,130,l),
(77,131,l),
(60,120,l),
(50,117,l),
(27,103,l),
(15,92,l),
(17,73,l),
(11,59,l),
(17,27,l),
(18,19,l),
(24,8,l),
(36,0,l),
(46,-6,l)
);
}
);
width = 224;
},
{
hints = (
{
horizontal = 1;
place = (-5,120);
type = Stem;
},
{
place = (32,121);
type = Stem;
}
);
layerId = m002;
shapes = (
{
closed = 1;
nodes = (
(94,-23,l),
(130,-14,l),
(144,-3,l),
(154,12,l),
(171,31,l),
(184,62,l),
(198,97,l),
(183,109,l),
(192,122,l),
(176,144,l),
(172,158,l),
(163,172,l),
(149,178,l),
(116,182,l),
(74,177,l),
(64,178,l),
(26,158,l),
(14,144,l),
(3,139,l),
(-2,124,l),
(-16,113,l),
(-13,91,l),
(-29,66,l),
(-17,37,l),
(-17,27,l),
(0,-5,l),
(19,-14,l),
(52,-22,l)
);
}
);
width = 222;
},
{
hints = (
{
horizontal = 1;
place = (-5,120);
type = Stem;
},
{
place = (37,121);
type = Stem;
}
);
layerId = m003;
shapes = (
{
closed = 1;
nodes = (
(73,-9,l),
(82,-9,l),
(95,-8,l),
(105,-7,l),
(117,4,l),
(117,15,l),
(119,24,l),
(130,36,l),
(132,52,l),
(135,67,l),
(130,82,l),
(127,90,l),
(111,98,l),
(107,104,l),
(87,107,l),
(69,109,l),
(60,103,l),
(46,97,l),
(35,92,l),
(37,79,l),
(19,69,l),
(14,51,l),
(9,32,l),
(17,18,l),
(27,7,l),
(34,1,l),
(48,-8,l),
(63,-8,l)
);
}
);
width = 208;
}
);
note = period;
unicode = 46;
userData = {
KernOnSpecialSpacing = {
L = period;
R = period;
};
};
}
{
glyphname = slash;
kernLeft = KO_slash;
kernRight = KO_slash;
layers = (
{
hints = (
{
horizontal = 1;
place = (0,21);
target = up;
type = BottomGhost;
},
{
place = (-38,405);
type = Stem;
}
);
layerId = m005;
shapes = (
{
closed = 1;
nodes = (
(29,-93,l),
(47,-93,l),
(65,-84,l),
(66,-72,l),
(86,-67,l),
(95,-42,l),
(105,-23,l),
(107,-9,l),
(108,4,l),
(125,18,l),
(127,38,l),
(124,45,l),
(139,62,l),
(135,74,l),
(143,92,l),
(155,111,l),
(154,126,l),
(160,138,l),
(176,154,l),
(171,170,l),
(183,175,l),
(195,199,l),
(195,212,l),
(209,224,l),
(212,237,l),
(219,250,l),
(220,263,l),
(224,282,l),
(237,297,l),
(237,314,l),
(240,321,l),
(252,342,l),
(263,359,l),
(258,370,l),
(265,387,l),
(272,395,l),
(274,415,l),
(291,431,l),
(298,445,l),
(305,452,l),
(312,470,l),
(318,489,l),
(320,503,l),
(326,518,l),
(331,526,l),
(335,543,l),
(347,559,l),
(343,569,l),
(350,589,l),
(367,601,l),
(360,617,l),
(370,649,l),
(374,659,l),
(370,672,l),
(357,682,l),
(326,694,l),
(307,683,l),
(302,679,l),
(289,669,l),
(270,640,l),
(262,626,l),
(262,616,l),
(246,598,l),
(247,586,l),
(236,566,l),
(228,549,l),
(230,540,l),
(219,524,l),
(214,510,l),
(213,493,l),
(199,481,l),
(194,468,l),
(186,446,l),
(193,438,l),
(177,416,l),
(180,404,l),
(170,392,l),
(163,378,l),
(151,364,l),
(143,349,l),
(150,333,l),
(131,315,l),
(128,308,l),
(126,289,l),
(113,270,l),
(111,265,l),
(100,245,l),
(107,232,l),
(90,215,l),
(88,199,l),
(86,190,l),
(68,178,l),
(63,154,l),
(64,145,l),
(56,127,l),
(44,120,l),
(46,98,l),
(27,82,l),
(32,75,l),
(15,54,l),
(19,46,l),
(11,31,l),
(7,18,l),
(2,3,l),
(-4,-12,l),
(-22,-43,l),
(-18,-57,l),
(-15,-77,l),
(8,-83,l)
);
}
);
width = 365;
},
{
hints = (
{
horizontal = 1;
place = (0,21);
target = up;
type = BottomGhost;
},
{
place = (-38,405);
type = Stem;
}
);
layerId = m002;
shapes = (
{
closed = 1;
nodes = (
(19,-103,l),
(32,-101,l),
(44,-108,l),
(66,-103,l),
(70,-98,l),
(98,-82,l),
(119,-65,l),
(135,-57,l),
(144,-43,l),
(146,-13,l),
(153,-2,l),
(163,16,l),
(165,29,l),
(175,40,l),
(184,59,l),
(187,76,l),
(194,89,l),
(194,106,l),
(207,115,l),
(216,135,l),
(221,146,l),
(229,157,l),
(230,174,l),
(234,189,l),
(249,209,l),
(252,222,l),
(261,229,l),
(268,247,l),
(271,261,l),
(273,279,l),
(289,291,l),
(292,304,l),
(300,321,l),
(303,332,l),
(304,349,l),
(317,362,l),
(319,374,l),
(332,392,l),
(334,403,l),
(346,425,l),
(345,440,l),
(353,452,l),
(362,469,l),
(374,481,l),
(372,498,l),
(379,507,l),
(393,520,l),
(391,538,l),
(405,549,l),
(409,568,l),
(413,600,l),
(426,613,l),
(427,627,l),
(423,642,l),
(410,652,l),
(411,663,l),
(405,673,l),
(400,688,l),
(385,693,l),
(373,702,l),
(340,701,l),
(331,708,l),
(321,701,l),
(297,698,l),
(294,695,l),
(266,687,l),
(262,677,l),
(246,672,l),
(241,658,l),
(230,643,l),
(218,616,l),
(210,604,l),
(204,592,l),
(194,571,l),
(199,562,l),
(192,549,l),
(182,532,l),
(170,512,l),
(168,500,l),
(165,487,l),
(163,473,l),
(150,458,l),
(151,449,l),
(137,429,l),
(134,411,l),
(124,403,l),
(116,387,l),
(106,373,l),
(102,360,l),
(93,341,l),
(91,327,l),
(81,315,l),
(83,307,l),
(64,290,l),
(64,271,l),
(59,258,l),
(55,249,l),
(45,236,l),
(37,217,l),
(36,203,l),
(18,186,l),
(10,172,l),
(6,162,l),
(-2,144,l),
(-3,132,l),
(-9,120,l),
(-26,101,l),
(-20,89,l),
(-38,77,l),
(-37,62,l),
(-46,53,l),
(-52,34,l),
(-57,7,l),
(-61,-5,l),
(-66,-22,l),
(-65,-38,l),
(-67,-50,l),
(-58,-64,l),
(-39,-69,l),
(-32,-86,l),
(-25,-91,l),
(-9,-91,l)
);
}
);
width = 365;
},
{
hints = (
{
horizontal = 1;
place = (0,21);
target = up;
type = BottomGhost;
},
{
place = (-37,405);
type = Stem;
}
);
layerId = m003;
shapes = (
{
closed = 1;
nodes = (
(36,-94,l),
(53,-84,l),
(64,-82,l),
(67,-73,l),
(88,-43,l),
(90,-29,l),
(99,-14,l),
(108,1,l),
(113,16,l),
(117,28,l),
(123,39,l),
(121,53,l),
(124,69,l),
(135,84,l),
(149,98,l),
(149,113,l),
(151,128,l),
(158,141,l),
(158,155,l),
(173,177,l),
(171,191,l),
(192,208,l),
(190,213,l),
(202,229,l),
(195,248,l),
(212,263,l),
(216,275,l),
(223,289,l),
(226,305,l),
(232,323,l),
(232,331,l),
(245,349,l),
(248,361,l),
(262,383,l),
(260,392,l),
(274,405,l),
(269,427,l),
(279,436,l),
(278,452,l),
(298,464,l),
(304,480,l),
(308,493,l),
(314,513,l),
(312,528,l),
(324,536,l),
(331,550,l),
(330,570,l),
(346,581,l),
(342,594,l),
(359,611,l),
(363,631,l),
(362,662,l),
(363,676,l),
(352,688,l),
(334,693,l),
(308,685,l),
(301,682,l),
(280,654,l),
(268,630,l),
(273,623,l),
(261,603,l),
(252,593,l),
(249,575,l),
(240,558,l),
(239,549,l),
(229,529,l),
(229,521,l),
(231,505,l),
(212,487,l),
(210,472,l),
(206,464,l),
(200,447,l),
(199,431,l),
(191,417,l),
(184,401,l),
(173,391,l),
(175,372,l),
(158,364,l),
(165,342,l),
(155,329,l),
(150,314,l),
(138,305,l),
(133,287,l),
(126,268,l),
(124,258,l),
(118,240,l),
(110,225,l),
(108,211,l),
(97,198,l),
(96,185,l),
(80,169,l),
(73,160,l),
(79,147,l),
(61,129,l),
(64,117,l),
(60,97,l),
(46,84,l),
(35,69,l),
(32,62,l),
(24,45,l),
(19,32,l),
(14,15,l),
(6,4,l),
(3,-12,l),
(1,-27,l),
(-11,-63,l),
(-4,-75,l)
);
}
);
width = 365;
},
{
hints = (
{
horizontal = 1;
place = (0,21);
target = up;
type = BottomGhost;
},
{
place = (-38,405);
type = Stem;
}
);
layerId = "27802CB9-B49D-4E25-883A-F5F5DC48409B";
shapes = (
{
closed = 1;
nodes = (
(22,-95,l),
(37,-90,l),
(55,-87,l),
(63,-82,l),
(86,-78,l),
(98,-59,l),
(103,-29,l),
(117,-23,l),
(121,-8,l),
(129,15,l),
(136,23,l),
(138,41,l),
(138,51,l),
(154,68,l),
(150,79,l),
(153,97,l),
(172,117,l),
(166,127,l),
(183,140,l),
(183,156,l),
(193,166,l),
(192,184,l),
(203,195,l),
(201,216,l),
(215,229,l),
(224,241,l),
(226,260,l),
(230,274,l),
(235,291,l),
(238,301,l),
(248,315,l),
(250,329,l),
(259,343,l),
(273,357,l),
(276,373,l),
(283,387,l),
(295,399,l),
(287,417,l),
(297,432,l),
(312,449,l),
(308,457,l),
(313,474,l),
(331,488,l),
(328,508,l),
(339,519,l),
(347,531,l),
(357,549,l),
(363,561,l),
(357,572,l),
(363,586,l),
(376,607,l),
(385,632,l),
(393,654,l),
(388,665,l),
(366,675,l),
(360,683,l),
(337,696,l),
(319,689,l),
(298,691,l),
(288,676,l),
(269,669,l),
(253,636,l),
(244,617,l),
(251,611,l),
(247,596,l),
(232,574,l),
(231,567,l),
(225,543,l),
(221,531,l),
(212,517,l),
(203,508,l),
(205,492,l),
(199,479,l),
(190,456,l),
(182,442,l),
(177,431,l),
(166,416,l),
(157,405,l),
(155,385,l),
(149,367,l),
(142,362,l),
(139,341,l),
(133,333,l),
(123,316,l),
(122,295,l),
(112,287,l),
(104,272,l),
(101,253,l),
(93,245,l),
(88,228,l),
(79,217,l),
(79,195,l),
(74,184,l),
(60,167,l),
(50,152,l),
(50,141,l),
(45,130,l),
(33,108,l),
(28,99,l),
(14,78,l),
(10,66,l),
(-1,51,l),
(-1,41,l),
(-13,28,l),
(-21,13,l),
(-20,-3,l),
(-37,-39,l),
(-30,-51,l),
(-17,-65,l),
(-14,-80,l),
(-2,-86,l)
);
}
);
width = 365;
},
{
hints = (
{
horizontal = 1;
place = (0,21);
target = up;
type = BottomGhost;
},
{
place = (-38,405);
type = Stem;
}
);
layerId = "9BFA4F56-4850-48F5-A038-9DAB9408749E";
shapes = (
{
closed = 1;
nodes = (
(17,-96,l),
(37,-98,l),
(49,-89,l),
(69,-88,l),
(79,-75,l),
(94,-66,l),
(111,-60,l),
(121,-24,l),
(124,-19,l),
(130,-3,l),
(128,12,l),
(137,27,l),
(146,40,l),
(159,61,l),
(162,78,l),
(171,90,l),
(171,101,l),
(175,115,l),
(178,131,l),
(186,148,l),
(203,166,l),
(198,174,l),
(209,195,l),
(216,206,l),
(227,219,l),
(222,236,l),
(226,247,l),
(241,261,l),
(251,281,l),
(250,292,l),
(252,305,l),
(267,319,l),
(276,334,l),
(275,348,l),
(282,363,l),
(286,375,l),
(299,394,l),
(307,411,l),
(313,419,l),
(312,441,l),
(320,450,l),
(331,464,l),
(339,480,l),
(335,490,l),
(341,504,l),
(355,522,l),
(357,541,l),
(359,554,l),
(371,565,l),
(374,577,l),
(390,592,l),
(390,626,l),
(397,639,l),
(390,659,l),
(383,668,l),
(380,680,l),
(357,687,l),
(331,697,l),
(319,698,l),
(307,692,l),
(300,687,l),
(286,679,l),
(277,671,l),
(253,662,l),
(249,628,l),
(237,611,l),
(233,601,l),
(233,586,l),
(228,568,l),
(216,557,l),
(214,546,l),
(209,524,l),
(199,513,l),
(191,494,l),
(177,474,l),
(181,455,l),
(172,437,l),
(158,429,l),
(159,408,l),
(150,393,l),
(144,384,l),
(143,364,l),
(136,354,l),
(130,337,l),
(117,327,l),
(114,310,l),
(113,295,l),
(105,279,l),
(88,267,l),
(86,249,l),
(85,239,l),
(65,221,l),
(68,205,l),
(57,198,l),
(52,179,l),
(43,169,l),
(47,146,l),
(36,138,l),
(31,120,l),
(15,111,l),
(18,93,l),
(9,76,l),
(3,58,l),
(-9,44,l),
(-15,35,l),
(-28,19,l),
(-32,5,l),
(-43,-26,l),
(-37,-41,l),
(-41,-55,l),
(-33,-64,l),
(-18,-78,l),
(1,-83,l)
);
}
);
width = 365;
},
{
hints = (
{
horizontal = 1;
place = (0,21);
target = up;
type = BottomGhost;
},
{
place = (-38,405);
type = Stem;
}
);
layerId = "B734896E-9115-4752-AF37-164D25EC5193";
shapes = (
{
closed = 1;
nodes = (
(27,-97,l),
(36,-99,l),
(53,-94,l),
(68,-88,l),
(83,-85,l),
(94,-72,l),
(107,-61,l),
(109,-56,l),
(132,-20,l),
(133,-10,l),
(138,1,l),
(142,19,l),
(154,36,l),
(165,48,l),
(166,64,l),
(170,79,l),
(180,97,l),
(186,106,l),
(187,119,l),
(195,135,l),
(199,151,l),
(208,167,l),
(215,177,l),
(215,200,l),
(224,209,l),
(225,228,l),
(242,242,l),
(240,257,l),
(249,264,l),
(249,277,l),
(269,294,l),
(262,306,l),
(270,328,l),
(281,344,l),
(293,358,l),
(303,370,l),
(299,387,l),
(314,394,l),
(307,407,l),
(315,424,l),
(326,443,l),
(337,455,l),
(345,468,l),
(354,484,l),
(354,503,l),
(365,514,l),
(371,525,l),
(370,544,l),
(372,553,l),
(382,568,l),
(384,581,l),
(399,618,l),
(400,627,l),
(400,640,l),
(403,654,l),
(392,668,l),
(381,679,l),
(374,692,l),
(371,692,l),
(343,703,l),
(325,698,l),
(305,701,l),
(300,688,l),
(280,690,l),
(265,675,l),
(253,666,l),
(241,653,l),
(237,627,l),
(225,610,l),
(225,596,l),
(224,579,l),
(211,571,l),
(204,556,l),
(199,533,l),
(190,525,l),
(189,512,l),
(185,491,l),
(172,481,l),
(165,465,l),
(169,450,l),
(159,431,l),
(145,421,l),
(138,409,l),
(145,391,l),
(134,376,l),
(123,360,l),
(115,344,l),
(119,337,l),
(111,318,l),
(102,305,l),
(99,293,l),
(83,274,l),
(83,260,l),
(73,246,l),
(66,230,l),
(62,215,l),
(59,203,l),
(42,185,l),
(39,174,l),
(32,161,l),
(28,141,l),
(12,135,l),
(6,116,l),
(5,100,l),
(2,91,l),
(-11,72,l),
(-9,61,l),
(-22,39,l),
(-36,27,l),
(-43,13,l),
(-47,-11,l),
(-54,-30,l),
(-46,-38,l),
(-44,-51,l),
(-40,-65,l),
(-34,-76,l),
(-15,-81,l)
);
}
);
width = 365;
},
{
hints = (
{
horizontal = 1;
place = (0,21);
target = up;
type = BottomGhost;
},
{
place = (-38,405);
type = Stem;
}
);
layerId = "FC6EA5DF-75BF-4555-8471-DBE331F6C0F3";
shapes = (
{
closed = 1;
nodes = (
(16,-97,l),
(28,-99,l),
(52,-101,l),
(69,-95,l),
(80,-95,l),
(85,-82,l),
(105,-70,l),
(117,-59,l),
(129,-46,l),
(140,-17,l),
(153,-5,l),
(154,11,l),
(154,30,l),
(157,45,l),
(164,52,l),
(180,72,l),
(186,80,l),
(190,99,l),
(186,109,l),
(193,129,l),
(206,145,l),
(210,152,l),
(215,171,l),
(225,190,l),
(236,204,l),
(233,215,l),
(246,229,l),
(252,243,l),
(263,257,l),
(256,269,l),
(262,285,l),
(269,304,l),
(279,318,l),
(288,333,l),
(298,345,l),
(300,356,l),
(308,378,l),
(316,393,l),
(323,399,l),
(327,416,l),
(340,436,l),
(335,446,l),
(354,459,l),
(357,479,l),
(362,492,l),
(365,506,l),
(381,516,l),
(379,532,l),
(385,543,l),
(388,558,l),
(394,580,l),
(411,602,l),
(418,621,l),
(412,630,l),
(410,647,l),
(402,665,l),
(408,677,l),
(384,678,l),
(383,692,l),
(370,695,l),
(337,700,l),
(324,703,l),
(309,700,l),
(294,699,l),
(281,688,l),
(266,681,l),
(256,670,l),
(251,667,l),
(235,654,l),
(225,621,l),
(222,610,l),
(218,595,l),
(210,573,l),
(200,561,l),
(194,552,l),
(197,532,l),
(183,522,l),
(172,504,l),
(173,484,l),
(160,471,l),
(159,457,l),
(155,443,l),
(139,427,l),
(146,414,l),
(128,402,l),
(123,386,l),
(118,372,l),
(116,358,l),
(102,343,l),
(104,332,l),
(93,318,l),
(92,301,l),
(82,284,l),
(69,270,l),
(61,257,l),
(54,246,l),
(54,225,l),
(52,213,l),
(35,200,l),
(38,186,l),
(20,173,l),
(16,158,l),
(13,144,l),
(11,122,l),
(4,112,l),
(-8,102,l),
(-14,81,l),
(-24,70,l),
(-33,59,l),
(-37,39,l),
(-50,29,l),
(-50,-2,l),
(-59,-17,l),
(-54,-31,l),
(-53,-42,l),
(-45,-57,l),
(-47,-70,l),
(-26,-81,l),
(-28,-83,l),
(-12,-91,l)
);
}
);
width = 365;
}
);
note = slash;
unicode = 47;
userData = {
KernOnSpecialSpacing = {
L = slash;
R = slash;
};
};
}
{
glyphname = zero;
kernLeft = KO_zero;
kernRight = KO_zero;
layers = (
{
hints = (
{
horizontal = 1;
place = (-10,80);
type = Stem;
},
{
horizontal = 1;
place = (597,80);
type = Stem;
},
{
place = (-13,110);
type = Stem;
},
{
place = (377,110);
type = Stem;
}
);
layerId = m005;
shapes = (
{
closed = 1;
nodes = (
(527,317,l),
(521,327,l),
(529,343,l),
(522,361,l),
(527,373,l),
(527,390,l),
(525,406,l),
(525,418,l),
(523,430,l),
(518,445,l),
(526,465,l),
(520,482,l),
(521,494,l),
(513,508,l),
(503,519,l),
(501,529,l),
(490,537,l),
(489,553,l),
(479,562,l),
(462,576,l),
(450,585,l),
(442,592,l),
(440,599,l),
(414,595,l),
(409,599,l),
(395,606,l),
(376,604,l),
(358,614,l),
(349,615,l),
(326,607,l),
(298,606,l),
(289,602,l),
(278,602,l),
(265,596,l),
(250,588,l),
(235,587,l),
(222,585,l),
(203,574,l),
(186,569,l),
(181,553,l),
(170,550,l),
(150,539,l),
(144,523,l),
(124,515,l),
(113,503,l),
(117,492,l),
(97,478,l),
(98,457,l),
(88,443,l),
(78,430,l),
(69,421,l),
(68,401,l),
(71,386,l),
(57,376,l),
(60,357,l),
(54,341,l),
(55,330,l),
(43,319,l),
(36,286,l),
(37,265,l),
(44,255,l),
(43,241,l),
(40,224,l),
(42,204,l),
(30,193,l),
(32,182,l),
(35,159,l),
(35,147,l),
(43,131,l),
(50,121,l),
(42,103,l),
(55,97,l),
(67,84,l),
(66,74,l),
(79,57,l),
(90,51,l),
(91,37,l),
(105,34,l),
(109,21,l),
(122,15,l),
(129,5,l),
(143,5,l),
(171,1,l),
(184,0,l),
(191,-11,l),
(210,-11,l),
(222,-12,l),
(247,-14,l),
(264,-5,l),
(277,-10,l),
(302,-8,l),
(315,0,l),
(333,5,l),
(333,6,l),
(359,14,l),
(362,20,l),
(380,29,l),
(390,36,l),
(411,45,l),
(423,55,l),
(428,66,l),
(438,86,l),
(456,99,l),
(458,109,l),
(473,119,l),
(473,135,l),
(488,147,l),
(485,161,l),
(501,183,l),
(506,193,l),
(514,211,l),
(506,224,l),
(510,235,l),
(516,257,l),
(516,270,l),
(522,288,l)
);
},
{
closed = 1;
nodes = (
(154,318,l),
(145,329,l),
(152,342,l),
(156,364,l),
(158,376,l),
(162,398,l),
(175,410,l),
(171,425,l),
(182,443,l),
(196,448,l),
(195,471,l),
(209,483,l),
(217,491,l),
(235,500,l),
(241,512,l),
(258,519,l),
(283,519,l),
(298,527,l),
(302,528,l),
(335,535,l),
(348,534,l),
(370,528,l),
(375,519,l),
(397,521,l),
(406,500,l),
(411,488,l),
(428,478,l),
(421,462,l),
(431,448,l),
(436,427,l),
(428,420,l),
(429,399,l),
(435,390,l),
(438,369,l),
(430,363,l),
(432,344,l),
(432,331,l),
(427,319,l),
(416,289,l),
(424,271,l),
(419,253,l),
(410,239,l),
(405,226,l),
(403,203,l),
(401,190,l),
(394,176,l),
(387,162,l),
(377,150,l),
(372,138,l),
(363,129,l),
(348,119,l),
(338,104,l),
(319,97,l),
(303,88,l),
(291,83,l),
(282,80,l),
(263,82,l),
(235,74,l),
(212,74,l),
(206,80,l),
(190,84,l),
(174,91,l),
(170,99,l),
(162,108,l),
(151,125,l),
(152,139,l),
(141,153,l),
(140,169,l),
(133,181,l),
(136,196,l),
(131,208,l),
(143,223,l),
(132,241,l),
(143,257,l),
(134,274,l),
(148,285,l)
);
}
);
width = 570;
},
{
hints = (
{
horizontal = 1;
place = (-10,80);
type = Stem;
},
{
horizontal = 1;
place = (597,80);
type = Stem;
},
{
place = (-11,110);
type = Stem;
},
{
place = (379,110);
type = Stem;
}
);
layerId = m002;
shapes = (
{
closed = 1;
nodes = (
(573,316,l),
(575,336,l),
(572,348,l),
(575,361,l),
(574,373,l),
(573,394,l),
(579,411,l),
(573,422,l),
(566,433,l),
(571,444,l),
(561,464,l),
(557,479,l),
(556,493,l),
(534,499,l),
(536,512,l),
(526,526,l),
(515,534,l),
(503,542,l),
(501,549,l),
(480,560,l),
(474,566,l),
(462,577,l),
(442,584,l),
(436,590,l),
(419,596,l),
(412,594,l),
(398,601,l),
(382,596,l),
(362,595,l),
(347,602,l),
(309,598,l),
(299,597,l),
(293,596,l),
(266,590,l),
(257,589,l),
(245,580,l),
(226,574,l),
(202,570,l),
(202,566,l),
(172,556,l),
(166,549,l),
(145,543,l),
(144,540,l),
(129,532,l),
(116,516,l),
(109,508,l),
(96,498,l),
(80,479,l),
(68,471,l),
(61,459,l),
(52,443,l),
(45,431,l),
(40,413,l),
(27,401,l),
(25,393,l),
(15,370,l),
(15,364,l),
(7,342,l),
(0,334,l),
(-4,319,l),
(-10,284,l),
(-13,266,l),
(-3,253,l),
(-11,235,l),
(-9,225,l),
(-5,207,l),
(-7,198,l),
(-2,178,l),
(-3,168,l),
(-9,152,l),
(-4,134,l),
(-1,128,l),
(4,115,l),
(19,93,l),
(16,88,l),
(31,70,l),
(38,58,l),
(44,52,l),
(55,42,l),
(63,30,l),
(72,24,l),
(88,12,l),
(103,8,l),
(112,0,l),
(114,-4,l),
(132,-12,l),
(147,-12,l),
(157,-22,l),
(177,-19,l),
(196,-20,l),
(208,-24,l),
(223,-23,l),
(244,-25,l),
(267,-26,l),
(275,-25,l),
(295,-19,l),
(313,-17,l),
(320,-15,l),
(348,-8,l),
(350,-2,l),
(367,-2,l),
(380,4,l),
(400,16,l),
(410,18,l),
(427,34,l),
(438,36,l),
(457,47,l),
(474,59,l),
(474,72,l),
(489,81,l),
(495,95,l),
(515,112,l),
(514,128,l),
(523,137,l),
(529,151,l),
(546,162,l),
(545,179,l),
(552,192,l),
(554,214,l),
(557,228,l),
(568,238,l),
(571,254,l),
(571,276,l),
(575,285,l)
);
},
{
closed = 1;
nodes = (
(200,314,l),
(205,327,l),
(206,344,l),
(209,356,l),
(220,373,l),
(233,382,l),
(243,400,l),
(269,401,l),
(279,415,l),
(299,418,l),
(322,417,l),
(342,418,l),
(347,407,l),
(356,398,l),
(368,383,l),
(379,376,l),
(384,357,l),
(382,344,l),
(374,327,l),
(372,311,l),
(372,279,l),
(369,271,l),
(374,254,l),
(362,235,l),
(346,217,l),
(352,209,l),
(337,195,l),
(323,184,l),
(307,178,l),
(287,166,l),
(270,168,l),
(248,162,l),
(234,170,l),
(213,176,l),
(201,182,l),
(203,199,l),
(189,207,l),
(199,225,l),
(190,241,l),
(197,256,l),
(196,267,l),
(196,285,l)
);
}
);
width = 570;
},
{
hints = (
{
horizontal = 1;
place = (-10,80);
type = Stem;
},
{
horizontal = 1;
place = (597,80);
type = Stem;
},
{
place = (-12,110);
type = Stem;
},
{
place = (378,110);
type = Stem;
}
);
layerId = m003;
shapes = (
{
closed = 1;
nodes = (
(515,318,l),
(515,326,l),
(518,342,l),
(519,361,l),
(528,380,l),
(515,395,l),
(514,405,l),
(519,427,l),
(519,442,l),
(520,449,l),
(508,471,l),
(513,484,l),
(510,496,l),
(507,509,l),
(493,524,l),
(488,539,l),
(483,544,l),
(473,560,l),
(460,562,l),
(456,573,l),
(453,581,l),
(428,593,l),
(422,593,l),
(402,604,l),
(398,604,l),
(387,610,l),
(367,610,l),
(357,607,l),
(324,604,l),
(306,600,l),
(285,605,l),
(272,602,l),
(255,590,l),
(244,585,l),
(233,581,l),
(211,574,l),
(203,571,l),
(182,564,l),
(182,555,l),
(158,537,l),
(144,533,l),
(135,522,l),
(125,503,l),
(118,492,l),
(117,479,l),
(109,459,l),
(99,445,l),
(93,439,l),
(90,424,l),
(84,405,l),
(69,390,l),
(72,376,l),
(72,356,l),
(63,342,l),
(59,330,l),
(60,316,l),
(51,287,l),
(50,268,l),
(53,250,l),
(42,242,l),
(49,218,l),
(41,209,l),
(48,189,l),
(42,176,l),
(54,166,l),
(57,148,l),
(51,136,l),
(57,116,l),
(56,103,l),
(57,87,l),
(67,76,l),
(70,68,l),
(83,53,l),
(95,43,l),
(107,32,l),
(110,31,l),
(122,19,l),
(141,14,l),
(157,6,l),
(161,0,l),
(176,3,l),
(193,-5,l),
(211,-7,l),
(215,-3,l),
(248,-8,l),
(271,-11,l),
(287,-1,l),
(293,2,l),
(320,4,l),
(326,5,l),
(337,14,l),
(353,19,l),
(378,22,l),
(390,33,l),
(396,43,l),
(405,53,l),
(429,69,l),
(433,78,l),
(450,91,l),
(451,104,l),
(465,121,l),
(466,135,l),
(476,144,l),
(477,162,l),
(484,173,l),
(488,190,l),
(492,205,l),
(496,220,l),
(501,236,l),
(514,249,l),
(511,267,l),
(519,284,l)
);
},
{
closed = 1;
nodes = (
(142,313,l),
(136,332,l),
(142,347,l),
(139,356,l),
(146,377,l),
(161,388,l),
(164,408,l),
(161,423,l),
(173,436,l),
(176,452,l),
(180,459,l),
(189,473,l),
(211,489,l),
(214,497,l),
(229,515,l),
(237,516,l),
(256,529,l),
(261,530,l),
(281,534,l),
(297,546,l),
(302,546,l),
(332,548,l),
(354,542,l),
(364,543,l),
(375,540,l),
(392,534,l),
(397,523,l),
(410,512,l),
(417,501,l),
(422,497,l),
(428,478,l),
(436,466,l),
(434,448,l),
(436,438,l),
(450,422,l),
(439,403,l),
(448,388,l),
(440,378,l),
(437,360,l),
(436,342,l),
(442,331,l),
(438,319,l),
(427,285,l),
(426,269,l),
(433,254,l),
(420,234,l),
(421,224,l),
(414,205,l),
(414,186,l),
(397,179,l),
(400,157,l),
(384,143,l),
(380,131,l),
(365,123,l),
(362,109,l),
(354,94,l),
(341,91,l),
(314,77,l),
(310,73,l),
(299,71,l),
(271,67,l),
(259,61,l),
(240,66,l),
(212,65,l),
(204,67,l),
(190,62,l),
(174,69,l),
(164,79,l),
(161,92,l),
(149,102,l),
(143,111,l),
(130,127,l),
(138,136,l),
(137,157,l),
(132,169,l),
(131,184,l),
(126,196,l),
(119,213,l),
(130,226,l),
(129,245,l),
(122,256,l),
(128,271,l),
(129,286,l)
);
}
);
width = 570;
},
{
hints = (
{
horizontal = 1;
place = (-10,80);
type = Stem;
},
{
horizontal = 1;
place = (597,80);
type = Stem;
},
{
place = (-12,110);
type = Stem;
},
{
place = (378,110);
type = Stem;
}
);
layerId = "27802CB9-B49D-4E25-883A-F5F5DC48409B";
shapes = (
{
closed = 1;
nodes = (
(540,317,l),
(544,329,l),
(534,344,l),
(534,365,l),
(546,379,l),
(538,388,l),
(541,409,l),
(543,420,l),
(527,432,l),
(529,454,l),
(533,469,l),
(530,475,l),
(527,493,l),
(519,504,l),
(505,518,l),
(501,527,l),
(491,537,l),
(494,555,l),
(473,566,l),
(464,567,l),
(455,581,l),
(443,585,l),
(428,597,l),
(400,600,l),
(395,607,l),
(366,607,l),
(345,610,l),
(323,609,l),
(307,608,l),
(280,603,l),
(270,601,l),
(261,597,l),
(238,590,l),
(232,588,l),
(212,576,l),
(205,574,l),
(189,562,l),
(171,554,l),
(161,549,l),
(142,535,l),
(132,525,l),
(126,509,l),
(109,505,l),
(109,486,l),
(95,480,l),
(90,464,l),
(75,451,l),
(80,436,l),
(62,416,l),
(65,402,l),
(52,393,l),
(51,377,l),
(53,358,l),
(48,341,l),
(45,329,l),
(32,317,l),
(29,284,l),
(26,273,l),
(30,254,l),
(29,234,l),
(30,224,l),
(29,206,l),
(29,190,l),
(29,179,l),
(33,166,l),
(37,144,l),
(33,132,l),
(44,117,l),
(44,103,l),
(42,88,l),
(48,77,l),
(55,69,l),
(67,58,l),
(79,45,l),
(80,33,l),
(101,23,l),
(108,20,l),
(122,12,l),
(131,2,l),
(145,2,l),
(159,-3,l),
(181,-10,l),
(196,-7,l),
(209,-16,l),
(218,-15,l),
(248,-10,l),
(265,-12,l),
(283,-7,l),
(287,-11,l),
(316,-10,l),
(328,-4,l),
(344,8,l),
(360,6,l),
(370,11,l),
(386,18,l),
(391,31,l),
(415,43,l),
(425,47,l),
(435,60,l),
(446,75,l),
(448,89,l),
(463,101,l),
(478,107,l),
(477,121,l),
(483,135,l),
(501,151,l),
(500,168,l),
(514,179,l),
(520,200,l),
(525,215,l),
(518,222,l),
(528,243,l),
(535,254,l),
(530,271,l),
(527,287,l)
);
},
{
closed = 1;
nodes = (
(158,312,l),
(160,327,l),
(157,349,l),
(172,358,l),
(175,383,l),
(184,390,l),
(187,414,l),
(191,428,l),
(204,439,l),
(216,454,l),
(223,459,l),
(233,472,l),
(250,479,l),
(256,488,l),
(267,500,l),
(285,507,l),
(297,509,l),
(332,505,l),
(355,508,l),
(365,502,l),
(382,501,l),
(382,487,l),
(399,481,l),
(396,467,l),
(416,464,l),
(411,446,l),
(421,436,l),
(414,413,l),
(420,404,l),
(427,392,l),
(422,369,l),
(415,357,l),
(423,341,l),
(413,329,l),
(410,310,l),
(413,282,l),
(408,266,l),
(407,250,l),
(395,235,l),
(400,220,l),
(392,204,l),
(380,190,l),
(381,179,l),
(373,163,l),
(366,151,l),
(349,142,l),
(337,129,l),
(322,114,l),
(308,108,l),
(293,108,l),
(278,102,l),
(266,103,l),
(238,94,l),
(219,96,l),
(216,103,l),
(190,102,l),
(181,107,l),
(174,122,l),
(172,128,l),
(165,146,l),
(160,154,l),
(149,167,l),
(148,182,l),
(152,201,l),
(147,209,l),
(153,222,l),
(150,244,l),
(155,259,l),
(153,272,l),
(149,283,l)
);
}
);
width = 570;
},
{
hints = (
{
horizontal = 1;
place = (-10,80);
type = Stem;
},
{
horizontal = 1;
place = (597,80);
type = Stem;
},
{
place = (-12,110);
type = Stem;
},
{
place = (378,110);
type = Stem;
}
);
layerId = "9BFA4F56-4850-48F5-A038-9DAB9408749E";
shapes = (
{
closed = 1;
nodes = (
(550,311,l),
(549,331,l),
(555,348,l),
(549,366,l),
(553,376,l),
(555,390,l),
(541,407,l),
(545,423,l),
(545,435,l),
(544,456,l),
(534,463,l),
(529,479,l),
(529,495,l),
(529,510,l),
(516,523,l),
(509,530,l),
(506,544,l),
(500,551,l),
(478,560,l),
(479,575,l),
(466,583,l),
(449,586,l),
(432,587,l),
(421,601,l),
(405,600,l),
(387,602,l),
(385,601,l),
(360,604,l),
(349,605,l),
(312,601,l),
(299,604,l),
(281,600,l),
(273,599,l),
(260,597,l),
(247,589,l),
(230,588,l),
(214,576,l),
(196,567,l),
(188,565,l),
(174,552,l),
(153,544,l),
(148,535,l),
(134,528,l),
(120,513,l),
(103,506,l),
(93,489,l),
(86,475,l),
(84,461,l),
(74,446,l),
(66,435,l),
(53,417,l),
(52,403,l),
(52,389,l),
(37,374,l),
(42,364,l),
(29,345,l),
(28,330,l),
(36,318,l),
(29,286,l),
(14,268,l),
(19,252,l),
(20,239,l),
(12,220,l),
(17,206,l),
(14,192,l),
(19,176,l),
(14,165,l),
(23,149,l),
(24,134,l),
(35,119,l),
(42,110,l),
(45,98,l),
(51,84,l),
(53,72,l),
(61,57,l),
(65,45,l),
(72,42,l),
(84,30,l),
(100,16,l),
(115,14,l),
(116,9,l),
(136,-2,l),
(146,1,l),
(166,-9,l),
(172,-10,l),
(183,-12,l),
(206,-16,l),
(224,-14,l),
(244,-16,l),
(272,-14,l),
(287,-15,l),
(300,-9,l),
(312,-12,l),
(329,-4,l),
(335,-2,l),
(357,10,l),
(368,9,l),
(379,20,l),
(403,32,l),
(414,38,l),
(424,48,l),
(444,54,l),
(447,65,l),
(457,79,l),
(471,93,l),
(480,110,l),
(494,118,l),
(494,133,l),
(506,154,l),
(511,165,l),
(524,183,l),
(524,193,l),
(522,210,l),
(533,223,l),
(533,243,l),
(531,250,l),
(543,269,l),
(550,287,l)
);
},
{
closed = 1;
nodes = (
(162,313,l),
(173,328,l),
(167,341,l),
(176,360,l),
(179,377,l),
(185,389,l),
(196,404,l),
(196,413,l),
(206,429,l),
(227,451,l),
(251,462,l),
(261,469,l),
(278,479,l),
(285,476,l),
(296,485,l),
(328,488,l),
(345,482,l),
(365,480,l),
(366,473,l),
(381,469,l),
(394,460,l),
(399,440,l),
(400,429,l),
(413,419,l),
(416,407,l),
(416,391,l),
(415,375,l),
(405,358,l),
(405,343,l),
(412,327,l),
(411,311,l),
(400,282,l),
(395,264,l),
(395,249,l),
(389,242,l),
(391,223,l),
(377,209,l),
(384,197,l),
(373,177,l),
(356,172,l),
(346,160,l),
(344,147,l),
(331,131,l),
(317,127,l),
(302,126,l),
(285,121,l),
(276,120,l),
(233,110,l),
(218,118,l),
(194,122,l),
(194,133,l),
(175,141,l),
(166,156,l),
(168,166,l),
(156,177,l),
(163,196,l),
(159,207,l),
(153,221,l),
(163,238,l),
(159,256,l),
(158,265,l),
(157,284,l)
);
}
);
width = 570;
},
{
hints = (
{
horizontal = 1;
place = (-10,80);
type = Stem;
},
{
horizontal = 1;
place = (597,80);
type = Stem;
},
{
place = (-11,110);
type = Stem;
},
{
place = (379,110);
type = Stem;
}
);
layerId = "B734896E-9115-4752-AF37-164D25EC5193";
shapes = (
{
closed = 1;
nodes = (
(551,317,l),
(551,333,l),
(562,345,l),
(565,356,l),
(551,375,l),
(552,389,l),
(561,405,l),
(547,415,l),
(546,431,l),
(548,446,l),
(548,463,l),
(538,473,l),
(530,492,l),
(536,504,l),
(519,514,l),
(520,522,l),
(507,537,l),
(508,549,l),
(497,556,l),
(478,560,l),
(468,571,l),
(456,582,l),
(451,583,l),
(429,592,l),
(426,595,l),
(403,602,l),
(393,603,l),
(372,602,l),
(366,601,l),
(349,608,l),
(320,602,l),
(302,601,l),
(285,595,l),
(263,597,l),
(260,593,l),
(241,582,l),
(232,582,l),
(215,580,l),
(190,573,l),
(183,558,l),
(169,556,l),
(147,548,l),
(133,534,l),
(124,522,l),
(121,517,l),
(99,505,l),
(97,490,l),
(78,481,l),
(70,459,l),
(65,452,l),
(59,437,l),
(48,424,l),
(50,408,l),
(34,395,l),
(26,375,l),
(28,356,l),
(29,344,l),
(19,334,l),
(16,315,l),
(7,287,l),
(4,268,l),
(4,252,l),
(7,237,l),
(12,220,l),
(11,205,l),
(10,192,l),
(7,184,l),
(11,161,l),
(18,156,l),
(16,134,l),
(27,125,l),
(30,113,l),
(30,97,l),
(34,83,l),
(42,77,l),
(48,63,l),
(59,55,l),
(69,40,l),
(71,30,l),
(95,26,l),
(99,14,l),
(109,5,l),
(118,3,l),
(131,-7,l),
(151,-4,l),
(165,-16,l),
(171,-11,l),
(187,-13,l),
(211,-19,l),
(226,-19,l),
(257,-21,l),
(261,-15,l),
(284,-18,l),
(295,-15,l),
(305,-10,l),
(323,-3,l),
(340,-2,l),
(362,2,l),
(374,12,l),
(378,18,l),
(395,19,l),
(417,31,l),
(430,42,l),
(437,52,l),
(445,64,l),
(466,75,l),
(479,86,l),
(485,97,l),
(494,114,l),
(494,126,l),
(501,138,l),
(512,154,l),
(516,164,l),
(530,181,l),
(528,193,l),
(534,207,l),
(541,225,l),
(544,244,l),
(544,256,l),
(556,271,l),
(552,289,l)
);
},
{
closed = 1;
nodes = (
(186,319,l),
(188,326,l),
(185,345,l),
(193,363,l),
(191,377,l),
(200,385,l),
(204,398,l),
(226,411,l),
(236,431,l),
(240,436,l),
(255,444,l),
(264,449,l),
(291,462,l),
(306,466,l),
(323,465,l),
(339,458,l),
(350,457,l),
(370,450,l),
(381,440,l),
(379,427,l),
(398,413,l),
(400,408,l),
(405,386,l),
(394,370,l),
(397,364,l),
(396,345,l),
(394,325,l),
(404,315,l),
(396,288,l),
(392,269,l),
(378,252,l),
(378,235,l),
(383,219,l),
(371,211,l),
(362,189,l),
(359,177,l),
(350,171,l),
(336,159,l),
(313,149,l),
(309,142,l),
(285,135,l),
(273,135,l),
(233,127,l),
(233,134,l),
(217,140,l),
(198,147,l),
(187,154,l),
(186,164,l),
(174,173,l),
(169,189,l),
(168,212,l),
(166,218,l),
(168,241,l),
(175,252,l),
(165,273,l),
(172,280,l)
);
}
);
width = 570;
},
{
hints = (
{
horizontal = 1;
place = (-10,80);
type = Stem;
},
{
horizontal = 1;
place = (597,80);
type = Stem;
},
{
place = (-11,110);
type = Stem;
},
{
place = (379,110);
type = Stem;
}
);
layerId = "FC6EA5DF-75BF-4555-8471-DBE331F6C0F3";
shapes = (
{
closed = 1;
nodes = (
(566,316,l),
(562,336,l),
(562,345,l),
(568,363,l),
(573,377,l),
(571,396,l),
(567,402,l),
(561,425,l),
(563,437,l),
(557,444,l),
(557,458,l),
(555,478,l),
(536,488,l),
(542,504,l),
(533,516,l),
(528,521,l),
(511,539,l),
(498,546,l),
(499,554,l),
(478,564,l),
(474,575,l),
(464,578,l),
(443,586,l),
(430,586,l),
(422,597,l),
(411,600,l),
(394,601,l),
(376,601,l),
(361,605,l),
(348,603,l),
(315,601,l),
(304,603,l),
(289,592,l),
(279,597,l),
(263,593,l),
(248,584,l),
(229,576,l),
(213,579,l),
(197,565,l),
(176,558,l),
(175,555,l),
(153,552,l),
(140,539,l),
(131,527,l),
(123,521,l),
(110,510,l),
(92,500,l),
(81,480,l),
(71,472,l),
(62,457,l),
(53,446,l),
(48,427,l),
(45,416,l),
(33,402,l),
(23,388,l),
(27,372,l),
(15,361,l),
(21,341,l),
(7,333,l),
(13,314,l),
(10,286,l),
(3,266,l),
(-6,254,l),
(-6,240,l),
(-7,224,l),
(-4,208,l),
(0,196,l),
(6,182,l),
(-3,167,l),
(11,150,l),
(10,140,l),
(11,120,l),
(24,109,l),
(26,91,l),
(31,80,l),
(35,68,l),
(42,57,l),
(47,50,l),
(67,36,l),
(74,24,l),
(76,19,l),
(97,10,l),
(100,3,l),
(115,-3,l),
(131,-4,l),
(154,-10,l),
(167,-10,l),
(169,-16,l),
(184,-16,l),
(200,-25,l),
(215,-22,l),
(242,-25,l),
(259,-25,l),
(278,-17,l),
(299,-18,l),
(315,-13,l),
(330,-13,l),
(344,-3,l),
(358,-2,l),
(366,6,l),
(388,7,l),
(394,13,l),
(417,24,l),
(431,29,l),
(444,46,l),
(449,55,l),
(459,67,l),
(474,73,l),
(483,91,l),
(492,103,l),
(499,108,l),
(510,123,l),
(521,143,l),
(531,149,l),
(540,169,l),
(541,183,l),
(546,197,l),
(555,210,l),
(558,231,l),
(563,242,l),
(559,259,l),
(567,268,l),
(567,284,l)
);
},
{
closed = 1;
nodes = (
(193,319,l),
(196,334,l),
(202,346,l),
(198,361,l),
(210,373,l),
(214,387,l),
(234,406,l),
(237,412,l),
(256,417,l),
(272,430,l),
(274,432,l),
(332,439,l),
(337,444,l),
(348,435,l),
(370,421,l),
(382,415,l),
(377,402,l),
(385,392,l),
(388,379,l),
(384,362,l),
(387,346,l),
(394,330,l),
(387,314,l),
(378,281,l),
(384,267,l),
(382,256,l),
(379,242,l),
(365,222,l),
(354,213,l),
(358,193,l),
(344,185,l),
(333,169,l),
(319,166,l),
(299,157,l),
(289,149,l),
(276,149,l),
(240,150,l),
(227,145,l),
(217,157,l),
(211,162,l),
(191,172,l),
(188,186,l),
(190,199,l),
(187,212,l),
(184,221,l),
(187,241,l),
(182,257,l),
(185,272,l),
(180,284,l)
);
}
);
width = 570;
}
);
note = O;
unicode = 48;
}
{
glyphname = one;
kernLeft = KO_one;
kernRight = KO_one;
layers = (
{
hints = (
{
horizontal = 1;
place = (0,70);
type = Stem;
},
{
place = (131,107);
type = Stem;
}
);
layerId = m005;
shapes = (
{
closed = 1;
nodes = (
(29,-5,l),
(54,-7,l),
(58,-10,l),
(87,-2,l),
(102,-9,l),
(108,-4,l),
(131,-5,l),
(139,-3,l),
(156,2,l),
(164,-6,l),
(193,0,l),
(204,-1,l),
(223,-3,l),
(234,1,l),
(250,1,l),
(257,-5,l),
(297,0,l),
(309,3,l),
(316,12,l),
(330,25,l),
(337,54,l),
(328,64,l),
(324,82,l),
(301,83,l),
(271,82,l),
(255,79,l),
(236,74,l),
(229,78,l),
(202,78,l),
(211,95,l),
(202,118,l),
(204,126,l),
(213,139,l),
(221,163,l),
(217,172,l),
(218,190,l),
(217,201,l),
(232,217,l),
(226,236,l),
(226,246,l),
(236,261,l),
(238,278,l),
(238,296,l),
(237,305,l),
(242,325,l),
(250,339,l),
(243,353,l),
(248,362,l),
(257,382,l),
(257,396,l),
(255,416,l),
(268,423,l),
(265,437,l),
(270,457,l),
(266,471,l),
(268,487,l),
(270,505,l),
(279,517,l),
(284,531,l),
(283,541,l),
(282,575,l),
(285,587,l),
(271,601,l),
(260,595,l),
(241,596,l),
(225,591,l),
(194,570,l),
(181,570,l),
(172,561,l),
(151,550,l),
(145,545,l),
(125,541,l),
(111,532,l),
(89,530,l),
(63,522,l),
(50,515,l),
(52,503,l),
(46,491,l),
(39,477,l),
(37,458,l),
(54,445,l),
(55,437,l),
(67,437,l),
(77,437,l),
(91,436,l),
(110,439,l),
(116,450,l),
(137,453,l),
(160,468,l),
(156,442,l),
(164,428,l),
(157,417,l),
(156,402,l),
(157,387,l),
(149,367,l),
(142,357,l),
(141,340,l),
(137,327,l),
(131,306,l),
(139,289,l),
(131,281,l),
(136,263,l),
(123,248,l),
(130,237,l),
(128,218,l),
(120,205,l),
(113,189,l),
(112,172,l),
(117,160,l),
(108,145,l),
(114,128,l),
(109,117,l),
(100,102,l),
(103,74,l),
(80,79,l),
(56,70,l),
(49,78,l),
(21,72,l),
(-1,70,l),
(-10,67,l),
(-24,56,l),
(-31,19,l),
(-35,8,l),
(-14,-4,l),
(-6,-3,l),
(8,-14,l)
);
}
);
width = 384;
},
{
hints = (
{
horizontal = 1;
place = (0,70);
type = Stem;
},
{
place = (130,107);
type = Stem;
}
);
layerId = m002;
shapes = (
{
closed = 1;
nodes = (
(159,-6,l),
(166,-3,l),
(206,-2,l),
(223,1,l),
(246,-1,l),
(256,-1,l),
(271,-6,l),
(285,-1,l),
(309,2,l),
(324,-2,l),
(363,1,l),
(377,11,l),
(394,10,l),
(422,39,l),
(444,61,l),
(448,71,l),
(454,100,l),
(451,118,l),
(441,133,l),
(439,141,l),
(437,154,l),
(415,165,l),
(414,175,l),
(400,176,l),
(386,182,l),
(343,182,l),
(327,198,l),
(333,210,l),
(337,219,l),
(339,234,l),
(340,244,l),
(342,257,l),
(348,263,l),
(345,274,l),
(342,284,l),
(345,298,l),
(347,303,l),
(353,314,l),
(349,327,l),
(350,340,l),
(356,352,l),
(359,360,l),
(365,369,l),
(369,376,l),
(359,386,l),
(364,395,l),
(370,403,l),
(367,414,l),
(365,421,l),
(374,439,l),
(383,451,l),
(381,461,l),
(378,469,l),
(386,478,l),
(379,495,l),
(387,512,l),
(395,530,l),
(388,543,l),
(381,561,l),
(381,571,l),
(373,580,l),
(353,590,l),
(340,598,l),
(324,608,l),
(303,603,l),
(280,602,l),
(269,598,l),
(253,588,l),
(227,565,l),
(211,561,l),
(204,550,l),
(186,552,l),
(138,529,l),
(118,530,l),
(93,520,l),
(86,507,l),
(54,484,l),
(44,477,l),
(36,444,l),
(42,411,l),
(40,394,l),
(53,388,l),
(50,374,l),
(66,366,l),
(70,356,l),
(87,348,l),
(105,339,l),
(130,336,l),
(145,331,l),
(144,321,l),
(142,312,l),
(141,306,l),
(141,299,l),
(141,294,l),
(142,286,l),
(143,278,l),
(142,269,l),
(142,261,l),
(141,255,l),
(141,251,l),
(139,244,l),
(134,237,l),
(133,232,l),
(130,226,l),
(126,217,l),
(128,213,l),
(129,205,l),
(125,200,l),
(122,195,l),
(124,188,l),
(117,185,l),
(107,181,l),
(88,176,l),
(73,177,l),
(46,166,l),
(28,159,l),
(-5,130,l),
(-4,120,l),
(-15,98,l),
(-16,56,l),
(-6,39,l),
(0,15,l),
(9,10,l),
(23,-3,l),
(113,-7,l),
(119,-12,l)
);
}
);
width = 478;
},
{
hints = (
{
horizontal = 1;
place = (0,70);
type = Stem;
},
{
place = (130,107);
type = Stem;
}
);
layerId = m003;
shapes = (
{
closed = 1;
nodes = (
(-15,-6,l),
(15,-8,l),
(43,-8,l),
(55,-3,l),
(65,-5,l),
(82,-5,l),
(94,-3,l),
(111,-1,l),
(123,-6,l),
(140,1,l),
(160,-1,l),
(173,1,l),
(194,-1,l),
(204,3,l),
(219,2,l),
(235,-4,l),
(255,3,l),
(279,-5,l),
(295,4,l),
(309,18,l),
(300,44,l),
(308,53,l),
(289,61,l),
(258,60,l),
(244,63,l),
(226,58,l),
(216,60,l),
(195,57,l),
(174,54,l),
(184,72,l),
(183,93,l),
(184,106,l),
(185,134,l),
(193,152,l),
(189,164,l),
(199,185,l),
(199,193,l),
(201,215,l),
(208,230,l),
(207,242,l),
(214,252,l),
(217,268,l),
(209,284,l),
(225,305,l),
(227,316,l),
(224,332,l),
(225,345,l),
(224,364,l),
(235,374,l),
(239,386,l),
(234,401,l),
(247,420,l),
(242,433,l),
(247,454,l),
(240,461,l),
(242,475,l),
(255,491,l),
(255,513,l),
(262,526,l),
(262,536,l),
(269,557,l),
(260,584,l),
(260,593,l),
(251,604,l),
(233,599,l),
(214,590,l),
(201,573,l),
(182,567,l),
(171,560,l),
(155,556,l),
(135,551,l),
(128,541,l),
(116,534,l),
(97,538,l),
(76,528,l),
(48,519,l),
(38,507,l),
(36,494,l),
(34,481,l),
(37,466,l),
(50,454,l),
(62,455,l),
(77,456,l),
(82,456,l),
(94,463,l),
(121,468,l),
(123,482,l),
(137,484,l),
(149,485,l),
(165,488,l),
(160,475,l),
(152,452,l),
(155,437,l),
(159,421,l),
(143,396,l),
(140,382,l),
(151,365,l),
(145,346,l),
(143,331,l),
(131,323,l),
(142,307,l),
(130,286,l),
(126,272,l),
(131,255,l),
(129,241,l),
(116,227,l),
(128,218,l),
(118,201,l),
(117,184,l),
(109,166,l),
(112,154,l),
(112,126,l),
(104,107,l),
(95,94,l),
(103,77,l),
(95,57,l),
(73,58,l),
(57,54,l),
(42,59,l),
(34,53,l),
(15,53,l),
(-17,50,l),
(-34,44,l),
(-42,18,l),
(-25,0,l),
(-19,-12,l)
);
}
);
width = 365;
}
);
metricLeft = "=H/2";
metricRight = "=O/3";
note = one;
unicode = 49;
}
{
glyphname = two;
kernLeft = KO_two;
kernRight = KO_two;
layers = (
{
hints = (
{
horizontal = 1;
place = (0,70);
type = Stem;
},
{
horizontal = 1;
place = (535,75);
type = Stem;
},
{
place = (-34,118);
type = Stem;
},
{
place = (294,122);
type = Stem;
}
);
layerId = m005;
shapes = (
{
closed = 1;
nodes = (
(30,-14,l),
(47,-10,l),
(63,-7,l),
(70,-11,l),
(90,-10,l),
(106,-4,l),
(129,-1,l),
(144,-4,l),
(152,-3,l),
(170,-6,l),
(189,-2,l),
(202,3,l),
(210,1,l),
(223,2,l),
(248,1,l),
(256,3,l),
(269,4,l),
(285,1,l),
(299,4,l),
(320,0,l),
(328,-3,l),
(343,-2,l),
(368,-1,l),
(396,1,l),
(419,13,l),
(422,19,l),
(437,54,l),
(428,64,l),
(430,77,l),
(425,85,l),
(410,93,l),
(372,91,l),
(363,93,l),
(342,90,l),
(333,86,l),
(311,83,l),
(304,85,l),
(290,86,l),
(278,83,l),
(260,84,l),
(245,85,l),
(220,78,l),
(211,81,l),
(202,78,l),
(176,78,l),
(167,80,l),
(143,75,l),
(131,79,l),
(127,77,l),
(107,79,l),
(88,78,l),
(87,98,l),
(98,114,l),
(96,130,l),
(104,136,l),
(118,152,l),
(122,166,l),
(133,176,l),
(153,186,l),
(162,189,l),
(176,198,l),
(202,215,l),
(241,230,l),
(256,229,l),
(265,237,l),
(272,239,l),
(290,255,l),
(308,260,l),
(321,266,l),
(339,274,l),
(349,276,l),
(359,286,l),
(383,298,l),
(390,299,l),
(401,308,l),
(419,324,l),
(438,333,l),
(450,347,l),
(456,362,l),
(467,371,l),
(466,381,l),
(475,399,l),
(475,411,l),
(486,442,l),
(481,462,l),
(492,475,l),
(479,486,l),
(487,506,l),
(482,519,l),
(474,530,l),
(466,542,l),
(457,548,l),
(448,565,l),
(442,575,l),
(431,583,l),
(409,585,l),
(392,596,l),
(385,593,l),
(368,597,l),
(353,602,l),
(335,608,l),
(322,606,l),
(307,605,l),
(299,606,l),
(273,614,l),
(255,610,l),
(238,604,l),
(218,602,l),
(199,604,l),
(186,605,l),
(177,596,l),
(160,597,l),
(136,587,l),
(121,584,l),
(106,583,l),
(89,570,l),
(70,561,l),
(56,548,l),
(48,534,l),
(57,509,l),
(65,496,l),
(77,486,l),
(86,485,l),
(104,489,l),
(129,501,l),
(141,502,l),
(153,513,l),
(174,520,l),
(192,524,l),
(209,530,l),
(223,527,l),
(236,530,l),
(256,530,l),
(280,532,l),
(297,530,l),
(307,528,l),
(328,528,l),
(341,525,l),
(354,512,l),
(368,507,l),
(383,503,l),
(385,491,l),
(388,476,l),
(402,459,l),
(395,446,l),
(386,417,l),
(389,405,l),
(376,384,l),
(366,374,l),
(362,367,l),
(347,356,l),
(327,349,l),
(318,340,l),
(302,332,l),
(295,328,l),
(278,322,l),
(263,308,l),
(244,305,l),
(231,299,l),
(220,291,l),
(199,284,l),
(178,273,l),
(160,265,l),
(139,258,l),
(126,247,l),
(115,241,l),
(93,230,l),
(84,228,l),
(71,209,l),
(58,206,l),
(53,188,l),
(39,184,l),
(23,167,l),
(20,158,l),
(12,137,l),
(-4,124,l),
(-3,108,l),
(-17,98,l),
(-13,78,l),
(-26,64,l),
(-23,34,l),
(-29,25,l),
(-13,13,l),
(-8,0,l),
(0,-7,l)
);
}
);
width = 515;
},
{
hints = (
{
horizontal = 1;
place = (0,70);
type = Stem;
},
{
horizontal = 1;
place = (535,75);
type = Stem;
},
{
place = (-34,118);
type = Stem;
},
{
place = (294,122);
type = Stem;
}
);
layerId = m002;
shapes = (
{
closed = 1;
nodes = (
(79,-10,l),
(105,-13,l),
(115,-4,l),
(136,-8,l),
(142,-9,l),
(163,-6,l),
(172,-6,l),
(196,-3,l),
(207,-2,l),
(216,-5,l),
(239,2,l),
(252,-1,l),
(267,-4,l),
(272,-4,l),
(290,-6,l),
(308,-5,l),
(330,4,l),
(341,1,l),
(350,2,l),
(366,-1,l),
(403,4,l),
(408,3,l),
(446,0,l),
(457,8,l),
(468,4,l),
(494,18,l),
(506,19,l),
(517,34,l),
(518,45,l),
(535,58,l),
(541,72,l),
(540,97,l),
(545,118,l),
(536,130,l),
(528,148,l),
(535,155,l),
(514,173,l),
(506,180,l),
(492,190,l),
(484,192,l),
(467,197,l),
(433,189,l),
(424,196,l),
(416,190,l),
(399,190,l),
(382,187,l),
(357,188,l),
(346,182,l),
(336,185,l),
(315,183,l),
(306,181,l),
(285,184,l),
(261,179,l),
(247,189,l),
(246,201,l),
(276,218,l),
(308,234,l),
(327,233,l),
(341,240,l),
(360,245,l),
(362,242,l),
(384,249,l),
(396,260,l),
(408,260,l),
(424,263,l),
(440,273,l),
(454,275,l),
(477,285,l),
(489,288,l),
(496,295,l),
(521,309,l),
(529,322,l),
(533,329,l),
(553,342,l),
(565,352,l),
(571,367,l),
(571,386,l),
(583,398,l),
(587,429,l),
(585,445,l),
(579,460,l),
(580,470,l),
(583,484,l),
(574,505,l),
(565,513,l),
(565,524,l),
(549,534,l),
(551,552,l),
(535,563,l),
(532,565,l),
(521,573,l),
(511,588,l),
(487,594,l),
(472,593,l),
(470,606,l),
(453,611,l),
(441,612,l),
(426,617,l),
(414,614,l),
(396,619,l),
(376,620,l),
(360,623,l),
(356,624,l),
(316,623,l),
(305,619,l),
(297,626,l),
(273,617,l),
(265,618,l),
(249,615,l),
(233,615,l),
(213,611,l),
(196,609,l),
(192,603,l),
(173,602,l),
(157,592,l),
(142,592,l),
(114,573,l),
(101,564,l),
(88,562,l),
(76,543,l),
(56,529,l),
(55,518,l),
(47,509,l),
(46,489,l),
(51,460,l),
(59,447,l),
(63,435,l),
(73,419,l),
(79,416,l),
(96,409,l),
(99,402,l),
(119,401,l),
(137,398,l),
(148,405,l),
(165,406,l),
(196,421,l),
(204,426,l),
(218,431,l),
(240,435,l),
(249,447,l),
(258,442,l),
(285,451,l),
(299,452,l),
(319,447,l),
(341,445,l),
(351,448,l),
(361,442,l),
(375,440,l),
(386,426,l),
(388,397,l),
(376,390,l),
(352,383,l),
(336,379,l),
(329,368,l),
(314,366,l),
(296,359,l),
(289,353,l),
(260,349,l),
(254,343,l),
(238,332,l),
(206,317,l),
(196,311,l),
(181,311,l),
(163,296,l),
(152,298,l),
(136,289,l),
(116,277,l),
(107,275,l),
(89,264,l),
(83,253,l),
(71,247,l),
(56,235,l),
(39,229,l),
(34,210,l),
(29,201,l),
(9,185,l),
(4,178,l),
(-1,161,l),
(-11,148,l),
(-8,130,l),
(-11,112,l),
(-8,89,l),
(-12,65,l),
(-21,50,l),
(-12,40,l),
(-12,23,l),
(0,18,l),
(15,1,l),
(26,1,l),
(45,-7,l),
(56,-15,l)
);
}
);
width = 568;
},
{
hints = (
{
horizontal = 1;
place = (0,70);
type = Stem;
},
{
horizontal = 1;
place = (535,75);
type = Stem;
},
{
place = (-34,118);
type = Stem;
},
{
place = (294,122);
type = Stem;
}
);
layerId = m003;
shapes = (
{
closed = 1;
nodes = (
(17,-13,l),
(36,-4,l),
(44,-5,l),
(57,-7,l),
(81,-5,l),
(95,-7,l),
(108,-2,l),
(122,-7,l),
(134,0,l),
(173,0,l),
(185,-5,l),
(199,-2,l),
(211,-1,l),
(226,-4,l),
(241,0,l),
(259,-4,l),
(275,1,l),
(288,-2,l),
(304,0,l),
(325,3,l),
(331,-2,l),
(353,-3,l),
(386,6,l),
(397,14,l),
(401,38,l),
(411,50,l),
(404,67,l),
(383,69,l),
(363,71,l),
(352,75,l),
(327,68,l),
(319,67,l),
(299,72,l),
(288,62,l),
(271,62,l),
(259,64,l),
(235,64,l),
(232,65,l),
(205,63,l),
(203,58,l),
(181,62,l),
(170,60,l),
(151,53,l),
(127,51,l),
(113,57,l),
(108,52,l),
(87,51,l),
(70,51,l),
(51,61,l),
(51,71,l),
(54,90,l),
(64,106,l),
(72,118,l),
(75,127,l),
(86,148,l),
(103,156,l),
(109,167,l),
(119,182,l),
(129,187,l),
(155,196,l),
(162,203,l),
(179,212,l),
(195,221,l),
(225,238,l),
(230,245,l),
(245,247,l),
(261,254,l),
(284,263,l),
(296,271,l),
(305,269,l),
(316,281,l),
(342,283,l),
(356,293,l),
(362,306,l),
(376,317,l),
(392,327,l),
(402,337,l),
(425,346,l),
(425,362,l),
(433,374,l),
(451,384,l),
(455,397,l),
(456,417,l),
(469,448,l),
(471,458,l),
(460,477,l),
(462,484,l),
(465,500,l),
(464,520,l),
(461,533,l),
(439,537,l),
(433,551,l),
(433,563,l),
(424,570,l),
(406,582,l),
(390,585,l),
(385,595,l),
(365,596,l),
(359,597,l),
(344,604,l),
(334,606,l),
(312,608,l),
(298,610,l),
(282,606,l),
(254,614,l),
(241,604,l),
(228,607,l),
(203,604,l),
(189,605,l),
(178,601,l),
(164,594,l),
(140,589,l),
(129,593,l),
(118,587,l),
(105,584,l),
(74,569,l),
(61,561,l),
(54,545,l),
(56,513,l),
(69,505,l),
(83,507,l),
(120,518,l),
(122,520,l),
(142,529,l),
(152,538,l),
(169,540,l),
(180,543,l),
(196,544,l),
(210,547,l),
(230,555,l),
(247,550,l),
(276,557,l),
(287,553,l),
(302,553,l),
(318,551,l),
(335,538,l),
(350,540,l),
(347,527,l),
(371,522,l),
(375,514,l),
(378,503,l),
(387,485,l),
(398,475,l),
(400,461,l),
(392,440,l),
(388,417,l),
(388,400,l),
(367,384,l),
(366,376,l),
(345,358,l),
(339,350,l),
(332,344,l),
(311,328,l),
(291,324,l),
(280,314,l),
(265,307,l),
(250,302,l),
(242,298,l),
(220,295,l),
(204,288,l),
(192,280,l),
(158,263,l),
(152,255,l),
(126,251,l),
(122,243,l),
(104,236,l),
(90,222,l),
(73,214,l),
(68,208,l),
(51,189,l),
(45,176,l),
(31,165,l),
(29,157,l),
(11,142,l),
(11,131,l),
(-3,113,l),
(-3,96,l),
(-12,88,l),
(-27,67,l),
(-23,52,l),
(-31,26,l),
(-29,9,l),
(-20,4,l),
(-13,-8,l)
);
}
);
width = 483;
},
{
hints = (
{
horizontal = 1;
place = (0,70);
type = Stem;
},
{
horizontal = 1;
place = (535,75);
type = Stem;
},
{
place = (-34,118);
type = Stem;
},
{
place = (294,122);
type = Stem;
}
);
layerId = "27802CB9-B49D-4E25-883A-F5F5DC48409B";
shapes = (
{
closed = 1;
nodes = (
(37,-10,l),
(60,-7,l),
(64,-3,l),
(85,-9,l),
(101,-8,l),
(117,-1,l),
(132,-2,l),
(150,1,l),
(164,-1,l),
(197,-5,l),
(203,3,l),
(217,-4,l),
(235,-1,l),
(252,-3,l),
(259,-1,l),
(282,4,l),
(291,0,l),
(309,2,l),
(322,2,l),
(348,-2,l),
(355,4,l),
(364,-3,l),
(393,-4,l),
(410,7,l),
(427,15,l),
(445,16,l),
(448,32,l),
(459,62,l),
(446,72,l),
(446,90,l),
(445,102,l),
(437,104,l),
(417,117,l),
(390,112,l),
(373,107,l),
(364,109,l),
(352,112,l),
(329,103,l),
(314,109,l),
(297,107,l),
(281,100,l),
(278,105,l),
(253,100,l),
(240,105,l),
(224,101,l),
(206,98,l),
(192,101,l),
(175,95,l),
(171,96,l),
(152,95,l),
(139,94,l),
(114,101,l),
(126,127,l),
(121,139,l),
(132,156,l),
(143,166,l),
(153,173,l),
(170,191,l),
(194,193,l),
(207,201,l),
(221,213,l),
(245,225,l),
(262,231,l),
(282,234,l),
(292,244,l),
(306,249,l),
(316,257,l),
(340,262,l),
(359,272,l),
(361,272,l),
(381,280,l),
(402,295,l),
(404,295,l),
(422,312,l),
(436,317,l),
(446,334,l),
(464,343,l),
(472,353,l),
(486,365,l),
(486,385,l),
(500,395,l),
(507,416,l),
(506,443,l),
(511,457,l),
(509,471,l),
(504,485,l),
(499,501,l),
(493,509,l),
(497,521,l),
(485,534,l),
(474,552,l),
(469,559,l),
(454,569,l),
(440,579,l),
(430,586,l),
(416,592,l),
(401,592,l),
(386,596,l),
(383,601,l),
(362,609,l),
(344,611,l),
(331,609,l),
(318,616,l),
(312,611,l),
(270,614,l),
(263,614,l),
(245,613,l),
(237,607,l),
(212,608,l),
(196,601,l),
(179,597,l),
(167,601,l),
(151,597,l),
(142,591,l),
(121,581,l),
(117,585,l),
(89,563,l),
(62,554,l),
(63,539,l),
(51,526,l),
(52,495,l),
(65,483,l),
(67,477,l),
(78,468,l),
(95,464,l),
(116,467,l),
(138,488,l),
(150,496,l),
(170,495,l),
(185,508,l),
(201,507,l),
(218,510,l),
(230,516,l),
(240,512,l),
(255,520,l),
(286,518,l),
(307,518,l),
(312,509,l),
(331,505,l),
(345,502,l),
(363,498,l),
(367,491,l),
(375,483,l),
(391,467,l),
(388,455,l),
(398,442,l),
(386,410,l),
(381,400,l),
(371,390,l),
(364,377,l),
(346,362,l),
(337,360,l),
(322,347,l),
(308,337,l),
(293,337,l),
(274,323,l),
(267,326,l),
(246,320,l),
(239,309,l),
(220,306,l),
(208,296,l),
(175,288,l),
(160,279,l),
(147,274,l),
(132,266,l),
(128,257,l),
(113,244,l),
(95,238,l),
(75,224,l),
(72,219,l),
(62,208,l),
(41,198,l),
(32,184,l),
(28,171,l),
(12,163,l),
(8,151,l),
(6,138,l),
(-10,117,l),
(-13,108,l),
(-17,90,l),
(-15,73,l),
(-30,43,l),
(-21,27,l),
(-13,18,l),
(-15,0,l),
(-8,-4,l),
(7,-14,l)
);
}
);
width = 527;
},
{
hints = (
{
horizontal = 1;
place = (0,70);
type = Stem;
},
{
horizontal = 1;
place = (535,75);
type = Stem;
},
{
place = (-34,118);
type = Stem;
},
{
place = (294,122);
type = Stem;
}
);
layerId = "9BFA4F56-4850-48F5-A038-9DAB9408749E";
shapes = (
{
closed = 1;
nodes = (
(57,-6,l),
(61,-13,l),
(83,-6,l),
(91,-2,l),
(113,-3,l),
(130,-3,l),
(148,-6,l),
(158,-6,l),
(168,-7,l),
(187,-6,l),
(205,-4,l),
(225,-1,l),
(236,-5,l),
(245,-2,l),
(266,1,l),
(278,3,l),
(293,0,l),
(301,1,l),
(318,-3,l),
(338,1,l),
(350,1,l),
(364,3,l),
(384,3,l),
(413,-4,l),
(429,9,l),
(440,10,l),
(460,16,l),
(466,27,l),
(474,45,l),
(472,73,l),
(470,85,l),
(471,98,l),
(460,115,l),
(452,122,l),
(445,134,l),
(437,129,l),
(388,135,l),
(375,128,l),
(356,128,l),
(339,126,l),
(325,131,l),
(306,121,l),
(301,120,l),
(283,127,l),
(269,121,l),
(245,121,l),
(241,122,l),
(229,117,l),
(212,121,l),
(193,117,l),
(176,113,l),
(142,125,l),
(159,150,l),
(164,161,l),
(177,180,l),
(200,192,l),
(205,196,l),
(227,211,l),
(240,218,l),
(287,235,l),
(301,239,l),
(317,249,l),
(327,252,l),
(334,253,l),
(360,261,l),
(376,266,l),
(391,273,l),
(405,284,l),
(415,291,l),
(428,293,l),
(442,306,l),
(463,317,l),
(462,322,l),
(483,340,l),
(491,347,l),
(501,359,l),
(514,381,l),
(509,393,l),
(514,411,l),
(533,443,l),
(529,453,l),
(527,471,l),
(517,480,l),
(523,498,l),
(515,511,l),
(512,525,l),
(511,535,l),
(497,549,l),
(488,551,l),
(482,567,l),
(468,569,l),
(461,577,l),
(445,583,l),
(411,601,l),
(410,604,l),
(396,607,l),
(379,609,l),
(363,611,l),
(346,618,l),
(334,612,l),
(318,615,l),
(290,615,l),
(279,618,l),
(257,609,l),
(234,607,l),
(231,609,l),
(209,604,l),
(199,608,l),
(179,600,l),
(161,592,l),
(147,588,l),
(137,588,l),
(121,585,l),
(95,564,l),
(79,555,l),
(69,549,l),
(63,532,l),
(46,514,l),
(58,482,l),
(56,478,l),
(63,464,l),
(82,454,l),
(92,455,l),
(117,452,l),
(123,450,l),
(151,468,l),
(171,477,l),
(177,486,l),
(195,484,l),
(208,491,l),
(228,494,l),
(241,496,l),
(259,501,l),
(273,500,l),
(293,496,l),
(309,494,l),
(334,501,l),
(343,495,l),
(362,491,l),
(369,482,l),
(384,472,l),
(383,461,l),
(384,448,l),
(402,439,l),
(386,409,l),
(386,399,l),
(366,385,l),
(366,372,l),
(351,360,l),
(328,354,l),
(320,349,l),
(298,339,l),
(292,339,l),
(270,331,l),
(261,323,l),
(252,320,l),
(222,309,l),
(209,309,l),
(181,292,l),
(179,288,l),
(154,280,l),
(139,270,l),
(135,260,l),
(123,257,l),
(108,251,l),
(92,237,l),
(69,226,l),
(56,214,l),
(51,208,l),
(39,199,l),
(28,185,l),
(23,175,l),
(11,157,l),
(2,141,l),
(-9,133,l),
(-10,116,l),
(-15,104,l),
(-20,81,l),
(-26,60,l),
(-14,41,l),
(-10,30,l),
(-13,12,l),
(3,5,l),
(10,-7,l),
(28,-14,l)
);
}
);
width = 536;
},
{
hints = (
{
horizontal = 1;
place = (0,70);
type = Stem;
},
{
horizontal = 1;
place = (535,75);
type = Stem;
},
{
place = (-34,118);
type = Stem;
},
{
place = (294,122);
type = Stem;
}
);
layerId = "B734896E-9115-4752-AF37-164D25EC5193";
shapes = (
{
closed = 1;
nodes = (
(60,-10,l),
(76,-5,l),
(99,-4,l),
(107,-8,l),
(116,-6,l),
(135,-6,l),
(149,-4,l),
(160,-8,l),
(189,-5,l),
(195,-7,l),
(209,-1,l),
(225,-6,l),
(263,-2,l),
(269,-4,l),
(287,0,l),
(300,4,l),
(318,-5,l),
(329,3,l),
(347,1,l),
(360,1,l),
(385,-2,l),
(399,2,l),
(418,4,l),
(433,-1,l),
(443,7,l),
(457,12,l),
(469,23,l),
(491,36,l),
(494,51,l),
(494,80,l),
(502,96,l),
(498,109,l),
(491,121,l),
(479,131,l),
(467,145,l),
(455,146,l),
(448,152,l),
(409,155,l),
(393,154,l),
(389,150,l),
(375,150,l),
(351,147,l),
(337,143,l),
(322,143,l),
(306,141,l),
(287,143,l),
(272,139,l),
(252,144,l),
(246,139,l),
(222,140,l),
(207,135,l),
(178,139,l),
(184,150,l),
(203,179,l),
(203,184,l),
(225,196,l),
(229,204,l),
(245,219,l),
(272,230,l),
(299,238,l),
(300,236,l),
(318,241,l),
(340,249,l),
(350,251,l),
(368,256,l),
(377,263,l),
(388,272,l),
(406,273,l),
(417,280,l),
(436,289,l),
(444,298,l),
(471,306,l),
(477,310,l),
(487,323,l),
(508,340,l),
(511,353,l),
(527,365,l),
(534,380,l),
(534,390,l),
(541,409,l),
(539,432,l),
(546,447,l),
(547,465,l),
(548,477,l),
(541,488,l),
(530,506,l),
(532,516,l),
(521,533,l),
(514,545,l),
(511,548,l),
(496,561,l),
(489,568,l),
(475,581,l),
(469,581,l),
(454,592,l),
(438,596,l),
(428,603,l),
(419,603,l),
(395,612,l),
(379,613,l),
(372,619,l),
(362,620,l),
(336,620,l),
(327,621,l),
(290,615,l),
(280,621,l),
(263,616,l),
(243,611,l),
(231,612,l),
(216,611,l),
(197,605,l),
(189,608,l),
(171,596,l),
(156,596,l),
(139,594,l),
(127,588,l),
(98,571,l),
(88,558,l),
(78,551,l),
(61,534,l),
(48,528,l),
(49,506,l),
(48,476,l),
(62,470,l),
(58,458,l),
(77,450,l),
(80,443,l),
(102,436,l),
(105,430,l),
(120,431,l),
(142,439,l),
(170,458,l),
(181,464,l),
(208,470,l),
(234,474,l),
(242,476,l),
(263,486,l),
(272,481,l),
(310,483,l),
(317,485,l),
(331,480,l),
(353,477,l),
(360,469,l),
(371,468,l),
(382,462,l),
(394,445,l),
(391,434,l),
(386,403,l),
(373,395,l),
(364,378,l),
(361,377,l),
(346,364,l),
(325,355,l),
(314,356,l),
(301,349,l),
(281,338,l),
(267,337,l),
(256,331,l),
(239,324,l),
(221,316,l),
(198,299,l),
(173,299,l),
(164,285,l),
(150,278,l),
(130,269,l),
(118,269,l),
(108,254,l),
(88,244,l),
(80,237,l),
(60,226,l),
(47,214,l),
(45,209,l),
(36,195,l),
(26,179,l),
(11,170,l),
(5,154,l),
(0,145,l),
(-15,129,l),
(-14,115,l),
(-17,93,l),
(-21,61,l),
(-15,50,l),
(-22,39,l),
(-14,26,l),
(-11,14,l),
(8,-1,l),
(11,-4,l),
(36,-13,l)
);
}
);
width = 543;
},
{
hints = (
{
horizontal = 1;
place = (0,70);
type = Stem;
},
{
horizontal = 1;
place = (535,75);
type = Stem;
},
{
place = (-35,118);
type = Stem;
},
{
place = (293,122);
type = Stem;
}
);
layerId = "FC6EA5DF-75BF-4555-8471-DBE331F6C0F3";
shapes = (
{
closed = 1;
nodes = (
(81,-6,l),
(89,-5,l),
(110,-8,l),
(122,-6,l),
(142,-3,l),
(144,-5,l),
(168,-2,l),
(184,-4,l),
(197,-1,l),
(212,-3,l),
(221,0,l),
(244,3,l),
(259,1,l),
(273,0,l),
(283,3,l),
(294,4,l),
(309,1,l),
(336,3,l),
(344,2,l),
(356,-4,l),
(379,-3,l),
(384,1,l),
(413,3,l),
(439,-1,l),
(443,5,l),
(458,9,l),
(475,11,l),
(497,26,l),
(502,38,l),
(509,47,l),
(521,60,l),
(522,95,l),
(518,103,l),
(514,118,l),
(515,131,l),
(512,148,l),
(501,152,l),
(491,166,l),
(475,172,l),
(456,177,l),
(432,178,l),
(421,168,l),
(396,166,l),
(385,173,l),
(370,165,l),
(351,168,l),
(339,168,l),
(322,167,l),
(315,162,l),
(293,158,l),
(281,161,l),
(265,160,l),
(244,157,l),
(215,165,l),
(214,172,l),
(247,213,l),
(268,214,l),
(288,228,l),
(314,238,l),
(319,239,l),
(332,242,l),
(355,244,l),
(374,250,l),
(381,257,l),
(391,262,l),
(408,268,l),
(430,278,l),
(439,277,l),
(458,291,l),
(470,293,l),
(478,307,l),
(498,308,l),
(504,322,l),
(522,333,l),
(537,345,l),
(547,355,l),
(556,373,l),
(563,387,l),
(560,406,l),
(559,433,l),
(568,444,l),
(573,463,l),
(565,474,l),
(567,487,l),
(561,504,l),
(556,521,l),
(543,527,l),
(530,543,l),
(535,557,l),
(514,562,l),
(502,572,l),
(501,584,l),
(489,585,l),
(473,594,l),
(452,602,l),
(445,608,l),
(433,610,l),
(422,613,l),
(401,615,l),
(380,615,l),
(363,618,l),
(348,621,l),
(341,619,l),
(305,620,l),
(293,622,l),
(280,624,l),
(268,620,l),
(247,619,l),
(227,612,l),
(220,607,l),
(195,611,l),
(176,603,l),
(165,599,l),
(156,594,l),
(132,592,l),
(102,572,l),
(89,569,l),
(88,559,l),
(65,542,l),
(57,529,l),
(54,512,l),
(47,499,l),
(57,469,l),
(48,452,l),
(60,440,l),
(79,433,l),
(81,428,l),
(98,423,l),
(116,422,l),
(118,418,l),
(141,418,l),
(156,422,l),
(188,435,l),
(203,447,l),
(214,447,l),
(223,460,l),
(235,464,l),
(249,467,l),
(267,462,l),
(278,466,l),
(323,468,l),
(327,466,l),
(352,467,l),
(368,461,l),
(369,449,l),
(381,441,l),
(396,432,l),
(386,399,l),
(376,388,l),
(366,378,l),
(341,370,l),
(327,365,l),
(312,358,l),
(290,353,l),
(272,345,l),
(265,335,l),
(242,335,l),
(236,329,l),
(205,309,l),
(179,301,l),
(171,300,l),
(153,288,l),
(139,285,l),
(123,279,l),
(110,263,l),
(97,259,l),
(89,254,l),
(75,244,l),
(60,231,l),
(41,215,l),
(38,209,l),
(31,198,l),
(22,176,l),
(7,166,l),
(0,150,l),
(-2,136,l),
(-15,125,l),
(-16,103,l),
(-22,77,l),
(-19,64,l),
(-13,49,l),
(-8,36,l),
(3,23,l),
(9,9,l),
(19,-4,l),
(22,-11,l),
(51,-9,l)
);
}
);
width = 558;
}
);
metricLeft = "=H/2";
metricRight = "=O";
note = two;
unicode = 50;
}
{
glyphname = three;
kernLeft = KO_three;
kernRight = KO_three;
layers = (
{
hints = (
{
horizontal = 1;
place = (-78,70);
type = Stem;
},
{
horizontal = 1;
place = (282,64);
type = Stem;
},
{
horizontal = 1;
place = (531,69);
type = Stem;
},
{
place = (299,116);
type = Stem;
}
);
layerId = m005;
shapes = (
{
closed = 1;
nodes = (
(179,-79,l),
(194,-78,l),
(206,-78,l),
(222,-69,l),
(243,-71,l),
(251,-62,l),
(261,-60,l),
(280,-55,l),
(302,-45,l),
(305,-38,l),
(328,-25,l),
(345,-17,l),
(352,-8,l),
(373,11,l),
(385,33,l),
(389,44,l),
(398,57,l),
(417,70,l),
(411,82,l),
(420,99,l),
(421,112,l),
(435,133,l),
(435,157,l),
(442,173,l),
(433,189,l),
(436,207,l),
(427,224,l),
(433,239,l),
(432,250,l),
(422,263,l),
(410,272,l),
(408,291,l),
(389,295,l),
(392,307,l),
(378,312,l),
(365,324,l),
(347,333,l),
(332,328,l),
(313,332,l),
(306,342,l),
(288,338,l),
(276,342,l),
(254,339,l),
(234,347,l),
(259,362,l),
(262,372,l),
(273,386,l),
(289,389,l),
(306,409,l),
(312,419,l),
(329,426,l),
(344,437,l),
(349,452,l),
(366,460,l),
(366,464,l),
(389,481,l),
(393,494,l),
(413,500,l),
(428,514,l),
(429,521,l),
(462,549,l),
(468,556,l),
(470,570,l),
(453,581,l),
(446,598,l),
(437,595,l),
(403,599,l),
(390,597,l),
(373,602,l),
(363,602,l),
(345,601,l),
(336,604,l),
(316,601,l),
(304,602,l),
(286,602,l),
(264,601,l),
(254,604,l),
(245,600,l),
(228,597,l),
(200,599,l),
(193,602,l),
(173,603,l),
(167,602,l),
(152,604,l),
(139,598,l),
(104,595,l),
(85,592,l),
(76,586,l),
(74,577,l),
(59,544,l),
(64,532,l),
(74,517,l),
(86,507,l),
(119,507,l),
(131,515,l),
(146,517,l),
(160,513,l),
(174,520,l),
(196,521,l),
(203,519,l),
(220,521,l),
(238,517,l),
(245,517,l),
(275,524,l),
(280,518,l),
(291,519,l),
(315,518,l),
(308,491,l),
(289,489,l),
(282,472,l),
(262,462,l),
(261,446,l),
(236,435,l),
(231,424,l),
(219,411,l),
(211,404,l),
(192,396,l),
(189,383,l),
(177,367,l),
(162,355,l),
(154,345,l),
(127,328,l),
(115,313,l),
(115,297,l),
(105,264,l),
(118,261,l),
(131,259,l),
(157,265,l),
(173,265,l),
(180,260,l),
(212,268,l),
(237,270,l),
(243,274,l),
(269,268,l),
(280,263,l),
(288,263,l),
(303,256,l),
(305,240,l),
(320,237,l),
(332,218,l),
(334,208,l),
(337,196,l),
(341,179,l),
(340,158,l),
(332,128,l),
(332,116,l),
(314,100,l),
(311,83,l),
(312,74,l),
(299,62,l),
(285,54,l),
(268,43,l),
(267,33,l),
(246,24,l),
(234,23,l),
(215,18,l),
(210,18,l),
(194,10,l),
(158,16,l),
(142,11,l),
(127,11,l),
(114,21,l),
(106,24,l),
(79,27,l),
(80,32,l),
(60,32,l),
(38,49,l),
(16,46,l),
(-4,35,l),
(-8,24,l),
(-19,7,l),
(-30,-24,l),
(-19,-38,l),
(-7,-46,l),
(17,-54,l),
(20,-67,l),
(40,-64,l),
(54,-69,l),
(72,-76,l),
(85,-69,l),
(100,-74,l),
(112,-80,l),
(125,-75,l),
(151,-77,l)
);
}
);
width = 468;
},
{
hints = (
{
horizontal = 1;
place = (-78,70);
type = Stem;
},
{
horizontal = 1;
place = (282,64);
type = Stem;
},
{
horizontal = 1;
place = (531,69);
type = Stem;
},
{
place = (299,116);
type = Stem;
}
);
layerId = m002;
shapes = (
{
closed = 1;
nodes = (
(201,-95,l),
(209,-91,l),
(224,-93,l),
(241,-91,l),
(257,-86,l),
(271,-84,l),
(285,-81,l),
(306,-71,l),
(326,-63,l),
(338,-60,l),
(353,-54,l),
(367,-47,l),
(370,-41,l),
(389,-35,l),
(402,-25,l),
(410,-16,l),
(427,0,l),
(438,15,l),
(454,17,l),
(453,37,l),
(473,47,l),
(471,57,l),
(479,72,l),
(498,90,l),
(495,98,l),
(496,118,l),
(512,128,l),
(511,160,l),
(512,171,l),
(517,194,l),
(511,201,l),
(519,224,l),
(505,235,l),
(504,250,l),
(506,258,l),
(505,275,l),
(493,289,l),
(492,299,l),
(474,315,l),
(478,324,l),
(459,329,l),
(454,345,l),
(438,353,l),
(432,364,l),
(423,362,l),
(403,376,l),
(390,385,l),
(390,389,l),
(406,405,l),
(419,418,l),
(424,421,l),
(443,433,l),
(459,447,l),
(461,458,l),
(480,467,l),
(497,476,l),
(498,487,l),
(511,502,l),
(515,514,l),
(523,530,l),
(521,542,l),
(527,560,l),
(517,578,l),
(520,585,l),
(511,597,l),
(485,600,l),
(482,607,l),
(465,617,l),
(439,616,l),
(414,616,l),
(397,613,l),
(395,619,l),
(375,617,l),
(364,610,l),
(336,617,l),
(322,612,l),
(311,618,l),
(299,613,l),
(277,612,l),
(264,617,l),
(246,614,l),
(235,617,l),
(227,614,l),
(212,616,l),
(185,617,l),
(178,616,l),
(155,617,l),
(136,609,l),
(112,613,l),
(100,608,l),
(74,593,l),
(56,585,l),
(49,566,l),
(50,551,l),
(32,542,l),
(30,508,l),
(34,496,l),
(40,480,l),
(46,471,l),
(45,459,l),
(54,443,l),
(69,438,l),
(77,427,l),
(97,425,l),
(106,428,l),
(130,424,l),
(150,431,l),
(166,433,l),
(198,432,l),
(191,412,l),
(169,394,l),
(162,381,l),
(149,375,l),
(116,359,l),
(114,347,l),
(103,340,l),
(91,324,l),
(83,312,l),
(90,297,l),
(78,262,l),
(76,250,l),
(93,238,l),
(91,224,l),
(113,220,l),
(123,214,l),
(136,217,l),
(149,207,l),
(167,211,l),
(182,215,l),
(191,211,l),
(218,214,l),
(241,214,l),
(255,221,l),
(274,212,l),
(288,207,l),
(302,196,l),
(305,192,l),
(314,170,l),
(307,156,l),
(300,129,l),
(306,123,l),
(289,113,l),
(266,106,l),
(252,105,l),
(238,102,l),
(233,94,l),
(218,96,l),
(196,98,l),
(182,99,l),
(168,100,l),
(163,105,l),
(148,101,l),
(124,108,l),
(116,117,l),
(91,122,l),
(80,126,l),
(65,129,l),
(45,131,l),
(31,124,l),
(24,113,l),
(0,107,l),
(-3,102,l),
(-19,85,l),
(-19,78,l),
(-35,61,l),
(-41,46,l),
(-44,19,l),
(-41,2,l),
(-38,-14,l),
(-31,-25,l),
(-29,-42,l),
(-10,-52,l),
(-10,-59,l),
(15,-70,l),
(31,-78,l),
(56,-76,l),
(68,-80,l),
(84,-89,l),
(94,-82,l),
(107,-92,l),
(119,-89,l),
(134,-93,l),
(148,-92,l),
(168,-96,l)
);
}
);
width = 531;
},
{
hints = (
{
horizontal = 1;
place = (-78,70);
type = Stem;
},
{
horizontal = 1;
place = (282,64);
type = Stem;
},
{
horizontal = 1;
place = (531,69);
type = Stem;
},
{
place = (298,116);
type = Stem;
}
);
layerId = m003;
shapes = (
{
closed = 1;
nodes = (
(173,-74,l),
(180,-72,l),
(198,-79,l),
(220,-72,l),
(235,-64,l),
(248,-60,l),
(265,-62,l),
(276,-54,l),
(296,-49,l),
(304,-36,l),
(324,-27,l),
(326,-19,l),
(341,-13,l),
(351,3,l),
(366,16,l),
(375,46,l),
(382,58,l),
(401,70,l),
(405,85,l),
(411,98,l),
(406,120,l),
(413,134,l),
(414,157,l),
(426,177,l),
(420,190,l),
(417,206,l),
(421,223,l),
(422,236,l),
(410,243,l),
(410,259,l),
(403,268,l),
(385,282,l),
(386,288,l),
(373,306,l),
(361,306,l),
(347,320,l),
(335,326,l),
(310,333,l),
(285,335,l),
(274,327,l),
(268,332,l),
(250,335,l),
(233,329,l),
(215,331,l),
(194,324,l),
(207,340,l),
(228,356,l),
(227,367,l),
(242,379,l),
(253,383,l),
(266,395,l),
(280,403,l),
(293,418,l),
(310,433,l),
(314,443,l),
(326,451,l),
(342,461,l),
(358,477,l),
(367,483,l),
(377,492,l),
(384,504,l),
(402,522,l),
(414,525,l),
(422,537,l),
(442,568,l),
(453,577,l),
(444,596,l),
(436,599,l),
(395,602,l),
(383,604,l),
(366,601,l),
(355,604,l),
(343,601,l),
(326,596,l),
(302,604,l),
(292,595,l),
(282,603,l),
(269,599,l),
(250,603,l),
(231,596,l),
(211,597,l),
(206,604,l),
(180,596,l),
(176,599,l),
(137,597,l),
(127,601,l),
(104,597,l),
(85,593,l),
(68,586,l),
(66,560,l),
(81,546,l),
(86,528,l),
(114,528,l),
(124,530,l),
(145,536,l),
(164,532,l),
(168,536,l),
(194,538,l),
(199,534,l),
(213,537,l),
(239,536,l),
(250,543,l),
(269,540,l),
(284,540,l),
(296,537,l),
(301,538,l),
(321,541,l),
(342,536,l),
(328,516,l),
(322,506,l),
(311,492,l),
(292,488,l),
(287,476,l),
(267,463,l),
(262,449,l),
(246,438,l),
(238,425,l),
(234,418,l),
(218,411,l),
(203,393,l),
(187,385,l),
(176,372,l),
(175,366,l),
(158,349,l),
(155,341,l),
(120,311,l),
(118,297,l),
(113,271,l),
(123,269,l),
(143,265,l),
(159,268,l),
(185,277,l),
(210,283,l),
(220,275,l),
(242,277,l),
(261,276,l),
(270,279,l),
(279,271,l),
(291,267,l),
(312,255,l),
(322,249,l),
(322,235,l),
(337,217,l),
(329,206,l),
(331,189,l),
(336,178,l),
(344,158,l),
(336,132,l),
(323,117,l),
(331,96,l),
(322,80,l),
(308,68,l),
(297,55,l),
(296,40,l),
(287,27,l),
(270,26,l),
(259,13,l),
(249,5,l),
(222,2,l),
(217,-3,l),
(200,-6,l),
(183,-5,l),
(149,-3,l),
(136,-4,l),
(119,-6,l),
(110,-7,l),
(82,1,l),
(81,6,l),
(53,9,l),
(47,12,l),
(17,27,l),
(1,24,l),
(-8,9,l),
(-24,-3,l),
(-21,-36,l),
(-14,-51,l),
(17,-62,l),
(31,-69,l),
(46,-65,l),
(63,-76,l),
(79,-78,l),
(91,-74,l),
(118,-72,l),
(140,-74,l)
);
}
);
width = 467;
}
);
metricLeft = "=T";
metricRight = "=S";
note = three;
unicode = 51;
}
{
glyphname = four;
kernLeft = KO_four;
kernRight = KO_four;
layers = (
{
hints = (
{
horizontal = 1;
place = (110,70);
type = Stem;
},
{
place = (274,102);
type = Stem;
}
);
layerId = m005;
shapes = (
{
closed = 1;
nodes = (
(301,-79,l),
(327,-68,l),
(343,-61,l),
(343,-47,l),
(351,-35,l),
(349,-1,l),
(359,9,l),
(346,26,l),
(357,36,l),
(358,57,l),
(353,67,l),
(369,92,l),
(393,92,l),
(408,96,l),
(435,99,l),
(453,104,l),
(455,117,l),
(465,146,l),
(469,160,l),
(462,176,l),
(438,179,l),
(415,182,l),
(406,187,l),
(384,189,l),
(376,214,l),
(386,221,l),
(384,239,l),
(392,250,l),
(387,268,l),
(399,279,l),
(400,296,l),
(393,311,l),
(398,333,l),
(400,346,l),
(407,359,l),
(416,376,l),
(419,387,l),
(415,402,l),
(418,412,l),
(424,435,l),
(428,451,l),
(426,459,l),
(437,479,l),
(439,489,l),
(432,505,l),
(436,522,l),
(447,534,l),
(443,567,l),
(450,581,l),
(432,591,l),
(423,597,l),
(397,597,l),
(381,598,l),
(359,582,l),
(329,565,l),
(323,558,l),
(303,542,l),
(276,525,l),
(266,514,l),
(258,507,l),
(246,488,l),
(228,471,l),
(216,461,l),
(198,452,l),
(178,432,l),
(181,430,l),
(158,413,l),
(147,404,l),
(134,389,l),
(131,375,l),
(119,367,l),
(109,357,l),
(97,341,l),
(89,329,l),
(70,320,l),
(69,306,l),
(56,291,l),
(38,282,l),
(40,270,l),
(19,247,l),
(5,231,l),
(-7,216,l),
(-24,188,l),
(-23,178,l),
(-32,157,l),
(-31,129,l),
(-28,115,l),
(-31,99,l),
(-22,87,l),
(-4,84,l),
(13,82,l),
(40,92,l),
(63,89,l),
(91,91,l),
(105,89,l),
(133,93,l),
(149,95,l),
(162,97,l),
(175,90,l),
(190,91,l),
(214,93,l),
(230,97,l),
(236,94,l),
(261,90,l),
(257,71,l),
(257,56,l),
(246,38,l),
(248,27,l),
(250,11,l),
(252,-7,l),
(242,-31,l),
(244,-52,l),
(253,-59,l),
(271,-68,l),
(278,-76,l)
);
},
{
closed = 1;
nodes = (
(89,177,l),
(100,199,l),
(98,214,l),
(112,224,l),
(125,238,l),
(141,268,l),
(156,273,l),
(166,292,l),
(179,302,l),
(186,314,l),
(203,329,l),
(225,350,l),
(228,360,l),
(248,373,l),
(258,390,l),
(269,392,l),
(284,409,l),
(303,432,l),
(316,442,l),
(322,426,l),
(310,387,l),
(313,376,l),
(304,357,l),
(313,342,l),
(306,335,l),
(297,301,l),
(289,289,l),
(291,273,l),
(286,254,l),
(289,225,l),
(280,189,l),
(247,180,l),
(236,185,l),
(220,183,l),
(204,186,l),
(192,182,l),
(160,181,l),
(136,182,l),
(125,178,l),
(102,173,l)
);
}
);
width = 513;
},
{
hints = (
{
horizontal = 1;
place = (110,70);
type = Stem;
},
{
place = (274,102);
type = Stem;
}
);
layerId = m002;
shapes = (
{
closed = 1;
nodes = (
(368,-88,l),
(396,-81,l),
(412,-65,l),
(429,-53,l),
(448,-45,l),
(455,-31,l),
(462,-15,l),
(467,-2,l),
(467,19,l),
(465,40,l),
(465,55,l),
(470,72,l),
(478,75,l),
(486,80,l),
(508,87,l),
(526,94,l),
(535,99,l),
(556,122,l),
(562,140,l),
(566,157,l),
(581,187,l),
(576,203,l),
(567,235,l),
(558,252,l),
(543,252,l),
(536,260,l),
(508,268,l),
(503,273,l),
(492,295,l),
(504,309,l),
(509,323,l),
(512,338,l),
(516,353,l),
(508,368,l),
(513,382,l),
(525,396,l),
(524,414,l),
(521,424,l),
(533,440,l),
(527,452,l),
(538,473,l),
(537,484,l),
(546,498,l),
(541,526,l),
(551,544,l),
(547,562,l),
(534,577,l),
(529,581,l),
(523,594,l),
(515,609,l),
(497,606,l),
(478,610,l),
(449,611,l),
(433,613,l),
(428,603,l),
(408,599,l),
(385,586,l),
(357,571,l),
(343,559,l),
(318,538,l),
(300,528,l),
(290,521,l),
(277,507,l),
(260,501,l),
(240,485,l),
(227,469,l),
(211,454,l),
(188,438,l),
(178,424,l),
(166,417,l),
(150,405,l),
(141,393,l),
(124,383,l),
(106,358,l),
(92,350,l),
(88,338,l),
(66,322,l),
(56,311,l),
(47,288,l),
(24,278,l),
(7,253,l),
(1,240,l),
(-16,223,l),
(-26,191,l),
(-33,163,l),
(-24,144,l),
(-28,128,l),
(-25,123,l),
(-10,108,l),
(0,97,l),
(1,87,l),
(25,76,l),
(69,73,l),
(90,72,l),
(112,70,l),
(123,77,l),
(133,80,l),
(164,75,l),
(190,77,l),
(214,82,l),
(220,78,l),
(239,81,l),
(260,77,l),
(261,55,l),
(260,42,l),
(250,29,l),
(259,6,l),
(257,-19,l),
(250,-27,l),
(259,-47,l),
(263,-55,l),
(278,-69,l),
(307,-79,l),
(312,-91,l),
(335,-88,l)
);
},
{
closed = 1;
nodes = (
(257,265,l),
(253,266,l),
(250,267,l),
(247,268,l),
(248,273,l),
(248,275,l),
(249,280,l),
(250,284,l),
(253,289,l),
(256,294,l),
(260,294,l),
(262,294,l),
(262,301,l),
(262,304,l),
(269,305,l),
(272,305,l),
(275,305,l),
(280,306,l),
(283,308,l),
(288,311,l),
(292,307,l),
(297,308,l),
(298,305,l),
(300,300,l),
(302,298,l),
(304,295,l),
(306,293,l),
(305,289,l),
(305,286,l),
(304,281,l),
(304,277,l),
(303,272,l),
(302,266,l),
(297,266,l),
(289,265,l),
(283,262,l),
(276,263,l),
(270,264,l),
(266,264,l),
(262,264,l)
);
}
);
width = 608;
},
{
hints = (
{
horizontal = 1;
place = (110,70);
type = Stem;
},
{
place = (273,102);
type = Stem;
}
);
layerId = m003;
shapes = (
{
closed = 1;
nodes = (
(312,-70,l),
(335,-71,l),
(349,-56,l),
(345,-43,l),
(345,-20,l),
(354,-3,l),
(346,14,l),
(357,27,l),
(349,47,l),
(357,75,l),
(366,88,l),
(385,96,l),
(400,97,l),
(418,92,l),
(440,97,l),
(460,108,l),
(469,142,l),
(456,147,l),
(444,161,l),
(430,164,l),
(417,165,l),
(402,166,l),
(386,160,l),
(378,162,l),
(378,182,l),
(379,199,l),
(387,214,l),
(384,230,l),
(389,245,l),
(387,275,l),
(392,295,l),
(405,320,l),
(405,337,l),
(403,356,l),
(410,364,l),
(406,378,l),
(408,393,l),
(421,410,l),
(415,429,l),
(423,437,l),
(423,454,l),
(422,469,l),
(436,482,l),
(435,502,l),
(434,519,l),
(446,530,l),
(442,545,l),
(441,564,l),
(442,572,l),
(445,585,l),
(432,601,l),
(412,603,l),
(394,596,l),
(375,588,l),
(349,570,l),
(342,555,l),
(326,547,l),
(309,539,l),
(296,524,l),
(284,514,l),
(272,504,l),
(259,494,l),
(260,487,l),
(247,468,l),
(222,454,l),
(202,439,l),
(197,424,l),
(185,414,l),
(164,395,l),
(143,382,l),
(145,362,l),
(126,353,l),
(123,341,l),
(99,322,l),
(82,309,l),
(83,295,l),
(62,281,l),
(59,267,l),
(48,256,l),
(38,236,l),
(27,229,l),
(18,218,l),
(6,200,l),
(-4,180,l),
(-11,159,l),
(-19,143,l),
(-25,117,l),
(-18,105,l),
(-19,95,l),
(3,86,l),
(26,84,l),
(45,91,l),
(64,85,l),
(83,94,l),
(115,87,l),
(129,91,l),
(158,97,l),
(173,94,l),
(194,99,l),
(195,90,l),
(223,91,l),
(245,93,l),
(261,95,l),
(284,88,l),
(280,69,l),
(274,56,l),
(267,41,l),
(276,26,l),
(261,0,l),
(260,-10,l),
(260,-26,l),
(259,-45,l),
(272,-53,l),
(276,-62,l),
(292,-72,l)
);
},
{
closed = 1;
nodes = (
(69,158,l),
(85,188,l),
(99,199,l),
(101,216,l),
(119,224,l),
(137,256,l),
(167,293,l),
(176,310,l),
(191,319,l),
(199,338,l),
(212,350,l),
(234,376,l),
(252,390,l),
(260,406,l),
(282,427,l),
(310,450,l),
(327,461,l),
(347,484,l),
(344,465,l),
(351,444,l),
(343,422,l),
(332,401,l),
(330,368,l),
(321,354,l),
(330,337,l),
(312,307,l),
(323,296,l),
(308,261,l),
(311,236,l),
(307,215,l),
(296,198,l),
(289,168,l),
(273,168,l),
(230,164,l),
(215,161,l),
(185,165,l),
(154,157,l),
(124,160,l),
(116,159,l),
(97,151,l)
);
}
);
width = 522;
}
);
metricLeft = "=A";
metricRight = "=F";
note = four;
unicode = 52;
}
{
glyphname = five;
kernLeft = KO_five;
kernRight = KO_five;
layers = (
{
hints = (
{
horizontal = 1;
place = (-78,70);
type = Stem;
},
{
horizontal = 1;
place = (297,72);
type = Stem;
},
{
horizontal = 1;
place = (530,70);
type = Stem;
},
{
place = (-14,97);
type = Stem;
},
{
place = (297,116);
type = Stem;
}
);
layerId = m005;
shapes = (
{
closed = 1;
nodes = (
(211,-75,l),
(230,-72,l),
(254,-76,l),
(264,-69,l),
(282,-69,l),
(299,-61,l),
(314,-58,l),
(322,-55,l),
(345,-42,l),
(352,-42,l),
(372,-29,l),
(382,-18,l),
(397,-10,l),
(406,6,l),
(421,12,l),
(421,28,l),
(437,40,l),
(436,55,l),
(446,68,l),
(461,85,l),
(459,104,l),
(472,116,l),
(468,133,l),
(474,165,l),
(477,173,l),
(481,191,l),
(479,202,l),
(472,216,l),
(479,236,l),
(473,249,l),
(466,266,l),
(454,271,l),
(445,290,l),
(441,296,l),
(431,306,l),
(427,325,l),
(416,328,l),
(397,340,l),
(392,350,l),
(380,358,l),
(370,362,l),
(357,367,l),
(346,372,l),
(323,369,l),
(302,375,l),
(291,373,l),
(282,369,l),
(249,376,l),
(239,369,l),
(220,372,l),
(198,363,l),
(186,370,l),
(183,392,l),
(189,408,l),
(196,418,l),
(196,438,l),
(191,451,l),
(197,473,l),
(195,487,l),
(206,510,l),
(228,509,l),
(240,512,l),
(262,507,l),
(266,510,l),
(282,507,l),
(305,509,l),
(318,510,l),
(329,515,l),
(349,511,l),
(363,511,l),
(380,508,l),
(385,510,l),
(403,513,l),
(429,511,l),
(455,513,l),
(463,513,l),
(475,527,l),
(497,529,l),
(494,548,l),
(512,579,l),
(499,584,l),
(498,597,l),
(486,607,l),
(468,615,l),
(461,618,l),
(425,613,l),
(421,619,l),
(403,616,l),
(386,607,l),
(370,605,l),
(355,603,l),
(331,605,l),
(321,605,l),
(310,602,l),
(290,599,l),
(273,597,l),
(257,601,l),
(252,601,l),
(231,597,l),
(223,599,l),
(205,602,l),
(181,604,l),
(178,596,l),
(158,600,l),
(150,600,l),
(109,598,l),
(89,594,l),
(87,592,l),
(75,575,l),
(68,545,l),
(67,537,l),
(66,523,l),
(83,515,l),
(106,505,l),
(105,483,l),
(91,467,l),
(100,450,l),
(97,434,l),
(88,420,l),
(91,404,l),
(86,392,l),
(82,377,l),
(83,364,l),
(78,342,l),
(75,329,l),
(80,304,l),
(82,291,l),
(97,283,l),
(116,284,l),
(134,283,l),
(154,291,l),
(166,292,l),
(192,296,l),
(200,296,l),
(223,296,l),
(232,290,l),
(261,298,l),
(275,291,l),
(287,289,l),
(304,289,l),
(322,283,l),
(331,270,l),
(338,263,l),
(356,253,l),
(357,241,l),
(366,236,l),
(370,218,l),
(368,203,l),
(382,194,l),
(373,177,l),
(373,159,l),
(367,133,l),
(363,117,l),
(365,105,l),
(349,89,l),
(343,78,l),
(340,61,l),
(322,46,l),
(316,37,l),
(300,29,l),
(296,23,l),
(279,22,l),
(255,21,l),
(239,11,l),
(225,12,l),
(208,13,l),
(183,16,l),
(170,13,l),
(155,17,l),
(137,19,l),
(119,18,l),
(113,28,l),
(104,32,l),
(68,42,l),
(61,42,l),
(45,32,l),
(33,20,l),
(17,12,l),
(12,-16,l),
(20,-38,l),
(36,-44,l),
(60,-56,l),
(62,-66,l),
(80,-70,l),
(96,-67,l),
(127,-68,l),
(140,-76,l),
(150,-73,l),
(165,-80,l),
(180,-82,l)
);
}
);
width = 517;
},
{
hints = (
{
horizontal = 1;
place = (-78,70);
type = Stem;
},
{
horizontal = 1;
place = (297,72);
type = Stem;
},
{
horizontal = 1;
place = (530,70);
type = Stem;
},
{
place = (-14,97);
type = Stem;
},
{
place = (297,116);
type = Stem;
}
);
layerId = m002;
shapes = (
{
closed = 1;
nodes = (
(225,-99,l),
(242,-97,l),
(271,-99,l),
(291,-94,l),
(297,-91,l),
(316,-84,l),
(330,-85,l),
(358,-70,l),
(373,-68,l),
(394,-52,l),
(394,-44,l),
(417,-34,l),
(428,-31,l),
(432,-19,l),
(454,-8,l),
(458,2,l),
(468,12,l),
(484,24,l),
(488,39,l),
(502,50,l),
(498,70,l),
(518,87,l),
(522,93,l),
(526,114,l),
(533,129,l),
(543,154,l),
(535,188,l),
(547,199,l),
(546,212,l),
(549,234,l),
(535,242,l),
(531,258,l),
(536,273,l),
(535,283,l),
(532,302,l),
(514,307,l),
(507,318,l),
(502,331,l),
(497,346,l),
(481,354,l),
(479,358,l),
(462,362,l),
(453,371,l),
(439,379,l),
(429,385,l),
(411,385,l),
(401,392,l),
(375,391,l),
(367,396,l),
(347,398,l),
(333,398,l),
(310,397,l),
(295,394,l),
(266,400,l),
(253,401,l),
(257,413,l),
(256,435,l),
(288,438,l),
(316,434,l),
(338,435,l),
(363,437,l),
(389,434,l),
(410,438,l),
(456,435,l),
(486,444,l),
(493,449,l),
(510,459,l),
(516,471,l),
(534,481,l),
(551,490,l),
(552,509,l),
(559,523,l),
(561,549,l),
(562,568,l),
(566,576,l),
(553,594,l),
(555,599,l),
(540,614,l),
(528,627,l),
(514,631,l),
(507,640,l),
(500,637,l),
(481,643,l),
(466,646,l),
(443,643,l),
(428,639,l),
(409,637,l),
(385,638,l),
(372,633,l),
(364,635,l),
(345,634,l),
(329,631,l),
(305,627,l),
(294,630,l),
(268,625,l),
(254,630,l),
(232,623,l),
(209,629,l),
(177,621,l),
(155,629,l),
(132,619,l),
(120,626,l),
(102,618,l),
(88,618,l),
(76,604,l),
(62,601,l),
(51,586,l),
(44,580,l),
(24,568,l),
(18,548,l),
(24,520,l),
(12,505,l),
(22,496,l),
(22,475,l),
(31,471,l),
(53,440,l),
(44,412,l),
(43,391,l),
(47,380,l),
(43,365,l),
(42,349,l),
(39,328,l),
(33,305,l),
(42,290,l),
(35,275,l),
(43,258,l),
(50,252,l),
(70,243,l),
(80,239,l),
(99,226,l),
(115,226,l),
(132,235,l),
(157,239,l),
(163,237,l),
(184,240,l),
(199,241,l),
(208,246,l),
(226,243,l),
(240,248,l),
(263,245,l),
(284,238,l),
(303,234,l),
(311,231,l),
(321,228,l),
(339,217,l),
(340,198,l),
(333,184,l),
(336,152,l),
(335,141,l),
(322,129,l),
(317,119,l),
(306,104,l),
(284,92,l),
(264,88,l),
(253,90,l),
(231,91,l),
(217,84,l),
(192,93,l),
(186,95,l),
(167,96,l),
(160,100,l),
(145,107,l),
(109,113,l),
(95,119,l),
(73,114,l),
(62,113,l),
(41,105,l),
(29,103,l),
(18,92,l),
(14,78,l),
(-4,65,l),
(-11,52,l),
(-14,35,l),
(-14,6,l),
(-23,-10,l),
(-9,-28,l),
(-8,-41,l),
(-8,-53,l),
(2,-60,l),
(27,-66,l),
(52,-76,l),
(59,-81,l),
(77,-90,l),
(92,-96,l),
(107,-93,l),
(120,-100,l),
(138,-96,l),
(151,-103,l),
(170,-99,l),
(186,-107,l)
);
}
);
width = 558;
},
{
hints = (
{
horizontal = 1;
place = (-78,70);
type = Stem;
},
{
horizontal = 1;
place = (297,72);
type = Stem;
},
{
horizontal = 1;
place = (530,70);
type = Stem;
},
{
place = (-14,97);
type = Stem;
},
{
place = (297,116);
type = Stem;
}
);
layerId = m003;
shapes = (
{
closed = 1;
nodes = (
(224,-75,l),
(242,-81,l),
(260,-71,l),
(266,-68,l),
(289,-72,l),
(300,-68,l),
(308,-63,l),
(330,-49,l),
(344,-49,l),
(362,-35,l),
(369,-30,l),
(376,-16,l),
(396,-6,l),
(411,5,l),
(419,20,l),
(432,29,l),
(428,44,l),
(435,54,l),
(443,72,l),
(454,86,l),
(452,103,l),
(457,120,l),
(459,126,l),
(475,157,l),
(471,178,l),
(479,186,l),
(464,202,l),
(468,223,l),
(469,237,l),
(467,249,l),
(463,261,l),
(452,275,l),
(451,291,l),
(436,303,l),
(434,307,l),
(418,321,l),
(408,325,l),
(402,334,l),
(375,351,l),
(364,356,l),
(348,358,l),
(331,362,l),
(321,367,l),
(296,368,l),
(281,361,l),
(257,365,l),
(237,364,l),
(228,363,l),
(218,359,l),
(204,358,l),
(181,359,l),
(185,377,l),
(180,388,l),
(189,409,l),
(186,422,l),
(192,430,l),
(192,452,l),
(192,468,l),
(195,476,l),
(199,493,l),
(194,507,l),
(204,528,l),
(221,529,l),
(239,530,l),
(254,530,l),
(273,535,l),
(288,527,l),
(295,532,l),
(307,537,l),
(325,536,l),
(339,530,l),
(364,531,l),
(371,534,l),
(384,536,l),
(400,529,l),
(413,533,l),
(427,533,l),
(466,529,l),
(477,532,l),
(482,542,l),
(499,561,l),
(507,585,l),
(496,602,l),
(497,609,l),
(475,615,l),
(464,621,l),
(432,617,l),
(417,617,l),
(405,613,l),
(396,610,l),
(370,604,l),
(364,608,l),
(347,605,l),
(330,601,l),
(318,606,l),
(306,607,l),
(283,605,l),
(263,603,l),
(259,603,l),
(240,603,l),
(219,603,l),
(207,596,l),
(195,603,l),
(181,601,l),
(170,603,l),
(143,597,l),
(109,597,l),
(94,591,l),
(84,589,l),
(83,557,l),
(79,545,l),
(92,532,l),
(102,529,l),
(113,527,l),
(124,506,l),
(114,494,l),
(120,474,l),
(108,467,l),
(107,452,l),
(112,432,l),
(111,416,l),
(97,408,l),
(105,389,l),
(106,375,l),
(101,356,l),
(93,341,l),
(85,335,l),
(90,305,l),
(101,290,l),
(110,291,l),
(153,297,l),
(167,297,l),
(179,297,l),
(190,306,l),
(207,298,l),
(231,299,l),
(247,307,l),
(275,307,l),
(288,307,l),
(303,299,l),
(313,299,l),
(327,292,l),
(346,288,l),
(354,274,l),
(360,272,l),
(375,255,l),
(375,246,l),
(382,228,l),
(388,215,l),
(393,201,l),
(391,188,l),
(386,176,l),
(388,158,l),
(382,130,l),
(384,118,l),
(372,103,l),
(375,87,l),
(370,70,l),
(362,61,l),
(343,41,l),
(340,36,l),
(320,17,l),
(302,13,l),
(279,-2,l),
(264,-8,l),
(242,-10,l),
(228,-5,l),
(203,-11,l),
(181,-3,l),
(170,-9,l),
(155,-2,l),
(133,-3,l),
(126,7,l),
(107,4,l),
(91,12,l),
(67,25,l),
(56,17,l),
(47,16,l),
(40,-3,l),
(35,-30,l),
(43,-44,l),
(60,-53,l),
(78,-64,l),
(94,-64,l),
(114,-75,l),
(129,-69,l),
(143,-75,l),
(165,-74,l),
(182,-81,l),
(191,-80,l)
);
}
);
width = 519;
}
);
metricLeft = "=O";
metricRight = "=S";
note = five;
unicode = 53;
}
